<svg width="427" height="488" viewBox="0 0 427 488" fill="none" xmlns="http://www.w3.org/2000/svg">
<path d="M140.939 7.8404C151.588 5.83149 161.764 3.46943 172.068 2.00947C180.853 0.764854 189.8 -0.172169 198.647 0.0266962C226.663 0.656444 253.771 5.78807 279.686 17.0196C305.198 28.0771 326.895 44.2983 345.305 64.8049C365.515 87.3167 380.33 113.282 389.359 142.114C392.584 152.416 393.917 163.75 393.742 174.575C393.478 190.911 389.765 206.948 383.776 222.255C382.527 225.449 383.029 227.568 384.77 230.143C397.01 248.244 409.029 266.497 421.376 284.526C432.036 300.094 423.99 325.532 403.079 329.86C399.719 330.556 396.273 330.836 392.474 331.362C390.53 339.766 395.529 350.532 385.152 357.316C389.367 360.55 390.175 365.365 388.783 369.642C387.474 373.664 384.154 377.032 381.415 381.142C386.005 392.57 387.039 404.873 382.04 417.17C376.006 432.01 362.649 443.046 345.824 445.032C333.638 446.471 322.218 442.613 310.423 441.483C303.146 440.786 295.958 439.168 288.307 437.892C287.551 444.15 286.696 450.285 286.094 456.445C285.309 464.467 284.748 472.51 284.047 480.539C283.711 484.382 278.905 488.228 275.051 487.827C270.677 487.371 266.645 482.682 267.174 478.636C267.787 473.947 268.599 469.276 269.021 464.57C270.123 452.28 271.084 439.978 272.051 427.676C272.409 423.121 277.161 419.172 282.081 419.947C295.623 422.079 309.088 424.74 322.667 426.576C330.515 427.636 338.679 428.665 346.424 427.634C357.709 426.132 366.145 416.166 368.095 405.066C369.146 399.085 368.274 393.491 365.686 388.111C361.352 379.099 361.904 375.617 368.943 368.52C369.528 367.93 370.091 367.319 370.407 366.988C368.902 364.032 366.826 361.383 366.204 358.429C364.976 352.596 366.842 347.819 372.518 344.759C373.811 344.062 374.869 341.787 374.948 340.185C375.236 334.366 375.031 328.524 375.072 322.691C375.105 317.969 377.982 315.101 382.586 314.873C387.854 314.613 393.145 314.462 398.372 313.817C407.3 312.715 412.258 301.087 407.148 293.528C394.537 274.871 382.158 256.049 369.115 237.698C364.5 231.206 364.011 225.608 367.03 218.398C373.12 203.856 376.612 188.597 377.072 172.733C377.486 158.495 373.3 145.33 367.911 132.419C360.504 114.67 350.566 98.3739 338.723 83.321C328.679 70.5557 316.745 59.597 303.561 50.0681C283.999 35.9295 262.254 26.5708 238.781 21.3462C230.826 19.5755 222.625 18.7808 214.494 17.9616C207.762 17.2833 200.963 16.8778 194.201 16.9537C169.406 17.2321 145.559 22.2346 122.603 31.6696C105.88 38.5427 90.0997 47.1263 76.1123 58.5298C59.6768 71.9293 45.9666 87.7618 35.7038 106.541C26.8488 122.744 20.3328 139.836 18.4077 158.063C16.9247 172.105 17.6213 186.441 18.1621 200.615C18.8338 218.217 23.9892 234.927 29.8687 251.42C37.4687 272.739 47.5618 292.868 59.7417 311.853C68.722 325.852 78.9115 339.069 88.346 352.783C93.8996 360.855 97.543 369.592 97.1446 379.793C96.7611 389.611 97.4986 399.48 96.9708 409.285C95.8694 429.745 94.1438 450.162 89.4133 470.19C88.5553 473.823 88.0332 477.543 87.0308 481.131C85.8867 485.227 81.4199 488.385 78.0749 487.835C73.2837 487.048 70.6377 484.171 71.1816 478.768C71.8159 472.468 73.5695 466.288 74.4603 460.003C76.1369 448.172 78.0986 436.342 78.9164 424.44C79.8709 410.549 79.2351 396.547 80.236 382.662C80.8968 373.495 77.3923 366.383 72.237 359.612C52.8781 334.188 35.5792 307.486 22.2788 278.363C12.6332 257.244 5.41908 235.224 2.30287 212.22C0.424284 198.352 -0.544726 184.108 0.318029 170.171C2.37741 136.906 13.0375 106.443 32.9973 79.3464C52.8809 52.3535 78.7008 32.9261 108.844 19.1041C118.987 14.4532 129.94 11.5698 140.939 7.8404Z" fill="black"/>
<circle cx="94.5" cy="110.5" r="37.5" fill="#FE0000"/>
</svg>
