<?xml version="1.0" encoding="UTF-8"?>
<svg xmlns="http://www.w3.org/2000/svg" id="Layer_1" data-name="Layer 1" viewBox="0 0 24 24">
  <path d="M12.406,10.306c-.156-.085-.342-.083-.495,.006-.211,.124-5.162,3.065-5.222,6.675,.083,2.769,2.74,5.423,5.481,5.461,2.729-.039,5.469-2.682,5.469-5.485,0-3.761-5.022-6.541-5.233-6.657Zm-.235,11.143c-2.194-.031-4.415-2.255-4.481-4.468,.044-2.618,3.516-5.031,4.481-5.652,.965,.592,4.41,2.896,4.469,5.641-.074,2.232-2.291,4.449-4.469,4.479Z"/>
  <path d="M19.623,3.1c-.157-.087-.344-.083-.495,.006-.136,.08-3.326,1.976-3.365,4.351,.055,1.828,1.81,3.58,3.625,3.605,1.802-.025,3.612-1.852,3.612-3.605,0-2.444-3.241-4.282-3.377-4.357Zm-.235,6.962c-1.286-.018-2.587-1.323-2.625-2.612,.022-1.349,1.719-2.735,2.622-3.327,.688,.435,2.578,1.77,2.615,3.315-.047,1.308-1.344,2.605-2.612,2.623Z"/>
  <path d="M9.391,6.693c0-2.799-3.794-4.991-3.953-5.079-.156-.086-.342-.083-.495,.006-.159,.093-3.897,2.314-3.942,5.073,.063,2.121,2.099,4.153,4.202,4.182,2.09-.029,4.188-2.173,4.188-4.182Zm-4.188,3.182c-1.568-.022-3.155-1.613-3.202-3.188,.03-1.826,2.418-3.536,3.202-4.048,.782,.488,3.146,2.117,3.188,4.037-.055,1.595-1.638,3.178-3.188,3.2Z"/>
</svg>
