<svg width="49" height="50" viewBox="0 0 49 50" fill="none" xmlns="http://www.w3.org/2000/svg">
<path d="M0.268277 32.4513C3.18951 28.6142 4.817 24.9451 8.85264 22.8536C9.44827 22.6116 10.3086 22.1655 11.5824 21.9811C12.1781 21.7954 12.9296 21.8267 13.7031 21.7755L14.2959 21.742L14.3713 21.7371H14.3813C15.653 20.5735 11.5469 24.3409 17.2356 19.1282L17.237 19.1119L17.2399 19.0784L17.2527 18.9325L17.2833 18.6045L17.4534 17.2083C17.9622 13.5099 19.2104 8.53565 21.5096 6.39864C22.0583 5.92754 22.555 5.67064 23.0923 5.61086C23.3428 5.60944 23.1507 5.50839 23.7029 5.91829C24.5832 6.81423 25.3845 8.47374 25.8918 9.80377C26.923 12.5919 27.2126 14.5695 27.229 14.5503C27.224 14.1596 27.688 17.3719 27.6439 18.3148C26.2135 15.0129 29.5952 22.8116 29.2479 22.0089L29.2514 22.0103L29.2593 22.0132L29.2749 22.0196L29.3069 22.0324L29.4194 22.0808L29.6514 22.1811L30.1573 22.4181C30.5032 22.5995 30.8661 22.7739 31.2305 22.9924C31.9691 23.4008 32.7228 23.9032 33.4799 24.4555C34.9907 25.5685 36.4709 26.9675 37.6906 28.5964C40.3165 32.0386 41.1399 35.559 41.6316 40.1903C41.7512 40.7959 41.9305 41.5317 42.2465 42.2376C42.5703 42.9749 42.3525 42.3906 42.4486 42.7898C42.4806 43.0354 42.4877 43.4531 42.4927 43.8196C42.6592 42.2903 43.2492 42.3123 42.9624 42.4426C42.2045 42.913 40.967 43.3961 40.2831 43.6118C34.7644 45.008 31.7158 47.2468 26.5437 46.6703C30.8106 50.7608 35.8027 50.5473 42.0501 48.8743C42.9659 48.5505 44.18 48.2281 46.1149 47.0439C46.4486 46.7187 47.7794 46.2135 48.0747 43.8018C48.0669 43.3065 48.0726 42.8261 47.9978 42.1494C48.0249 41.6185 47.4791 40.1184 47.3581 39.9768C47.2699 39.7825 47.2022 39.5306 47.1197 39.1221C46.8578 35.554 45.4993 29.1857 42.1461 25.2247C40.5585 23.1148 38.6769 21.3521 36.789 19.9658C35.8404 19.2755 34.9032 18.6578 33.9717 18.1419L32.5989 17.4132L31.9144 17.0951L31.5607 16.9435L31.3842 16.8695L31.271 16.8254L31.2148 16.8041L31.1871 16.7934L31.1728 16.7877C30.817 15.985 34.2029 23.7759 32.774 20.4675C33.697 14.8812 32.4602 13.8629 32.6793 13.4978C32.6516 13.4964 32.3413 11.2263 31.0924 7.82545C30.3844 6.12608 29.6514 4.10719 27.6005 1.93033C26.664 0.86502 24.317 -0.327668 22.3124 0.0829416C20.5988 0.287179 18.9763 1.16675 17.7821 2.23633C13.3202 6.81778 12.7118 12.1507 11.9148 16.4418L11.7205 18.0558L11.6835 18.4586L11.6664 18.6742L11.6621 18.7311L11.66 18.7596C17.3416 13.5484 13.2277 17.315 14.4923 16.1522L14.4788 16.1529L14.3749 16.1572L13.5558 16.1935C12.4798 16.2561 11.4857 16.2504 10.5499 16.5009C8.68968 16.7962 7.2223 17.4929 6.28366 17.9334C-0.704518 22.0366 -0.265444 28.4349 0.268277 32.4513Z" fill="#00796B"/>
<path d="M26.3836 29.6397C28.8558 29.6084 31.6318 30.5506 33.0295 32.6812C34.0315 34.209 36.6118 31.8052 35.7422 30.478C33.9518 27.7475 30.5979 26.4366 27.3955 26.4779C25.842 26.4978 24.4024 29.6653 26.3836 29.6397Z" fill="#00796B"/>
</svg>
