<svg id="Layer_1" viewBox="0 0 24 24" xmlns="http://www.w3.org/2000/svg" data-name="Layer 1"><path d="m21 5h-4.56l.336-2.687c.094-.749.734-1.313 1.489-1.313h3.235c.276 0 .5-.224.5-.5s-.224-.5-.5-.5h-3.235c-1.258 0-2.325.941-2.481 2.189l-.352 2.811h-5.932c-1.93 0-3.5 1.57-3.5 3.5v2c0 .276.224.5.5.5s.5-.224.5-.5v-2c0-1.378 1.122-2.5 2.5-2.5h9.28c-.48.532-.78 1.229-.78 2v13c0 .771.301 1.468.78 2h-5.78c-.276 0-.5.224-.5.5s.224.5.5.5h8c1.654 0 3-1.346 3-3v-13c0-1.654-1.346-3-3-3zm2 16c0 1.103-.897 2-2 2s-2-.897-2-2v-13c0-1.103.897-2 2-2s2 .897 2 2zm-14.055-5.797c.065-.053.134-.1.195-.16.614-.614.797-1.452.848-1.783.053-.348-.06-.689-.309-.938-.249-.25-.59-.363-.938-.309-.333.05-1.172.233-1.785.846-.374.374-.596.848-.732 1.294-.459-1.159-1.337-1.977-1.387-2.023-.203-.186-.519-.171-.706.032-.186.204-.172.52.031.706.012.011 1.032.962 1.282 2.131h-1.195c-2.343 0-4.249 2.019-4.249 4.5s1.907 4.5 4.25 4.5c.528 0 1.045-.103 1.536-.304.139-.059.287-.058.428 0 .49.202 1.007.304 1.536.304 2.343 0 4.25-2.019 4.25-4.5 0-2.039-1.296-3.746-3.055-4.297zm-1.282-1.638c.414-.414 1.044-.537 1.309-.537.016.016.034.042.028.081-.028.183-.15.811-.566 1.227-.376.376-.949.539-1.37.61.066-.425.223-1.004.6-1.38zm.087 9.434c-.397 0-.786-.077-1.154-.229-.192-.079-.394-.119-.596-.119s-.403.04-.595.119c-.369.152-.757.229-1.155.229-1.792 0-3.25-1.57-3.25-3.5s1.458-3.5 3.249-3.5h3.502c1.792 0 3.249 1.57 3.249 3.5s-1.458 3.5-3.25 3.5z"/></svg>