<svg width="512" height="512" viewBox="0 0 512 512" fill="none" xmlns="http://www.w3.org/2000/svg">
<path d="M161.206 48.7116C156.954 43.5459 156.692 38.8496 160.216 35.3C163.787 31.7028 170.76 32.0827 173.662 36.252C184.689 52.0907 196.893 66.9865 209.162 81.8694C219.657 94.6015 230.8 106.726 242.249 118.533C254.817 131.494 269.191 142.43 283.803 153.075C299.054 164.185 312.394 177.463 323.683 192.614C325.709 195.333 327.619 196.514 330.558 195.956C343.145 193.568 355.603 190.815 367.55 185.89C381.118 180.296 385.861 169.581 387.097 155.947C388.299 142.683 387.786 129.429 388.012 116.17C388.087 111.705 386.584 107.409 386.932 102.882C387.299 98.1169 390.82 94.1293 395.386 94.0257C399.5 93.9323 403.578 98.1037 404.02 102.557C405.496 117.456 405.356 132.412 404.83 147.314C404.492 156.881 403.225 166.523 400.586 175.814C397.67 186.08 390.102 192.706 381.362 197.788C367.564 205.812 352.247 209.56 336.416 212.331C340.905 223.85 345.299 235.465 347.396 247.782C348.409 253.73 349.791 259.644 347.976 265.682C346.757 269.738 344.331 272.899 339.949 272.857C335.751 272.817 332.754 270.632 331.931 265.87C330.405 257.051 330.7 248.05 328.139 239.29C323.913 224.836 316.817 212.059 307.731 200.239C302.801 193.826 297.57 187.676 291.644 182.148C280.5 171.752 267.889 163.221 255.942 153.844C241.248 142.312 227.856 129.292 215.484 115.203C209.728 108.649 203.788 102.247 198.062 95.648C186.473 82.291 175.793 68.2242 165.049 54.2028C163.768 52.531 162.655 50.7308 161.206 48.7116Z" fill="black"/>
<path d="M156 404.056C155.825 392.163 158.73 381.259 161.309 370.293C163.408 361.364 164.851 352.333 165.026 343.128C165.063 341.197 164.927 339.33 165.751 337.321C166.576 335.31 166.033 333.417 163.511 331.634C145.243 318.723 131.983 301.259 120.221 282.561C111.721 269.051 104.078 255.039 97.2889 240.601C86.7964 218.288 77.4567 195.472 69.1307 172.27C61.9075 152.141 55.1102 131.856 49.5967 111.17C48.2075 105.958 50.4627 102.169 55.972 100.506C60.4743 99.147 64.4258 101.141 65.9187 105.958C69.8021 118.487 73.0779 131.221 77.3857 143.599C83.1857 160.264 89.0873 176.903 95.643 193.305C104.038 214.31 113.364 234.879 124.036 254.805C132.656 270.899 142.077 286.504 154.49 300.12C157.977 303.945 160.832 308.305 166.109 310.702C165.532 307.814 164.804 305.331 164.945 302.66C165.221 297.458 167.801 294.17 172.407 294.03C177.891 293.863 181.148 296.695 181.94 301.763C183.804 313.695 184.748 325.752 183.904 337.792C182.867 352.593 180.441 367.188 176.295 381.521C172.271 395.432 172.391 409.659 173.809 424.049C175.416 440.352 178.865 456.151 183.851 471.698C184.989 475.248 181.866 479.905 178.217 480.885C173.355 482.19 168.56 479.968 167.025 475.434C163.589 465.286 161.034 454.86 159.141 444.357C156.777 431.239 155.309 417.953 156 404.056Z" fill="black"/>
<path d="M271.997 335.523C270.22 341.562 267.23 343.769 262.484 342.98C258.304 342.285 255.165 338.168 254.969 333.339C254.905 331.767 255.846 329.658 254.051 328.757C252.152 327.804 251.567 330.34 250.181 331.041C247.185 332.556 245.016 335.162 243.071 337.819C239.352 342.899 234.047 344.326 229.704 341.174C225.412 338.058 224.974 331.993 229.126 327.473C234.163 321.989 239.458 316.715 245.431 312.228C250.039 308.767 250.124 308.88 247.475 302.85C243.164 307.232 239.036 311.475 234.854 315.665C231.857 318.668 225.494 318.935 222.779 316.242C219.157 312.648 219.221 307.955 222.538 303.883C226.5 299.019 230.517 294.193 235.81 290.779C240.847 287.53 240.243 284.181 236.599 280.195C229.714 286.414 222.323 291.949 213.928 296.035C210.533 297.687 207.154 297.567 204.115 295.509C201.034 293.422 200.66 290.051 201.024 286.628C201.48 282.335 205.137 280.969 208.236 279.413C215.098 275.966 220.868 271.26 225.772 265.525C223.683 262.475 221.942 261.276 218.552 264.58C214.996 268.045 210.432 270.494 206.243 273.289C200.686 276.996 195.437 275.443 192.859 269.424C191.109 265.336 192.583 261.613 197.389 258.255C200.046 256.398 202.877 254.777 205.452 252.816C207.169 251.508 209.516 250.508 205.971 247.772C202.593 245.164 201.635 240.863 204.617 236.886C207.031 233.667 209.863 232.32 214.221 233.87C223.322 237.108 229.656 243.786 235.884 250.507C245.691 261.09 253.927 272.873 259.566 286.206C266.175 301.835 271.595 317.843 271.997 335.523Z" fill="black"/>
<path d="M377.95 290.587C381.516 289.036 384.929 288.944 388.4 288.974C402.252 289.094 416.157 288.274 429.864 291.029C440.694 293.206 451.2 296.406 460.659 302.315C465.164 305.128 466.002 310.386 462.975 315.101C460.859 318.396 455.202 319.046 451.113 316.689C441.713 311.272 431.523 308.421 420.788 306.915C408.552 305.199 396.309 306.404 384.076 306.049C380.094 305.933 376.586 305.63 374.734 301.32C372.848 296.934 374.438 293.727 377.95 290.587Z" fill="black"/>
<path d="M195 318.5C195 339.211 178.211 356 157.5 356C136.789 356 120 339.211 120 318.5C120 297.789 136.789 281 157.5 281C178.211 281 195 297.789 195 318.5Z" fill="#FE0000"/>
</svg>
