<?xml version="1.0" encoding="utf-8"?>
<!-- Generator: Adobe Illustrator 14.0.0, SVG Export Plug-In . SVG Version: 6.00 Build 43363)  -->
<!DOCTYPE svg PUBLIC "-//W3C//DTD SVG 1.1//EN" "http://www.w3.org/Graphics/SVG/1.1/DTD/svg11.dtd">
<svg version="1.1" xmlns="http://www.w3.org/2000/svg" xmlns:xlink="http://www.w3.org/1999/xlink" x="0px" y="0px" width="512px"
	 height="512px" viewBox="0 0 512 512" enable-background="new 0 0 512 512" xml:space="preserve">
<g id="Layer_1">
	<path d="M256,0c-29.461,0-53.333,23.872-53.333,53.334c0,29.461,23.872,53.333,53.333,53.333c29.462,0,53.333-23.872,53.333-53.333
		C309.333,23.872,285.462,0,256,0z"/>
	<path d="M317.013,147.157c-11.69-11.797-27.669-19.179-45.312-19.179h-31.339c-17.643,0-33.643,7.403-45.313,19.179L69.611,284.266
		l31.509,28.779l69.077-75.712l-23.68,189.312h45.504v85.334h42.667v-85.334h42.667v85.334h42.666v-85.334h45.504l-23.68-189.312
		l69.077,75.712h0.021l31.509-28.779L317.013,147.157z"/>
</g>
<g id="Ebene_2">
	<g>
		
			<rect x="124.84" y="142.612" transform="matrix(-0.7373 -0.6756 0.6756 -0.7373 96.7825 502.6823)" fill="#D2691E" width="42.589" height="179.82"/>
	</g>
	<g>
		
			<rect x="179.858" y="158.165" transform="matrix(0.9724 0.2334 -0.2334 0.9724 53.7083 -45.5103)" width="78.508" height="91.942"/>
	</g>
	<g>
		<polygon fill="#D2691E" points="321.096,151.587 289.743,180.403 411.099,313.24 442.453,284.425 		"/>
	</g>
	<g>
		
			<rect x="253.523" y="158.165" transform="matrix(-0.9724 0.2334 -0.2334 -0.9724 625.1174 334.2833)" width="78.507" height="91.942"/>
	</g>
</g>
</svg>
