<svg width="500" height="417" viewBox="0 0 500 417" fill="none" xmlns="http://www.w3.org/2000/svg">
<path d="M406.25 104.167H260.417C219.521 104.167 184.667 130.479 171.896 167.063C160.438 154.063 143.667 145.833 125 145.833C90.5417 145.833 62.5 173.875 62.5 208.333C62.5 224.333 68.5417 238.938 78.4583 250H20.8333V10.4167C20.8333 4.66667 16.1667 0 10.4167 0C4.66667 0 0 4.66667 0 10.4167V406.25C0 412 4.66667 416.667 10.4167 416.667C16.1667 416.667 20.8333 412 20.8333 406.25V354.167H479.167V406.25C479.167 412 483.833 416.667 489.583 416.667C495.333 416.667 500 412 500 406.25V197.917C500 146.229 457.938 104.167 406.25 104.167ZM187.5 197.917C187.5 157.708 220.208 125 260.417 125H406.25C446.458 125 479.167 157.708 479.167 197.917V250H187.5V197.917ZM83.3333 208.333C83.3333 185.354 102.021 166.667 125 166.667C147.979 166.667 166.667 185.354 166.667 208.333C166.667 231.313 147.979 250 125 250C102.021 250 83.3333 231.313 83.3333 208.333ZM20.8333 333.333V270.833H479.167V333.333H20.8333Z" fill="#00B098"/>
</svg>
