<?xml version="1.0" encoding="utf-8"?>
<!-- Generator: Adobe Illustrator 14.0.0, SVG Export Plug-In . SVG Version: 6.00 Build 43363)  -->
<!DOCTYPE svg PUBLIC "-//W3C//DTD SVG 1.1//EN" "http://www.w3.org/Graphics/SVG/1.1/DTD/svg11.dtd">
<svg version="1.1" id="Ebene_1" xmlns="http://www.w3.org/2000/svg" xmlns:xlink="http://www.w3.org/1999/xlink" x="0px" y="0px"
	 width="800px" height="460.5px" viewBox="0 0 800 460.5" enable-background="new 0 0 800 460.5" xml:space="preserve">
<g id="XMLID_2_">
	<g>
		<path fill="#FFFFFF" d="M797.79,416.08c0,13.6,0,27.189,0,40.78c-32.76,0-65.51,0-98.271,0c35.341-5.74,86.58-11.25,97.221-40.78
			C797.09,416.08,797.44,416.08,797.79,416.08z"/>
		<path fill="#D2691E" d="M797.79,390.99c0,8.37,0,16.729,0,25.09c-0.35,0-0.7,0-1.05,0c-10.641,29.53-61.88,35.04-97.221,40.78
			c-9.76,0-19.52,0-29.27,0c-18.11-2.11-38.98-7.03-44.96-17.78c26.28,14.33,64.97,4.65,95.14-6.271
			c12.41-4.489,44.53-15.85,47.04-26.13c1.92-7.87-6.56-24.92-8.359-34.5c-2.33-12.38-3.311-25.64-5.23-36.59
			c-12.35-70.49-56.51-117.24-106.63-144.27c-3.16-6.95-5.55-14.67-9.41-20.91c0.851-41.32-7.1-79.52-23-111.87
			c-3.27-6.64-12.49-26.19-21.96-24.04c-7.76,1.76-17.149,9.54-21.95,15.68C549.9,77.11,541.95,130.87,537.48,172.5
			c-5.29,6.91-12.341,12.06-18.82,17.77c-68.601,0.83-95.391,46.57-115,99.32c-5.81,15.62-8.61,38.03-28.23,36.59
			c-13.74-1.01-17.41-21.79-21.95-33.459c-16.59-42.57-46.52-68.74-87.82-88.86c-52.55-25.6-146.87-38.02-191.31,7.32
			c-30.12,30.73-55.76,98.36-18.82,140.089c0.24,0.271,2.07,3.591,3.13,1.04c2.2-31.59,14.4-52.16,35.55-61.68
			c33.32-15,74.72,4.77,89.91,29.271c25.01,40.35-5.02,95.93-24.05,120.229c14.12-29.07,27.05-92.74-3.13-113.95
			c-21.66-15.22-59.42-12.47-63.78,16.721c-1.54,10.31,1.31,21.659,5.23,30.319c4.86,10.73,18.25,20,17.77,32.41
			c-0.27,7.101-6.26,15.58-14.63,16.73c-13.71,1.88-29.82-10.38-39.73-17.78c-28.71-21.43-54.07-53.75-59.59-95.13
			c0-7.67,0-15.33,0-23c13.9-78.04,61.13-134.37,146.36-140.09c104.92-7.03,193.45,49.85,230,116.05
			c22.24-55.48,56.81-98.62,126.5-106.64C514.1,86.05,527.4,20.59,585.57,0c4.529,0,9.06,0,13.59,0c0,0.35,0,0.7,0,1.05
			C632.64,5.7,647.7,42.09,657.7,73.18c9.35,29.06,15.189,61.86,15.68,93.05c53.8,32.9,95.32,79.91,110.82,151.58
			C789.24,341.12,788.91,366.76,797.79,390.99z"/>
		<path fill="#FFFFFF" d="M797.79,0c0,130.33,0,260.66,0,390.99c-8.88-24.23-8.55-49.87-13.59-73.181
			c-15.5-71.669-57.021-118.68-110.82-151.58c-0.49-31.19-6.33-63.99-15.68-93.05c-10-31.09-25.061-67.48-58.54-72.13
			c0-0.35,0-0.7,0-1.05C665.37,0,731.58,0,797.79,0z"/>
		<path fill="#FFFFFF" d="M759.11,372.18c1.8,9.58,10.279,26.63,8.359,34.5c-2.51,10.28-34.63,21.641-47.04,26.13
			c-30.17,10.921-68.859,20.601-95.14,6.271c5.979,10.75,26.85,15.67,44.96,17.78c-222.68,0-445.37,0-668.04,0
			c0-49.141,0-98.271,0-147.41c5.52,41.38,30.88,73.7,59.59,95.13c9.91,7.4,26.02,19.66,39.73,17.78
			c8.37-1.15,14.36-9.63,14.63-16.73c0.48-12.41-12.91-21.68-17.77-32.41c-3.92-8.66-6.77-20.01-5.23-30.319
			c4.36-29.19,42.12-31.94,63.78-16.721c30.18,21.21,17.25,84.88,3.13,113.95c19.03-24.3,49.06-79.88,24.05-120.229
			c-15.19-24.5-56.59-44.271-89.91-29.271c-21.15,9.52-33.35,30.09-35.55,61.68c-1.06,2.551-2.89-0.77-3.13-1.04
			C18.59,309.54,44.23,241.91,74.35,211.18c44.44-45.34,138.76-32.92,191.31-7.32c41.3,20.12,71.23,46.29,87.82,88.86
			c4.54,11.669,8.21,32.45,21.95,33.459c19.62,1.44,22.42-20.97,28.23-36.59c19.609-52.75,46.399-98.49,115-99.32
			c6.479-5.71,13.53-10.86,18.82-17.77c4.47-41.63,12.42-95.39,33.449-122.32c4.801-6.14,14.19-13.92,21.95-15.68
			c9.47-2.15,18.69,17.4,21.96,24.04c15.9,32.35,23.851,70.55,23,111.87c3.86,6.24,6.25,13.96,9.41,20.91
			c50.12,27.03,94.28,73.78,106.63,144.27C755.8,346.54,756.78,359.8,759.11,372.18z M694.29,303.18
			c5.81,0.551,12.65-5.27,12.55-12.55c-0.14-9.24-14.27-22.4-26.14-29.27c-20.601-11.92-57.13-20.9-55.41,6.27
			c19.46,4.1,35.57,5.09,49.14,15.68C680.38,287.96,686.83,302.47,694.29,303.18z"/>
		<path fill="#D2691E" d="M706.84,290.63c0.101,7.28-6.74,13.101-12.55,12.55c-7.46-0.71-13.91-15.22-19.86-19.87
			c-13.569-10.59-29.68-11.58-49.14-15.68c-1.72-27.17,34.81-18.19,55.41-6.27C692.57,268.23,706.7,281.39,706.84,290.63z"/>
		<path fill="#FFFFFF" d="M2.21,0c194.45,0,388.9,0,583.36,0c-58.17,20.59-71.471,86.05-80.5,155.77
			c-69.69,8.02-104.261,51.16-126.5,106.64c-36.55-66.2-125.08-123.08-230-116.05C63.34,152.08,16.11,208.41,2.21,286.45
			C2.21,190.97,2.21,95.48,2.21,0z"/>
	</g>
	<g>
	</g>
</g>
</svg>
