<svg width="500" height="500" viewBox="0 0 500 500" fill="none" xmlns="http://www.w3.org/2000/svg">
<path d="M0 263.672C0 260.712 0 257.753 0.217174 254.679C1.7516 253.367 3.11957 252.219 4.37842 250.963C20.6114 234.757 37.2168 218.899 52.8713 202.152C59.7491 194.794 66.7403 190.662 76.8269 192.322C79.3254 192.732 81.949 192.383 85.2259 192.383C81.8409 174.267 84.738 157.84 95.5177 143.296C106.421 128.584 121.703 121.424 139.648 118.879C139.648 116.751 139.648 114.98 139.648 113.208C139.648 78.5576 139.624 43.9069 139.691 9.25643C139.697 6.17036 140.299 3.08545 140.625 0C216.166 0 291.707 2.91038e-08 367.411 0.337354C368.095 3.15495 369.069 5.63437 369.074 8.11557C369.163 57.0724 369.141 106.029 369.141 154.986C369.141 156.667 369.141 158.347 369.141 161.236C370.133 159.834 370.479 159.491 370.655 159.076C377.874 142.085 385.016 125.061 392.299 108.098C400.905 88.0504 409.597 68.0396 418.324 48.0447C421.194 41.4703 424.864 35.6143 431.844 32.3939C433.508 31.6261 434.792 29.2529 435.509 27.3401C440.011 15.3308 447.311 10.5273 458.503 13.9109C463.969 15.5635 469.873 18.399 473.614 22.4941C478.973 28.3606 477.196 35.9225 474.241 42.8939C473.376 44.9344 472.112 47.4445 472.614 49.314C474.684 57.0189 473.551 64.1031 470.302 71.2209C463.819 85.4226 457.507 99.7043 451.273 114.018C443.135 132.704 435.194 151.475 427.058 170.162C423.891 177.435 420.425 184.578 416.817 192.383C422.323 192.383 427.318 192.588 432.285 192.312C435.64 192.125 437.963 193.182 440.336 195.583C458.859 214.321 477.518 232.924 496.187 251.517C497.224 252.549 498.719 253.12 500 253.906C500 256.866 500 259.825 499.724 262.928C494.272 266.551 492.529 266.44 488.203 262.125C475.531 249.485 462.891 236.813 450.227 224.166C449.128 223.069 447.945 222.056 446.365 220.602C446.365 222.145 446.207 222.988 446.389 223.749C450.602 241.386 454.826 259.021 459.108 276.641C460.734 283.332 458.771 286.086 452.086 286.127C446.956 286.159 441.826 286.133 436.521 286.133C436.521 288.859 436.521 290.804 436.521 292.748C436.521 347.582 436.551 402.416 436.479 457.25C436.471 463.202 436.067 469.172 435.509 475.102C434.467 486.179 428.321 493.576 418.359 498.101C417.743 498.381 417.441 499.351 416.992 500C305.969 500 194.946 500 83.789 499.728C66.7418 492.13 63.2256 478.131 63.3361 461.312C63.7069 404.846 63.477 348.376 63.4769 291.908C63.4769 290.042 63.4769 288.176 63.4769 286.132C57.4744 286.132 52.2714 286.19 47.0704 286.114C42.6906 286.05 39.3762 281.797 40.3602 277.644C44.1756 261.54 47.9865 245.435 51.8258 229.337C52.4542 226.702 53.2168 224.099 53.9173 221.481C51.8402 222.191 50.6688 223.265 49.5456 224.387C37.9184 236.004 26.1577 247.492 14.7498 259.32C10.4421 263.787 6.38687 267.159 0 263.672ZM423.828 312.988C423.828 304.114 423.828 295.239 423.828 286.381C307.614 286.381 192.14 286.381 76.1723 286.381C76.1723 287.879 76.1723 289.135 76.1723 290.39C76.1722 349.461 76.1419 408.531 76.2533 467.601C76.2595 470.866 76.9567 474.322 78.1669 477.356C81.6929 486.197 89.5105 488.216 97.8603 488.224C199.24 488.312 300.619 488.3 401.999 488.203C405.595 488.199 409.419 487.623 412.741 486.311C421.479 482.859 423.791 475.27 423.8 466.766C423.857 415.833 423.828 364.899 423.828 312.988ZM410.645 273.438C422.112 273.438 433.579 273.438 445.472 273.438C440.128 251.905 434.64 231.141 430.033 210.183C429.003 205.496 427.346 205.024 423.499 205.026C307.805 205.09 192.112 205.078 76.4185 205.078C75.4422 205.078 74.2878 204.754 73.5304 205.163C72.3238 205.814 70.7168 206.787 70.4313 207.916C67.7775 218.404 65.3933 228.961 62.8852 239.487C60.2171 250.684 57.4995 261.87 54.7128 273.438C173.423 273.438 291.546 273.438 410.645 273.438ZM312.988 192.383C327.395 192.383 341.802 192.383 356.175 192.383C356.175 131.816 356.175 71.9921 356.175 12.0568C288.151 12.0568 220.398 12.0568 152.516 12.0568C152.516 47.8293 152.516 83.2636 152.516 118.579C192.076 127.397 210.794 151.288 206.391 192.383C241.757 192.383 276.884 192.383 312.988 192.383ZM179.186 192.383C182.601 192.382 186.059 192.691 189.412 192.233C190.827 192.04 192.377 190.448 193.203 189.089C193.869 187.995 193.54 186.295 193.658 184.788C188.675 183.547 179.827 187.519 180.088 178.179C180.312 170.17 188.414 172.236 194.042 171.694C188.937 149.186 174.838 136.509 152.912 131.951C151.16 136.189 153.534 142.683 146.29 143.481C144.805 143.645 142.325 143.366 141.839 142.464C140.099 139.232 139.019 135.644 137.655 132.104C116.076 136.593 101.967 149.259 96.9884 171.782C102.701 172.143 110.764 169.968 110.947 178.199C111.153 187.498 102.317 183.54 97.1848 184.837C98.4285 192.383 98.4285 192.383 106 192.383C130.071 192.383 154.143 192.383 179.186 192.383ZM431.711 49.6485C428.164 57.9906 424.672 66.3571 421.058 74.6702C409.639 100.937 398.173 127.184 386.532 153.882C395.827 157.934 404.979 161.922 414.479 166.063C416.93 160.885 419.501 155.802 421.774 150.589C430.173 131.325 438.503 112.032 446.798 92.7237C451.384 82.0506 456.012 71.3903 460.297 60.5959C462.339 55.4535 460.376 51.4908 455.846 49.9452C454.315 53.0742 452.651 56.1457 451.276 59.3415C443.354 77.7549 435.532 96.2118 427.595 114.619C425.954 118.425 421.844 120.258 418.587 118.981C415.523 117.779 413.936 113.204 415.584 109.395C421.401 95.9477 427.362 82.5626 433.225 69.1351C436.879 60.7679 440.455 52.3668 444.208 43.6486C438.11 41.8203 435.207 45.7249 431.711 49.6485ZM405.737 184.596C406.79 182.469 407.844 180.342 409.013 177.979C399.942 174.017 390.986 170.105 381.735 166.064C378.505 175.013 375.441 183.498 372.233 192.383C380.168 192.383 387.201 191.912 394.138 192.525C400.232 193.063 403.937 191.247 405.737 184.596ZM462.244 36.9576C464.843 31.1901 467.011 31.3997 455.954 26.2674C450.336 23.6598 450.074 27.9037 448.402 31.0731C452.931 33.114 457.22 35.0463 462.244 36.9576Z" fill="#00B098"/>
<path d="M358.4 416.992C358.399 423.499 358.432 429.517 358.39 435.535C358.347 441.542 356.54 443.356 350.683 443.357C283.506 443.361 216.329 443.361 149.153 443.356C143.574 443.356 141.623 441.497 141.617 435.862C141.584 403.169 141.59 370.475 141.612 337.781C141.615 332.005 143.605 330.09 149.559 330.087C182.253 330.069 214.947 330.078 247.64 330.078C281.635 330.078 315.63 330.075 349.626 330.081C356.728 330.082 358.396 331.768 358.398 338.917C358.402 364.78 358.399 390.642 358.4 416.992ZM287.598 342.773C243.266 342.773 198.934 342.773 154.692 342.773C154.692 372.46 154.692 401.464 154.692 430.408C218.467 430.408 281.845 430.408 345.394 430.408C345.394 401.15 345.394 372.147 345.394 342.773C326.249 342.773 307.412 342.773 287.598 342.773Z" fill="#00B098"/>
<path d="M313.477 78.1256C265.844 78.1255 218.699 78.1288 171.554 78.1215C165.059 78.1205 162.126 75.7717 163.308 70.6502C163.775 68.6266 166.544 67.0326 168.475 65.5091C169.078 65.0341 170.368 65.4301 171.343 65.4301C226.779 65.4299 282.215 65.4291 337.651 65.4312C343.481 65.4314 345.697 67.0478 345.701 71.2732C345.705 76.1706 343.371 78.1083 337.375 78.1213C329.571 78.1383 321.768 78.1255 313.477 78.1256Z" fill="#00B098"/>
<path d="M210.937 30.273C253.368 30.2731 295.31 30.2699 337.253 30.2768C343.302 30.2778 345.649 32.165 345.699 37.0038C345.736 40.7023 343.819 42.6299 340.207 42.9538C339.401 43.0262 338.582 42.9684 337.769 42.9684C282.172 42.9686 226.574 42.9698 170.976 42.9667C165.027 42.9664 163.044 41.317 163.087 36.4548C163.124 32.243 165.545 30.2935 170.945 30.2822C184.113 30.2547 197.281 30.2731 210.937 30.273Z" fill="#00B098"/>
<path d="M258.789 100.586C285.796 100.586 312.314 100.575 338.832 100.595C344.136 100.599 345.885 102.298 345.711 106.91C345.58 110.409 343.818 112.184 340.344 112.296C339.694 112.317 339.043 112.304 338.392 112.304C282.102 112.304 225.811 112.306 169.521 112.302C164.509 112.301 161.929 109.005 163.208 104.285C164.015 101.306 165.942 100.508 168.985 100.519C198.757 100.63 228.529 100.586 258.789 100.586Z" fill="#00B098"/>
<path d="M337.619 147.461C298.774 147.461 260.386 147.467 221.998 147.454C216.281 147.452 214.952 146.03 214.789 140.934C214.659 136.89 217.195 135.645 220.319 134.829C221.234 134.59 222.261 134.767 223.237 134.767C261.299 134.765 299.362 134.791 337.424 134.729C341.554 134.723 344.832 135.608 345.658 140.213C346.509 144.957 343.922 147.368 337.619 147.461Z" fill="#00B098"/>
<path d="M142.17 152.528C149.36 152.297 151.323 153.158 151.927 159.667C152.526 166.139 151.675 172.798 150.881 179.304C150.726 180.572 147.963 182.351 146.311 182.457C140.337 182.841 134.319 182.744 128.325 182.57C123.787 182.437 120.949 179.668 121.101 176.025C121.275 171.874 123.621 169.941 128.526 169.924C131.731 169.914 134.935 169.922 137.167 169.922C138.825 163.725 140.305 158.194 142.17 152.528Z" fill="#00B098"/>
</svg>
