<svg width="511" height="458" viewBox="0 0 511 458" fill="none" xmlns="http://www.w3.org/2000/svg">
<path d="M512 180.531C511.34 181.542 510.183 182.013 510.094 182.637C507.56 200.429 501.499 217.104 493.389 232.97C484.662 250.046 474.026 265.97 461.173 280.264C449.34 293.422 437.749 306.87 425.058 319.165C409.065 334.659 392.134 349.192 375.475 363.99C362.674 375.362 349.738 386.587 336.732 397.725C321.75 410.555 306.609 423.199 291.572 435.965C286.298 440.443 281.095 445.004 275.921 449.596C264.695 459.558 247.421 459.455 235.972 449.509C219.198 434.938 202.328 420.477 185.474 405.998C171.634 394.109 157.621 382.418 143.934 370.356C127.224 355.63 110.556 340.842 94.2867 325.635C82.4316 314.554 70.7773 303.181 59.8858 291.166C45.0316 274.779 31.5974 257.241 21.1516 237.572C11.8372 220.034 4.63824 201.817 1.88044 182.024C1.80343 181.471 1.12837 181.002 0.366097 180.747C6.73532e-06 163.646 6.73532e-06 146.292 0.367263 128.721C1.14556 127.831 1.82834 127.195 1.92847 126.477C5.98031 97.4494 17.4059 71.4744 36.3934 49.3875C57.7405 24.5558 84.6623 7.82812 117.5 2.5C118.131 2.39765 120.002 2.09075 121 2.00003C137.5 0.5 150.5 -7.689e-06 165 1.50001C171 2.50001 174.967 4.57636 179.764 5.90473C206.343 13.265 227.864 28.3152 245.634 49.1044C249.09 53.1486 252.617 57.1327 256.262 61.3166C265.452 48.8734 275.592 38.0063 287.584 28.7907C304.564 15.7416 323.097 6.4195 344.37 2.9082C345.001 2.80401 353 2.14957 353.5 2C369 1.5 368.459 1.64957 384 2C385.5 2.03382 393.406 2.79021 393.961 2.87278C414.678 5.95999 433.371 14.0565 450.328 26.1207C464.426 36.1512 476.437 48.44 485.879 62.9195C498.49 82.2591 506.988 103.312 510.095 126.363C510.178 126.983 511.341 127.458 512 128C512 145.354 512 162.708 512 180.531ZM36.9161 113.334C30.1661 132.778 29.8399 152.732 31.9548 172.938C34.1441 193.854 42.059 212.705 52.9556 230.309C67.2037 253.327 84.8412 273.626 104.566 292.15C111.123 298.308 117.094 305.098 123.756 311.132C137.679 323.744 151.866 336.064 165.978 348.466C173.646 355.204 181.335 361.918 189.099 368.544C202.102 379.643 215.216 390.613 228.201 401.733C236.458 408.806 244.532 416.093 252.773 423.186C254.34 424.534 255.982 425.7 258.256 423.475C261.524 420.278 265.352 417.661 268.818 414.655C279.52 405.372 290.078 395.921 300.853 386.723C315.471 374.245 330.365 362.09 344.905 349.523C359.745 336.698 374.681 323.943 388.87 310.418C403.112 296.842 416.746 282.597 430.173 268.204C446.778 250.404 460.508 230.634 470.482 208.228C480.294 186.185 482.694 163.074 480.741 139.571C479.263 121.778 473.775 104.813 465.049 88.9911C454.37 69.6303 439.539 54.4301 420.067 44.0987C399.125 32.9874 376.772 29.5257 353.219 32.9185C330.362 36.2109 311.522 47.3426 295.722 63.2459C286.694 72.3334 279.586 83.4035 272.098 93.9258C264.279 104.913 247.393 105.07 239.967 93.704C231.427 80.6316 222.123 68.2587 210.382 57.7937C200.854 49.302 190.203 42.7 178.414 38.0598C161.475 31.3921 143.905 30.3423 125.968 32.9564C104.098 36.1439 85.2444 45.4738 69.1182 60.4124C53.5999 74.7878 43.2593 92.4124 36.9161 113.334Z" fill="black"/>
</svg>
