<svg width="512" height="558" viewBox="0 0 512 558" fill="none" xmlns="http://www.w3.org/2000/svg">
<g clip-path="url(#clip0_2026_71)">
<rect width="1" height="1" transform="translate(474 557)" fill="black"/>
<path d="M474.557 558.002C474.374 558.002 474.192 558.002 474.01 558.002C474.003 558.002 474.002 558.001 474.002 557.994C474.002 557.666 474.002 557.338 474.002 557.01C474.002 557.003 474.004 557.002 474.01 557.002C474.338 557.002 474.666 557.002 474.993 557.002C475 557.002 475.002 557.003 475.002 557.01C475.002 557.338 475.002 557.666 475.002 557.994C475.002 558.001 475 558.002 474.994 558.002C474.849 558.002 474.703 558.002 474.557 558.002Z" fill="black"/>
<path d="M474.588 557.93C474.587 557.939 474.59 557.947 474.585 557.955C474.58 557.963 474.573 557.961 474.567 557.961C474.562 557.96 474.559 557.955 474.558 557.949C474.558 557.909 474.56 557.868 474.57 557.829C474.581 557.787 474.606 557.757 474.642 557.736C474.667 557.721 474.691 557.704 474.713 557.685C474.742 557.66 474.767 557.632 474.787 557.599C474.803 557.572 474.814 557.542 474.82 557.511C474.825 557.49 474.825 557.468 474.824 557.446C474.821 557.408 474.808 557.373 474.783 557.342C474.742 557.293 474.687 557.269 474.627 557.254C474.591 557.245 474.555 557.241 474.518 557.239C474.498 557.239 474.479 557.24 474.46 557.241C474.429 557.242 474.397 557.248 474.367 557.256C474.331 557.266 474.296 557.28 474.265 557.302C474.22 557.333 474.191 557.374 474.182 557.428C474.175 557.472 474.18 557.516 474.197 557.558C474.216 557.606 474.246 557.645 474.283 557.679C474.311 557.704 474.343 557.723 474.374 557.744C474.41 557.768 474.43 557.803 474.438 557.846C474.443 557.879 474.446 557.912 474.445 557.946C474.445 557.957 474.442 557.961 474.432 557.961C474.421 557.961 474.416 557.957 474.416 557.946C474.416 557.935 474.417 557.925 474.416 557.914C474.413 557.886 474.412 557.856 474.403 557.828C474.392 557.799 474.373 557.777 474.347 557.761C474.318 557.744 474.291 557.725 474.266 557.703C474.231 557.673 474.203 557.638 474.182 557.598C474.168 557.572 474.159 557.544 474.154 557.515C474.15 557.492 474.15 557.47 474.15 557.448C474.151 557.414 474.161 557.383 474.177 557.354C474.179 557.349 474.18 557.346 474.177 557.343C474.163 557.32 474.155 557.294 474.152 557.267C474.148 557.237 474.154 557.207 474.159 557.178C474.162 557.161 474.164 557.145 474.166 557.128C474.169 557.105 474.167 557.082 474.168 557.059C474.168 557.047 474.176 557.04 474.188 557.043C474.194 557.044 474.197 557.048 474.197 557.055C474.197 557.076 474.199 557.097 474.197 557.117C474.195 557.146 474.191 557.174 474.184 557.202C474.176 557.24 474.178 557.278 474.195 557.315C474.198 557.319 474.199 557.321 474.204 557.317C474.221 557.305 474.223 557.291 474.217 557.272C474.208 557.247 474.214 557.221 474.219 557.196C474.224 557.174 474.227 557.153 474.229 557.131C474.231 557.107 474.23 557.083 474.23 557.059C474.231 557.046 474.241 557.039 474.252 557.043C474.257 557.045 474.26 557.049 474.26 557.055C474.26 557.076 474.261 557.098 474.259 557.119C474.257 557.152 474.253 557.186 474.245 557.219C474.241 557.237 474.242 557.254 474.246 557.272C474.247 557.276 474.249 557.277 474.253 557.274C474.299 557.245 474.35 557.229 474.403 557.218C474.45 557.209 474.498 557.209 474.546 557.212C474.609 557.216 474.67 557.23 474.726 557.26C474.734 557.264 474.741 557.268 474.749 557.273C474.754 557.276 474.756 557.278 474.758 557.269C474.763 557.249 474.761 557.229 474.757 557.209C474.752 557.183 474.748 557.158 474.746 557.132C474.743 557.107 474.745 557.083 474.744 557.058C474.744 557.047 474.747 557.043 474.757 557.043C474.768 557.043 474.773 557.047 474.773 557.058C474.774 557.072 474.773 557.085 474.773 557.098C474.774 557.134 474.779 557.169 474.786 557.204C474.793 557.233 474.793 557.261 474.783 557.289C474.781 557.295 474.781 557.299 474.786 557.303C474.79 557.307 474.795 557.311 474.799 557.316C474.804 557.322 474.806 557.32 474.809 557.314C474.821 557.285 474.827 557.257 474.823 557.226C474.819 557.197 474.812 557.169 474.809 557.14C474.806 557.111 474.806 557.082 474.807 557.053C474.807 557.045 474.813 557.043 474.82 557.043C474.83 557.043 474.835 557.047 474.836 557.057C474.836 557.07 474.836 557.082 474.836 557.095C474.836 557.13 474.842 557.163 474.848 557.197C474.858 557.248 474.855 557.297 474.827 557.342C474.825 557.346 474.824 557.349 474.827 557.354C474.84 557.377 474.848 557.402 474.852 557.428C474.858 557.478 474.852 557.526 474.834 557.572C474.822 557.601 474.806 557.628 474.786 557.652C474.755 557.693 474.715 557.724 474.673 557.752C474.659 557.761 474.644 557.769 474.632 557.781C474.61 557.802 474.598 557.827 474.594 557.857C474.591 557.88 474.587 557.904 474.588 557.93Z" fill="black"/>
<path d="M474.351 557.302C474.37 557.293 474.389 557.289 474.408 557.285C474.449 557.277 474.491 557.275 474.533 557.278C474.581 557.28 474.629 557.29 474.674 557.309C474.703 557.321 474.729 557.337 474.75 557.36C474.769 557.381 474.781 557.406 474.785 557.435C474.792 557.484 474.782 557.531 474.759 557.574C474.749 557.593 474.736 557.61 474.721 557.626C474.693 557.657 474.659 557.681 474.624 557.704C474.585 557.73 474.56 557.767 474.553 557.814C474.55 557.832 474.548 557.849 474.547 557.867C474.545 557.894 474.543 557.921 474.543 557.948C474.543 557.957 474.538 557.961 474.529 557.961C474.518 557.961 474.514 557.957 474.514 557.947C474.513 557.912 474.516 557.877 474.519 557.843C474.521 557.82 474.524 557.798 474.531 557.777C474.541 557.749 474.557 557.724 474.578 557.703C474.595 557.686 474.616 557.674 474.636 557.661C474.679 557.631 474.715 557.595 474.739 557.548C474.744 557.538 474.747 557.527 474.751 557.517C474.753 557.511 474.75 557.509 474.746 557.508C474.728 557.502 474.71 557.498 474.692 557.496C474.662 557.491 474.634 557.496 474.607 557.507C474.588 557.514 474.571 557.524 474.551 557.529C474.512 557.54 474.474 557.539 474.436 557.524C474.413 557.514 474.391 557.502 474.366 557.497C474.344 557.493 474.323 557.494 474.301 557.497C474.286 557.499 474.272 557.503 474.258 557.508C474.255 557.509 474.251 557.51 474.253 557.515C474.262 557.546 474.278 557.573 474.298 557.598C474.326 557.633 474.363 557.657 474.4 557.682C474.445 557.712 474.472 557.755 474.481 557.809C474.485 557.839 474.487 557.87 474.489 557.9C474.49 557.915 474.49 557.931 474.49 557.946C474.49 557.957 474.486 557.961 474.475 557.961C474.465 557.961 474.461 557.957 474.461 557.946C474.462 557.924 474.46 557.901 474.459 557.879C474.457 557.85 474.456 557.821 474.447 557.794C474.436 557.759 474.417 557.73 474.387 557.709C474.364 557.693 474.34 557.679 474.319 557.661C474.272 557.621 474.235 557.574 474.221 557.512C474.214 557.48 474.213 557.446 474.223 557.414C474.232 557.384 474.25 557.361 474.275 557.341C474.292 557.328 474.31 557.317 474.331 557.309C474.339 557.309 474.345 557.305 474.351 557.302Z" fill="black"/>
<path d="M474.487 557.645C474.487 557.638 474.484 557.631 474.489 557.626C474.496 557.617 474.506 557.617 474.514 557.624C474.52 557.631 474.52 557.644 474.513 557.65C474.506 557.655 474.493 557.653 474.487 557.645Z" fill="black"/>
<path d="M474.626 557.569C474.633 557.584 474.63 557.592 474.617 557.596C474.61 557.598 474.604 557.595 474.6 557.591C474.595 557.584 474.594 557.576 474.6 557.57C474.604 557.565 474.61 557.562 474.617 557.564C474.62 557.565 474.623 557.566 474.626 557.569Z" fill="black"/>
<path d="M474.406 557.573C474.409 557.585 474.405 557.593 474.394 557.596C474.385 557.598 474.378 557.594 474.375 557.583C474.373 557.575 474.375 557.569 474.383 557.565C474.392 557.561 474.4 557.564 474.406 557.573Z" fill="black"/>
<path d="M474.351 557.301C474.347 557.307 474.341 557.311 474.333 557.309C474.337 557.304 474.344 557.304 474.351 557.301Z" fill="black"/>
<path d="M474.371 557.469C474.352 557.465 474.333 557.464 474.314 557.466C474.291 557.468 474.269 557.472 474.247 557.481C474.241 557.428 474.26 557.387 474.303 557.357C474.337 557.333 474.376 557.322 474.416 557.314C474.44 557.31 474.464 557.307 474.489 557.306C474.522 557.306 474.554 557.308 474.587 557.314C474.619 557.32 474.65 557.329 474.679 557.344C474.716 557.363 474.745 557.391 474.755 557.433C474.759 557.449 474.757 557.464 474.758 557.48C474.744 557.477 474.732 557.472 474.719 557.47C474.674 557.461 474.631 557.463 474.588 557.482C474.57 557.491 474.551 557.5 474.531 557.504C474.502 557.511 474.474 557.507 474.447 557.496C474.425 557.487 474.403 557.475 474.379 557.47C474.377 557.469 474.374 557.469 474.371 557.469Z" fill="black"/>
</g>
<g clip-path="url(#clip1_2026_71)">
<path d="M513 367.531C511.464 370.734 509.822 373.415 508.41 376.212C503.52 385.894 498.84 395.684 493.811 405.292C491.471 409.761 486.475 411.167 482.374 409.109C478.145 406.988 476.709 403.418 479.15 398.238C483.637 388.713 489.149 379.654 493.344 370.014C499.095 356.8 499.547 343.485 490.655 331.155C485.559 324.091 478.317 320.644 469.709 320.01C463.29 319.537 456.757 319.735 450.467 318.585C440.724 316.803 434.473 310.235 429.871 301.708C424.701 292.128 416.159 287.964 407.403 290.268C398.221 292.684 391.235 301.983 390.983 311.905C390.759 320.761 393.424 328.329 399.983 334.532C409.92 343.93 415.927 355.918 420.589 368.437C426.956 385.534 430.552 403.331 433.191 421.433C436.152 441.735 435.928 462.057 436.013 482.424C436.017 483.396 436.145 484.367 436.239 485.66C445.009 485.66 453.593 485.66 462.311 485.66C462.477 485.32 462.852 484.898 462.87 484.462C463.27 474.359 463.353 464.233 464.093 454.156C464.632 446.814 465.675 439.461 467.17 432.254C468.135 427.6 472.661 425.782 477.386 427.205C480.95 428.278 482.819 432.391 482.286 436.579C481.331 444.089 480.452 451.63 480.068 459.184C479.477 470.78 479.364 482.4 478.982 494.008C478.81 499.244 476.273 501.766 469.746 501.898C456.255 502.171 442.746 502.255 429.26 501.88C420.879 501.646 419.1 497.558 419.657 489.101C420.509 476.16 420.964 463.033 419.758 450.156C418.048 431.899 414.688 413.795 411.982 395.634C411.818 394.528 411.207 393.488 410.667 392.056C405.957 398.548 401.685 404.928 396.914 410.91C386.803 423.585 374.726 433.918 358.247 436.624C343.886 438.983 330.715 434.726 318.338 427.011C304.907 418.639 295.197 406.449 284.085 395.673C280.435 392.133 276.497 388.791 272.3 385.931C262.674 379.371 252.078 378.565 242.769 385.382C233.77 391.973 225.793 400.097 217.992 408.153C204.577 422.005 189.921 433.915 170.301 436.784C154.019 439.164 139.314 433.823 127.918 422.095C119.478 413.409 112.538 403.266 104.922 393.777C104.525 393.282 104.062 392.839 102.862 391.543C101.134 399.624 99.388 406.884 98.048 414.218C93.7694 437.634 93.6568 461.305 94.0087 484.995C94.0308 486.485 93.9799 488.014 94.2875 489.456C95.8316 496.695 93.6769 501.3 86.3352 501.555C71.108 502.085 55.8332 501.336 40.5805 500.997C36.2576 500.901 35.1743 497.628 35.0439 494.128C34.6056 482.361 34.5187 470.579 33.9325 458.821C33.5639 451.426 32.699 444.044 31.7568 436.694C31.1715 432.129 33.1673 428.01 37.0134 427.083C41.8965 425.906 45.9109 427.796 46.8962 432.679C48.3221 439.747 49.5327 446.941 49.8738 454.126C50.3671 464.516 50.0001 474.947 50.0001 485.668C60.025 485.668 68.6087 485.668 77.5804 485.668C77.7145 484.472 77.9534 483.212 77.9827 481.947C78.3403 466.507 77.7862 450.987 79.1902 435.645C81.8942 406.097 87.066 376.964 101.914 350.644C105.346 344.56 109.978 338.997 114.79 333.882C124.421 323.643 126.138 308.521 117.594 297.395C110.269 287.856 92.8488 285.286 85.0854 300.249C77.5343 314.802 65.7385 320.631 50.0159 319.982C41.3064 319.622 33.5531 321.372 26.7347 327.472C20.981 332.62 17.9223 338.923 17.1435 346.153C16.0506 356.298 17.5913 366.049 22.907 375.191C27.4415 382.99 31.0876 391.304 35.1306 399.389C37.138 403.403 35.7043 406.582 32.317 408.778C28.9041 410.99 25.3548 410.527 22.3133 407.75C21.3628 406.882 20.5017 405.791 19.9463 404.635C14.19 392.657 8.50948 380.642 2.77842 368.652C2.58229 368.241 2.07679 367.979 1.35775 367.824C1.00002 357.979 1.00002 347.958 1.35795 337.642C2.47425 335.764 3.05575 334.064 4.02189 332.621C7.9911 326.694 11.2653 320.003 16.2952 315.147C25.7865 305.984 37.9362 303.236 51.0167 303.9C54.6164 304.082 58.2777 303.052 62.3946 302.515C60.6409 297.573 59.2474 293.748 57.9237 289.899C44.6999 251.447 33.9957 212.292 24.9355 172.663C20.9819 155.37 19.1753 138.027 22.0232 120.412C24.0798 107.69 28.7818 96.0058 37.3229 86.262C53.9123 67.3363 75.4795 61.5613 99.4604 65.2273C124.657 69.0791 144.149 83.4026 161.248 101.673C172.188 113.363 183.663 124.581 195.355 135.522C199.622 139.515 205.211 142.094 211 145.838C211 142.415 211 140.424 211 138.433C211 101.941 211.21 65.4481 210.882 28.9598C210.772 16.7595 216.549 12.3066 227.64 12.1074C247.296 11.7544 266.965 11.8125 286.623 12.0864C297.537 12.2386 303.271 17.8187 303.151 28.8933C302.752 65.5469 303 102.208 303 138.865C303 140.786 303 142.706 303 145.29C315.89 139.292 325.47 130.269 334.859 121.177C346.271 110.126 356.558 97.8544 368.427 87.3478C387.259 70.6767 409.413 62.4107 435.02 64.967C456.833 67.1445 473.142 77.8954 483.837 96.7395C495.103 116.591 495.531 138.568 491.574 159.926C484.409 198.599 473.453 236.427 461.489 273.911C458.52 283.214 455.204 292.405 451.544 303.121C457.695 303.443 463.006 303.956 468.317 303.957C486.643 303.963 504.497 315.516 510.462 333.801C510.858 335.014 512.134 335.94 513 337C513 347.021 513 357.042 513 367.531ZM149.488 198.939C147.291 194.161 144.781 189.5 142.957 184.584C137.029 168.61 136.481 152.636 145.044 137.406C148.219 131.76 152.815 126.912 157.195 121.13C150.011 114.127 143.001 106.625 135.294 99.9225C119.307 86.0187 101.031 78.2559 79.3086 80.9995C66.4061 82.6291 55.8283 88.5715 48.0966 98.9176C36.3137 114.685 34.5079 133.094 37.3422 151.578C40.0386 169.162 44.6512 186.494 49.1342 203.752C54.4034 224.037 60.3165 244.159 66.2088 264.275C68.4313 271.863 71.3764 279.239 73.6896 285.847C78.9722 282.374 83.4765 278.326 88.7531 276.152C103.227 270.188 121.933 275.649 131.418 288.742C141.263 302.332 141.565 326.151 131.205 339.298C126.428 345.36 121.69 351.454 116.838 357.455C110.772 364.959 109.551 371.938 115.647 380.735C122.987 391.325 129.676 402.328 139.471 410.865C146.119 416.66 153.541 421.002 162.88 421.042C176.129 421.098 186.614 414.784 195.907 406.414C204.506 398.669 212.425 390.164 220.563 381.913C228.468 373.898 237.843 368.451 248.573 365.454C248.573 353.992 248.573 342.608 248.573 332.433C235.621 329.5 223.092 327.496 211.093 323.778C182.672 314.973 159.438 299.444 147.352 270.763C142.443 259.114 140.25 247.079 143.361 234.641C145.638 225.54 151.305 218.546 159.099 213.433C155.892 208.522 152.941 204.004 149.488 198.939ZM451.004 253.452C458.008 227.201 464.989 200.945 472.024 174.702C476.654 157.43 479.3 139.936 475.918 122.172C469.867 90.3962 444.058 76.0098 415.606 81.341C390.136 86.1133 372.555 102.791 356.929 122.218C357.61 122.979 358.125 123.625 358.711 124.199C376.945 142.063 379.49 163.135 370.349 185.914C366.482 195.551 360.737 204.434 356.012 213.345C359.398 217.205 363.908 221.071 366.796 225.905C372.916 236.147 373.36 247.517 370.498 258.867C366.029 276.592 356.891 291.389 342.556 303.072C327.561 315.294 310.383 322.622 291.801 326.949C283.078 328.98 274.181 330.262 265.22 331.91C265.22 343.057 265.22 354.339 265.22 365.648C277.687 368.632 287.4 375.614 296.114 384.502C304.892 393.456 313.419 402.889 323.318 410.461C341.84 424.628 359.623 426.038 377.95 407.647C388.08 397.482 395.435 385.476 402.308 373.098C403.128 371.619 403.494 369.008 402.737 367.683C398.919 361 395.535 353.742 390.346 348.245C382.744 340.193 376.853 331.637 375.368 320.619C373.458 306.448 376.588 293.379 387.23 283.464C401.21 270.439 425.476 269.21 439.915 287.059C443.658 275.874 447.274 265.065 451.004 253.452ZM277.225 313.975C285.116 311.974 293.007 309.973 300.168 308.157C301.157 295.215 301.778 283.162 303.063 271.179C305.161 251.604 313.611 234.861 326.383 219.999C334.95 210.029 343.896 200.175 350.958 189.168C362.902 170.551 363.286 148.683 344.978 133.891C321.214 158.798 292.038 171.929 257.285 172.005C222.311 172.081 192.981 158.878 167.953 132.927C163.965 138.994 159.457 143.894 157.197 149.673C151.342 164.647 155.632 178.874 164.165 191.292C172.249 203.058 182.089 213.62 191.197 224.678C204.66 241.023 210.977 259.99 212.009 280.932C212.44 289.696 212.965 298.454 213.47 307.633C225.111 311.739 237.251 315.022 250.021 314.946C258.793 314.894 267.563 314.33 277.225 313.975ZM227.001 45.4952C227.001 50.2447 227.001 54.9942 227.001 59.6809C247.395 59.6809 266.961 59.6809 286.587 59.6809C286.587 48.9984 286.587 38.6383 286.587 28.3194C266.606 28.3194 247.039 28.3194 227.001 28.3194C227.001 33.9178 227.001 39.2079 227.001 45.4952ZM273.488 76.0002C258.09 76.0002 242.692 76.0002 227.324 76.0002C227.324 87.0551 227.324 97.2976 227.324 107.595C247.334 107.595 267.018 107.595 286.676 107.595C286.676 96.9441 286.676 86.7016 286.676 76.0002C282.404 76.0002 278.444 76.0002 273.488 76.0002ZM246.273 155.045C255.79 154.898 265.323 155.021 274.818 154.48C278.912 154.247 282.928 152.64 286.62 151.745C286.62 142.133 286.62 133.235 286.62 124.44C266.567 124.44 246.897 124.44 227.144 124.44C227.144 133.673 227.144 142.465 227.144 152.237C233.197 153.159 239.275 154.085 246.273 155.045ZM180.908 237.66C178.209 234.544 175.453 231.474 172.831 228.294C171.305 226.444 169.941 226.421 167.822 227.543C160.413 231.468 156.255 242.208 158.265 251.669C160.78 263.5 166.022 273.991 173.771 283.08C179.961 290.341 187.661 295.896 197.549 300.646C196.626 289.988 196.429 280.401 194.826 271.056C192.797 259.226 189.054 247.834 180.908 237.66ZM318.434 275.085C317.841 283.234 317.249 291.384 316.656 299.534C317.24 299.934 317.825 300.333 318.409 300.733C325.267 295.322 332.836 290.59 338.813 284.336C347.386 275.367 353.209 264.506 355.529 252.026C357.36 242.175 354.542 230.11 343.212 226.341C329.389 239.369 320.951 255.201 318.434 275.085Z" fill="black"/>
<path d="M141 358.017C141.132 342.474 150.954 331.445 166.45 331.95C174.352 332.208 182.138 331.994 189.853 334.791C206.447 340.807 210.976 354.174 200.722 368.581C195.962 375.268 190.62 381.578 186.308 388.535C179.374 399.721 163.06 398.966 155.367 391.031C146.452 381.837 141.655 371.152 141 358.017ZM180.005 369.479C182.697 365.553 185.433 361.657 188.069 357.694C190.589 353.905 190.139 351.79 185.789 350.481C180.646 348.933 175.313 347.509 169.991 347.184C161.456 346.662 156.448 351.371 157.077 358.852C157.758 366.964 160.915 374.113 167.143 379.636C169.412 381.649 171.317 381.812 173.143 378.777C174.999 375.693 177.359 372.913 180.005 369.479Z" fill="black"/>
<path d="M312.719 341.779C318.548 335.411 326.18 333.183 333.753 332.442C341.363 331.696 349.363 332.095 356.852 333.64C367.373 335.81 372.386 346.003 372.865 354.86C373.678 369.874 368.216 382.721 356.798 392.584C348.719 399.563 334.368 398.897 327.76 388.596C322.807 380.876 316.946 373.746 311.765 366.164C306.209 358.033 306.636 348.477 312.719 341.779ZM353.121 371.505C354.408 367.647 356.14 363.872 356.876 359.912C357.919 354.299 355.37 349.612 350.819 348.388C342.402 346.124 334.29 347.951 326.534 351.311C323.836 352.48 323.408 354.47 325.503 357.291C330.68 364.265 335.383 371.589 340.37 378.706C342.397 381.6 344.851 382.04 347.316 379.151C349.243 376.893 351.062 374.542 353.121 371.505Z" fill="black"/>
<circle cx="428.5" cy="387.5" r="55.5" fill="#FF0000"/>
</g>
<defs>
<clipPath id="clip0_2026_71">
<rect width="1" height="1" fill="white" transform="translate(474 557)"/>
</clipPath>
<clipPath id="clip1_2026_71">
<rect width="512" height="512" fill="white"/>
</clipPath>
</defs>
</svg>
