<svg width="472" height="266" viewBox="0 0 472 266" fill="none" xmlns="http://www.w3.org/2000/svg">
<path d="M431.724 173.654C424.316 182.499 417.67 191.606 409.76 199.435C400.66 208.442 390.816 216.808 380.63 224.581C361.291 239.339 340.132 250.981 316.429 257.066C304.466 260.137 292.203 262.408 279.935 263.804C268.777 265.073 257.43 264.813 246.162 264.962C233.467 265.129 220.766 265.166 208.072 264.967C176.487 264.474 146.456 257.534 118.685 242.2C100.696 232.267 84.3517 220.078 69.2846 205.977C47.7129 185.789 30.243 162.586 17.8009 135.973C10.9494 121.318 6.35174 105.576 1.24048 90.1572C-0.917731 83.6468 0.906394 80.477 7.23048 76.9794C22.0964 68.7575 36.9981 60.5982 51.9609 52.5541C68.2271 43.8093 84.3381 34.7254 100.955 26.6954C121.345 16.8418 142.333 8.10735 164.572 3.42049C177.258 0.746878 190.272 -0.0164571 203.403 1.81462C215.436 3.49252 227.628 4.67916 239.761 4.78008C249.378 4.86008 258.99 2.61118 268.642 2.06004C277.313 1.56493 286.036 1.91265 294.735 1.99837C306.681 2.11609 317.915 5.67417 329.022 9.54803C355.746 18.8689 381.361 30.5937 405.83 44.8856C417.812 51.8848 430.211 58.1716 442.418 64.7891C449.884 68.837 457.385 72.824 464.79 76.9809C471.15 80.5507 472.38 83.7212 470.697 90.6829C463.797 119.229 451.32 145.233 434.862 169.425C433.943 170.774 432.909 172.045 431.724 173.654ZM232.532 20.0003C226.938 19.6261 221.195 19.9361 215.778 18.7527C197.603 14.7821 179.355 14.2838 161.722 19.9295C143.162 25.8719 124.798 32.7663 107.04 40.7781C89.943 48.492 73.7078 58.1245 57.1354 66.9918C44.8905 73.5436 32.7187 80.2321 20.4986 86.8304C18.4094 87.9585 16.2708 88.8502 17.4779 91.9814C22.2736 104.421 26.1567 117.293 31.9149 129.265C44.4551 155.338 61.3481 178.275 83.0305 197.777C96.5305 209.919 110.949 220.579 126.782 229.234C152.086 243.067 179.448 249.464 208.199 249.965C220.39 250.177 232.594 250.257 244.779 249.932C258.65 249.561 272.537 249.035 286.364 247.915C304.264 246.465 321.123 240.858 337.291 233.253C358.233 223.403 376.958 210.074 393.261 193.852C404.155 183.013 413.889 170.832 423.001 158.415C437.494 138.664 447.348 116.501 454.203 92.9583C455.225 89.4461 454.255 88.2167 451.554 86.8402C446.603 84.3171 441.766 81.571 436.849 78.9797C411.278 65.5036 385.857 51.7297 360.064 38.6937C342.461 29.7973 324.123 22.2473 304.671 18.5673C294.069 16.5614 283.013 15.9649 272.206 16.28C259.286 16.6566 246.415 18.6865 232.532 20.0003Z" fill="black"/>
<path d="M378.911 74.0072C392.94 77.3442 406.557 80.5772 420.112 84.0514C425.454 85.4204 430.762 87.0595 435.895 89.0641C441.126 91.1073 442.771 95.3105 439.876 100.119C433.486 110.733 427.162 121.459 419.814 131.402C413.275 140.25 405.892 148.616 398.01 156.3C375.686 178.063 349.465 192.873 318.881 200.14C297.551 205.208 276.024 205.202 254.405 204.957C243.969 204.839 233.536 204.056 223.103 204.074C211.002 204.096 198.88 205.281 186.806 204.865C165.243 204.124 144.287 199.507 124.612 190.705C102.368 180.754 82.5695 166.916 66.2545 148.643C53.2694 134.1 41.4197 118.655 32.5942 101.122C29.3793 94.7354 30.6133 90.3977 37.2996 88.4437C52.5995 83.9725 67.9777 79.6725 83.5136 76.1353C96.5424 73.1689 109.806 71.1609 123.031 69.1559C130.659 67.9993 138.404 67.3214 146.117 67.0746C163.876 66.5066 181.649 66.0173 199.414 66.1134C210.951 66.1758 222.48 67.7941 234.017 67.85C244.557 67.9011 255.102 66.7857 265.645 66.1913C267.135 66.1073 268.627 66.0099 270.118 66.0082C283.117 65.994 296.166 65.2738 309.102 66.1733C327.745 67.4696 346.309 69.9066 364.897 71.9491C369.444 72.4486 373.95 73.3066 378.911 74.0072ZM370.325 159.933C379.272 151.996 388.22 144.06 397.637 135.707C392.462 134.583 388.532 134.089 384.861 132.836C380.713 131.421 377.036 131.421 372.624 132.454C363.277 134.643 353.625 136.73 344.112 136.668C334.619 136.606 325.158 133.769 315.651 132.364C312.55 131.906 309.092 131.291 306.234 132.169C284.077 138.968 262.048 139.058 239.906 132.153C237.469 131.393 234.371 131.392 231.944 132.172C212.508 138.423 192.996 138.592 173.156 134.232C167.873 133.07 163.112 130.258 156.685 132.343C140.274 137.667 123.314 138.575 106.344 134.15C101.948 133.004 97.4033 130.981 93.0861 131.33C87.1618 131.808 81.3892 134.165 75.4504 135.743C92.0379 153.928 111.013 168.528 133.731 177.94C151.566 185.328 170.181 189.55 189.442 189.894C213.955 190.332 238.483 190.014 263.005 189.995C277.689 189.983 292.282 189.98 306.895 187.188C329.933 182.786 350.824 174.017 370.325 159.933ZM224.96 118.539C226.302 117.391 228.777 116.273 228.809 115.089C229.109 104.184 228.986 93.2684 228.986 81.6831C208.75 81.6831 189.112 81.6831 169.007 81.6831C169.007 92.6005 168.927 103.699 169.132 114.792C169.152 115.892 170.755 117.671 171.893 117.924C178.864 119.477 185.863 121.201 192.947 121.878C203.479 122.884 213.95 121.645 224.96 118.539ZM271.611 81C262.229 81.48 252.847 81.96 243.008 82.4634C243.008 93.2879 242.924 104.075 243.136 114.856C243.157 115.938 244.778 117.581 245.974 117.959C264.009 123.66 282.106 123.767 300.146 117.962C301.265 117.602 302.841 116.191 302.857 115.246C303.045 103.974 302.978 92.6981 302.978 81C292.501 81 282.544 81 271.611 81ZM101.289 116.715C101.806 117.113 102.264 117.708 102.847 117.881C119.855 122.923 136.825 123.159 153.635 117.636C153.635 105.656 153.635 93.9408 153.635 81.1582C135.845 83.3279 118.542 85.4382 101.05 87.5715C101.05 97.6096 101.05 106.735 101.289 116.715ZM318.001 108.447C318.001 111.429 318.001 114.412 318.001 118.138C326.857 119.44 335.525 121.712 344.19 121.701C352.401 121.692 360.622 119.364 368.797 117.834C369.668 117.671 370.874 116.04 370.892 115.072C371.053 106.115 370.987 97.154 370.987 87.523C353.221 85.3934 335.889 83.3158 318.001 81.1716C318.001 90.8668 318.001 99.165 318.001 108.447ZM60.5773 117.06C62.0683 120.748 65.0175 121.594 68.5608 120.98C74.3976 119.97 80.2133 118.838 85.7472 117.811C85.7472 108.448 85.7472 99.866 85.7472 90.8385C73.5824 93.993 61.7642 97.0575 49.4147 100.26C53.2959 106.21 56.6621 111.371 60.5773 117.06ZM405.712 95.9082C399.292 94.2802 392.872 92.6521 386.199 90.96C386.199 100.067 386.199 108.817 386.199 118.025C392.555 119.029 398.768 120.275 405.042 120.829C406.751 120.98 409.215 119.486 410.353 117.998C414.568 112.485 418.373 106.659 422.643 100.503C416.779 98.8577 411.662 97.422 405.712 95.9082Z" fill="black"/>
</svg>
