<svg width="472" height="481" viewBox="0 0 472 481" fill="none" xmlns="http://www.w3.org/2000/svg">
<path d="M37.3608 378.294C67.2874 369.781 96.0817 359.518 123.829 346.161C150.721 333.216 177.631 320.016 206.514 311.978C223.748 307.183 241.4 303.879 258.892 300.029C263.199 299.082 267.723 299.001 271.934 297.787C274.14 297.151 276.857 295.328 277.688 293.347C284.813 276.364 291.702 259.277 298.386 242.114C308.03 217.348 316.147 192.101 322.036 166.143C327.763 140.899 332.778 115.471 341.881 91.0935C349.014 71.9907 358.476 54.3913 373.369 40.1924C388.573 25.6972 406.8 16.6612 427.38 13.1939C439.501 11.1519 451.938 10.9793 464.236 10.0137C468.153 9.70611 470.577 11.4946 470.976 15.4958C471.512 20.888 469.856 23.4782 465.242 23.9601C457.392 24.78 449.489 25.1137 441.654 26.0403C419.851 28.6187 400.148 35.8546 383.94 51.4598C367.319 67.4629 357.744 87.2894 352.022 109.116C344.674 137.145 338.628 165.528 330.764 193.403C324.934 214.067 317.552 234.334 310.019 254.463C303.683 271.392 295.983 287.806 289.211 304.58C287.176 309.621 283.56 311.366 278.756 311.997C245.641 316.352 213.235 323.711 182.305 336.464C165.862 343.244 149.916 351.232 133.763 358.713C107.706 370.782 81.1706 381.588 53.4413 389.252C40.1075 392.938 26.7686 396.605 13.4143 400.215C11.6962 400.68 9.87597 400.792 8.09445 400.99C4.47017 401.394 1.72872 399.91 1.12045 396.32C0.435053 392.275 0.698311 388.311 5.90833 386.936C16.2918 384.195 26.6394 381.318 37.3608 378.294Z" fill="black"/>
<path d="M403.289 343.307C392.37 360.594 381.557 377.508 370.985 394.571C362.612 408.085 350.073 415.234 335.215 419.426C309.201 426.767 283.425 435.007 257.25 441.704C235.32 447.315 213.042 451.677 190.776 455.829C169.737 459.752 148.532 462.805 127.365 466.006C110.702 468.525 94.0062 470.859 77.285 472.958C61.9831 474.878 46.6343 476.434 31.2933 478.028C23.6037 478.827 15.8811 479.303 8.18191 480.018C3.66504 480.437 1.07046 478.085 0.707695 474.013C0.362236 470.134 1.60533 466.572 6.4638 465.975C11.4912 465.356 16.5009 464.586 21.5339 464.021C39.6331 461.988 57.7674 460.238 75.8343 457.954C94.6627 455.573 113.488 453.057 132.208 449.957C162.794 444.893 193.451 440.064 223.78 433.711C249.391 428.346 274.65 421.225 299.924 414.361C312.946 410.825 325.602 405.959 338.536 402.071C346.505 399.676 352.633 394.731 356.822 388.124C371.496 364.98 386.109 341.77 399.793 318.035C410.168 300.04 419.687 281.487 428.506 262.675C438.33 241.716 447.004 220.214 456.021 198.883C458.975 191.895 465.643 189.743 469.486 195.299C470.96 197.43 471.194 201.485 470.263 204.029C466.18 215.181 461.906 226.307 456.887 237.062C445.542 261.374 433.929 285.566 421.994 309.593C416.338 320.981 409.696 331.879 403.289 343.307Z" fill="black"/>
<path d="M348.29 365.315C343.022 381.611 329.965 387.271 315.392 391.002C313.351 391.524 311.375 392.306 309.333 392.824C304.936 393.939 299.83 391.305 299.023 387.586C298.004 382.892 300.551 379.374 305.676 377.936C311.147 376.4 316.868 375.256 321.88 372.742C325.731 370.811 329.387 367.518 331.801 363.935C334.949 359.263 336.743 353.686 339.2 348.536C340.896 344.983 343.246 341.839 347.617 342.12C351.801 342.389 354.875 344.93 354.79 349.26C354.735 352.024 353.199 354.805 352.102 357.487C351.053 360.053 349.713 362.5 348.29 365.315Z" fill="black"/>
<path d="M430 37.5C430 58.2107 413.211 75 392.5 75C371.789 75 355 58.2107 355 37.5C355 16.7893 371.789 0 392.5 0C413.211 0 430 16.7893 430 37.5Z" fill="#FE0000"/>
</svg>
