<svg width="432" height="386" viewBox="0 0 432 386" fill="none" xmlns="http://www.w3.org/2000/svg">
<path d="M109.186 385C101.45 384.992 99.4395 381.216 100.983 371.963C102.591 362.326 103.636 352.596 105.015 342.919C106.23 334.388 108.251 325.909 108.687 317.345C109.356 304.207 110.451 290.816 108.711 277.89C105.494 253.98 100.343 230.331 96.0268 206.568C95.289 202.506 94.698 198.418 93.963 193.87C86.9225 201.491 80.381 208.633 73.7725 215.712C63.5049 226.711 53.2295 237.703 42.8766 248.621C39.4479 252.237 34.6884 252.141 31.8823 248.332C22.0726 235.015 12.5387 221.492 2.5751 208.293C-0.366464 204.396 -0.149134 201.354 1.87466 197.182C11.8193 176.68 21.3752 155.99 31.1917 135.425C37.172 122.897 42.775 110.132 49.6386 98.0963C57.359 84.5578 69.8339 76.4951 84.3045 70.8996C102.937 63.6948 121.26 55.6899 139.723 48.0461C142.995 46.6912 146.214 45.1043 149.607 44.1621C161.365 40.8974 165.742 32.3191 167.06 21.1331C167.703 15.6831 169.037 10.3173 169.957 4.89623C170.479 1.81743 172.339 0.965855 175.22 0.971066C202.381 1.0202 229.544 1.06315 256.705 0.948102C262.269 0.924543 262.336 4.91768 262.968 8.53941C264.114 15.0993 264.805 21.7483 266.177 28.2565C267.872 36.2969 273.631 40.9743 280.848 43.9336C302.456 52.7937 324.064 61.6594 345.774 70.2628C356.452 74.4942 366.537 79.303 374.593 87.9264C380.932 94.7116 385.411 102.495 389.31 110.747C394.209 121.118 399.102 131.492 403.981 141.873C412.707 160.439 421.183 179.128 430.286 197.507C432.93 202.848 431.121 206.353 428.239 210.267C419.106 222.675 409.979 235.089 400.896 247.534C397.613 252.032 392.837 252.493 388.864 248.329C377.328 236.237 365.844 224.096 354.411 211.908C349.023 206.164 343.798 200.268 338.101 194.003C335.68 206.397 333.33 218.377 331.003 230.362C328.412 243.716 324.91 256.979 323.53 270.459C322.196 283.491 322.656 296.761 323.092 309.901C323.401 319.184 324.86 328.44 326.037 337.678C327.086 345.903 328.603 354.069 329.627 362.297C330.337 367.995 330.663 373.749 330.96 379.489C331.145 383.041 329.131 384.846 325.624 384.991C324.459 385.039 323.291 385 322.125 385C251.303 385 180.482 385 109.186 385ZM278.707 55.959C277.232 55.3025 275.777 54.5945 274.278 53.9977C263.828 49.8365 256.303 43.3439 254.9 31.3009C254.156 24.9087 252.613 18.6095 251.433 12.2832C227.668 12.2832 203.912 12.2832 180.379 12.2832C179.551 17.4102 178.735 22.2201 178.004 27.0429C176.207 38.8915 171.692 48.5582 159.44 53.2329C139.277 60.9261 119.278 69.0482 99.2238 77.0253C87.0684 81.8604 75.7043 87.8656 66.1773 97.1824C57.5082 105.66 53.3473 116.559 48.3777 127.128C36.6285 152.116 24.7194 177.028 12.8594 202.004C21.2492 213.458 29.5435 224.782 37.9079 236.201C43.886 229.665 49.5569 223.299 55.41 217.105C63.6095 208.428 71.9725 199.906 80.2078 191.262C83.3857 187.927 86.469 184.495 89.4526 180.985C90.2155 180.088 90.9824 178.635 90.8066 177.596C90.1097 173.481 88.8908 169.456 88.1469 165.346C87.278 160.546 86.2151 155.689 86.2436 150.863C86.2547 148.965 88.6612 146.441 90.612 145.441C91.7482 144.858 94.9486 146.235 95.7909 147.608C97.2339 149.959 97.7498 152.959 98.3168 155.755C101.599 171.941 104.796 188.144 107.995 204.346C110.974 219.437 114.204 234.485 116.793 249.642C118.931 262.158 121.483 274.786 121.697 287.4C121.961 302.975 120.257 318.61 118.887 334.174C118.177 342.242 116.198 350.19 115.087 358.234C114.38 363.351 114.215 368.543 113.809 373.686C182.354 373.686 250.09 373.686 318.418 373.686C317.913 369.752 317.448 366.202 317.003 362.65C315.323 349.215 313.868 335.748 311.917 322.352C309.672 306.93 308.803 291.487 311.072 276.06C313.456 259.845 316.259 243.685 319.223 227.565C322.267 211.007 325.702 194.522 329.012 178.014C330.95 168.348 332.828 158.665 335.037 149.06C335.953 145.079 338.697 144.279 342.438 145.811C347.707 147.968 346.207 152.169 345.528 155.886C344.223 163.029 342.44 170.085 341.124 177.226C340.91 178.389 341.77 180.081 342.652 181.059C347.523 186.459 352.595 191.675 357.52 197.026C364.366 204.461 370.855 212.252 378.043 219.335C383.539 224.75 389.882 229.305 395.593 234.031C402.517 224.604 410.84 213.272 418.976 202.196C410.869 184.87 402.923 167.904 394.994 150.931C390.28 140.837 385.316 130.848 380.956 120.603C372.818 101.477 359.118 87.9944 340.099 80.1084C320.02 71.7826 299.71 64.0133 278.707 55.959Z" fill="black"/>
<path d="M221.992 162.64C221.999 196.241 221.997 229.397 222.003 262.552C222.004 265.727 222.017 268.752 218.312 270.296C213.91 272.131 210.05 270.09 210.039 265.336C209.967 231.514 209.943 197.692 210.152 163.871C210.164 161.969 211.951 159.097 213.632 158.39C217.193 156.892 220.359 158.36 221.992 162.64Z" fill="black"/>
<path d="M159.282 161.22C168.991 149.657 174.785 136.679 176.963 122.127C177.568 118.082 177.809 113.967 177.961 109.874C178.112 105.785 180.069 103.057 184.054 103.148C187.818 103.234 190.207 105.372 190.057 109.858C189.31 132.131 183.301 152.5 168.059 169.263C162.973 174.856 156.884 179.577 151.001 184.389C147.784 187.021 142.804 186.384 141.278 183.737C139.718 181.029 141.719 176.186 144.495 174C149.514 170.048 154.198 165.669 159.282 161.22Z" fill="black"/>
<path d="M257.023 132.751C261.093 145.134 267.294 155.916 275.853 165.149C279.11 168.664 283.324 171.431 287.458 173.955C291.403 176.364 292.187 180.913 290.696 183.625C289.137 186.46 284.504 186.81 281 184.503C260.682 171.12 248.674 152.175 244.079 128.498C242.84 122.111 242.259 115.519 242.243 109.018C242.238 107.018 244.741 103.973 246.754 103.258C249.514 102.277 252.641 103.353 253.11 107.384C253.671 112.215 254.284 117.044 255.021 121.851C255.56 125.365 256.334 128.842 257.023 132.751Z" fill="black"/>
<path d="M210 296.325C209.763 291.514 211.38 288.407 216.044 288.069C219.786 287.797 221.985 290.894 221.992 295.947C222.014 310.233 222.011 324.519 221.995 338.805C221.988 344.603 220.627 345.929 215.352 346.032C209.857 346.139 210.005 342.381 210.003 338.649C209.995 324.695 210 310.741 210 296.325Z" fill="black"/>
<circle cx="266.5" cy="140.5" r="37.5" fill="#FF0000"/>
</svg>
