<svg width="426" height="379" viewBox="0 0 426 379" fill="none" xmlns="http://www.w3.org/2000/svg">
<path d="M364.202 347.276C355.346 352.814 347.061 358.718 338.085 363.252C321.836 371.459 304.544 377.144 286.262 377.855C262.021 378.798 237.724 379.273 213.479 378.726C202.242 378.473 193.041 369.525 192.188 355.771C191.53 345.158 197.497 334.326 210.369 331.097C213.51 330.309 216.856 330.065 220.11 330.046C237.443 329.948 254.781 330.257 272.109 329.938C296.646 329.487 318.151 320.897 337.21 305.417C353.905 291.857 365.139 274.67 371.581 254.513C376.21 240.031 377.096 225.016 375.181 209.696C372.026 184.465 361.197 163.208 343.119 145.802C326.204 129.515 305.884 119.562 282.315 117.056C275.427 116.323 268.46 116.054 261.529 116.044C205.029 115.966 148.529 116 92.0294 116C90.1121 116 88.1948 116 85.3428 116C91.6536 125.447 97.347 134.105 103.18 142.669C111.631 155.077 107.621 171.085 96.13 178.25C86.2299 184.423 72.3018 183.54 64.5275 174.856C55.3495 164.604 46.7324 153.842 38.0431 143.162C29.2748 132.385 20.7242 121.431 12.0607 110.568C9.20349 106.986 5.86962 103.705 3.49829 99.8308C-0.650454 93.0523 -0.632857 87.9524 6.97053 78.509C20.2164 62.0575 33.3368 45.5051 46.5189 29.0022C51.9349 22.2218 56.9257 15.0279 62.9212 8.80353C69.8569 1.6031 79.15 -0.935799 88.7117 1.47871C98.6675 3.99274 105.128 10.5727 107.158 21.3605C108.542 28.7176 106.498 34.8327 102.761 40.6845C97.2757 49.2743 91.5462 57.7086 85.3972 67.0002C88.2174 67.0002 90.1408 67.0001 92.0642 67.0001C152.898 67.0001 213.732 66.8213 274.564 67.1011C294.688 67.1936 314.066 71.9975 332.407 80.2282C348.154 87.2951 362.373 96.6944 375.204 108.496C398.002 129.465 412.77 155.033 420.727 184.647C425.301 201.671 426.372 219.28 424.808 236.714C422.118 266.701 412.049 294.343 393.157 317.969C384.702 328.542 374.092 337.392 364.202 347.276Z" fill="#00B098"/>
</svg>
