<svg width="471" height="496" viewBox="0 0 471 496" fill="none" xmlns="http://www.w3.org/2000/svg">
<path d="M418.403 492.352C404.157 495.646 390.017 495.802 376.042 494.794C364.217 493.941 352.516 491.157 340.807 488.976C331.214 487.19 321.831 487.491 312.713 491.044C299.362 496.248 285.413 494.685 271.605 495.118C264.951 495.326 258.869 493.838 253.257 490.604C242.859 484.612 236.707 475.602 235.063 463.619C232.844 447.446 238.392 432.899 243.843 418.13C246.912 409.815 248.581 400.873 249.96 392.07C252.852 373.599 248.578 355.397 247.188 337.073C246.006 321.484 243.36 306.229 237.944 291.633C233.528 279.734 227.3 268.487 223.172 256.505C219.537 245.958 217.028 234.899 215.279 223.867C213.89 215.102 213.487 205.955 214.281 197.124C215.492 183.649 218.103 170.298 220.151 156.9C220.382 155.384 220.817 153.899 221.327 151.652C211.891 154.979 203.483 158.502 194.767 160.915C167.337 168.51 139.953 176.38 112.244 182.819C87.8104 188.497 62.9698 192.43 38.2963 197.067C28.9973 198.815 19.6829 200.501 10.3381 201.979C2.93062 203.15 -0.383979 200.154 0.0352376 193.418C0.313397 188.948 3.55327 187.708 6.92137 187.106C24.4284 183.977 42.0216 181.314 59.491 177.995C79.0135 174.286 98.6141 170.751 117.859 165.87C145.43 158.877 172.797 151.028 200.068 142.928C210.166 139.928 219.769 135.243 229.552 131.213C233.613 129.54 237.862 128.805 241.157 131.896C244.283 134.828 243.021 138.534 241.505 142.365C235.669 157.111 231.646 172.294 229.931 188.192C227.152 213.966 230.51 238.488 241.994 261.871C250.279 278.741 256.686 296.353 259.861 314.912C261.575 324.924 262.136 335.14 263.061 345.278C264.152 357.238 265.852 369.211 265.878 381.181C265.914 397.449 262.356 413.165 256.499 428.497C253.046 437.535 250.271 447.189 249.414 456.764C248.487 467.124 255.882 478.104 268.883 480.091C284.381 482.459 299.132 479.339 313.84 475.023C325.681 471.548 337.654 472.235 349.42 475.243C366.246 479.544 383.302 480.776 400.548 479.959C404.434 479.775 408.37 479.032 412.122 477.976C420.132 475.721 427.641 478.457 435.356 479.602C439.259 480.182 443.494 480.64 447.232 479.73C452.952 478.336 454.38 473.167 455.272 467.497C447.412 465.982 439.743 464.722 432.188 462.969C427.369 461.852 422.43 460.583 418.043 458.386C398.188 448.442 378.383 438.38 358.804 427.905C339.372 417.508 326.498 401.671 325.294 379.194C323.944 353.984 324.306 328.678 324.134 303.413C324.083 295.814 325.015 288.211 325.024 280.609C325.102 218.277 325.262 155.944 324.973 93.6135C324.857 68.5808 308.002 46.927 282.946 41.1321C277.082 39.7761 270.924 39.1282 264.9 39.1193C179.069 38.9933 93.2372 39.0146 7.40586 39.1023C3.99123 39.1057 0.925613 38.1353 0.400384 35.0769C-0.0650528 32.3666 1.18974 29.1646 2.36393 26.4761C2.77298 25.5395 5.21065 25.0917 6.72231 25.0906C97.2203 25.0271 187.719 24.8741 278.216 25.2081C291.579 25.2575 303.664 31.0976 313.972 39.5684C326.543 49.8983 335.296 62.9034 338.592 79.1079C339.373 82.9488 340.002 86.9038 340.007 90.8072C340.092 156.972 340.161 223.138 340.022 289.303C339.968 315.571 339.441 341.839 339.052 368.105C338.841 382.351 343.157 395.101 353.088 405.184C357.779 409.947 364.136 413.28 370.15 416.488C388.735 426.404 407.39 436.21 426.307 445.467C431.573 448.043 437.793 448.823 443.665 449.964C450.396 451.272 457.301 451.732 463.986 453.215C467.564 454.008 470.197 456.322 470.165 460.943C470.104 469.572 469.822 477.888 464.468 485.379C460.091 491.503 454.125 494.81 447.13 494.82C438.994 494.832 430.856 493.23 422.717 492.353C421.412 492.213 420.093 492.201 418.403 492.352Z" fill="white"/>
<path d="M283.655 70.1359C285.665 75.7364 287.754 80.985 288.978 86.4283C290.966 95.2747 292.552 104.189 300.561 109.988C303.059 111.796 305.73 113.363 308.289 115.088C312.731 118.083 313.976 121.357 312.083 124.917C309.828 129.159 305.695 130.48 300.734 128.201C286.045 121.452 277.946 109.694 275.067 94.0272C274.126 88.9083 272.835 83.8427 272.127 78.6946C270.878 69.6178 275.958 67.3633 283.655 70.1359Z" fill="white"/>
<path d="M288.072 414.664C289.432 417.26 290.557 419.636 292.196 421.578C295.271 425.219 295.733 429.449 293.001 432.579C290.319 435.652 286.712 435.648 282.43 433.166C273.281 427.864 270.488 412.78 274.856 402.697C275.377 401.495 275.904 400.293 276.504 399.13C279.004 394.294 282.97 392.752 287.443 394.844C291.438 396.714 292.243 400.553 290.192 405.795C289.143 408.479 288.756 411.421 288.072 414.664Z" fill="white"/>
</svg>
