<svg width="432" height="385" viewBox="0 0 432 385" fill="none" xmlns="http://www.w3.org/2000/svg">
<path d="M64.4878 236.748C57.521 240.622 50.9131 244.372 44.1823 247.885C36.7654 251.757 34.9804 251.387 29.9665 244.678C20.5443 232.072 11.3445 219.299 1.89378 206.715C-0.628324 203.357 -0.437879 200.493 1.32937 196.833C11.6591 175.437 21.7042 153.905 31.9586 132.472C37.6712 120.533 43.3781 108.581 49.5064 96.8525C54.525 87.2483 63.3143 81.4401 72.2625 75.8984C88.8748 65.6104 107.72 60.561 125.508 53.0353C134.405 49.271 143.343 45.5922 152.358 42.1211C162.41 38.2506 165.491 30.0083 166.826 20.3792C167.58 14.938 168.851 9.57016 169.706 4.14046C170.188 1.08175 171.855 0.00461134 174.785 0.00832734C202.113 0.0429943 229.442 0.0617144 256.77 2.6382e-05C261.999 -0.0117756 262.116 3.93838 262.739 7.3515C263.962 14.0607 264.606 20.8889 266.087 27.5345C267.91 35.7126 273.834 40.0897 281.366 43.0918C305.014 52.518 328.772 61.7204 352.072 71.9556C370.33 79.9759 383.214 93.5521 390.307 112.736C394.159 123.153 399.983 132.831 404.756 142.919C413.183 160.732 421.266 178.711 429.978 196.382C432.545 201.589 431.092 205.209 428.165 209.17C418.91 221.694 409.693 234.247 400.47 246.795C397.827 250.392 394.36 251.245 390.528 249.23C374.784 240.951 359.112 232.535 343.418 224.162C339.707 222.182 336.012 220.172 332.106 218.065C328.962 235.775 325.04 253.028 323.083 270.502C321.644 283.351 322.253 296.515 322.921 309.489C323.533 321.371 325.386 333.194 326.806 345.03C328.05 355.391 329.774 365.706 330.671 376.094C331.266 382.99 329.795 384.027 322.841 384.027C251.187 384.03 179.533 383.962 107.879 384.151C101.914 384.167 100.321 381.747 100.839 376.891C101.962 366.349 103.414 355.843 104.677 345.316C106.078 333.646 107.632 321.988 108.71 310.287C109.436 302.401 110.175 294.397 109.613 286.538C108.79 275.02 106.992 263.557 105.269 252.121C103.577 240.891 101.46 229.726 99.4611 218.136C87.8818 224.276 76.3372 230.397 64.4878 236.748ZM352.256 154.025C352.717 155.53 353.949 157.321 353.515 158.494C350.558 166.489 347.76 174.612 343.914 182.188C340.03 189.84 333.26 196.197 334.832 205.895C353.799 216.078 373.116 226.449 392.505 236.859C401.364 224.854 410.126 212.981 418.858 201.149C409.371 181.109 399.953 161.26 390.577 141.391C387.272 134.388 384.496 127.096 380.71 120.368C376.043 112.074 371.27 103.661 365.27 96.3411C358.056 87.5395 347.873 82.3726 337.34 78.1991C316.972 70.1291 296.662 61.9077 276.196 54.0935C264.829 49.7532 256.415 43.303 254.704 30.3205C253.863 23.9363 252.396 17.6346 251.216 11.3139C227.449 11.3139 203.692 11.3139 180.112 11.3139C179.305 16.7736 178.68 21.9529 177.751 27.0772C175.993 36.7806 172.854 46.0412 163.331 50.661C154.955 54.7247 145.975 57.5309 137.324 61.046C119.41 68.3253 101.309 75.208 83.7206 83.2115C70.7734 89.1031 61.0065 99.0756 54.8149 112.054C40.6967 141.647 26.7519 171.323 12.6784 201.088C21.4863 213.103 30.2708 225.086 38.9349 236.904C58.7733 226.259 78.1238 215.876 97.7239 205.359C96.3806 200.686 96.0593 195.441 93.5506 191.642C86.9921 181.709 81.5018 171.523 78.5617 159.87C77.4889 155.618 78.8395 153.207 82.0788 152.226C85.4013 151.221 88.8468 151.657 89.8833 156.488C90.7204 160.39 92.2757 164.178 93.8403 167.878C100.151 182.798 109.622 194.872 124.455 202.35C133.616 206.968 143.291 207.193 153.151 207.088C156.052 207.057 159.056 207.38 161.841 208.158C165.068 209.059 165.325 212.098 164.652 214.706C164.239 216.309 162.593 218.773 161.432 218.813C153.631 219.077 145.58 219.934 138.056 218.405C128.433 216.448 119.229 212.424 110.007 209.345C110.481 212.211 111.107 216.155 111.789 220.089C113.644 230.802 115.727 241.48 117.335 252.229C119.047 263.672 121.165 275.153 121.549 286.669C121.943 298.478 120.756 310.376 119.691 322.184C118.844 331.576 117.043 340.877 115.847 350.242C114.9 357.654 114.228 365.101 113.406 372.796C181.948 372.796 249.686 372.796 318.239 372.796C316.682 360.539 315.146 348.607 313.654 336.669C312.339 326.145 310.216 315.632 310.004 305.082C309.746 292.26 310.511 279.336 311.951 266.582C313.424 253.541 316.27 240.656 318.474 227.695C319.574 221.22 320.582 214.73 321.653 208.111C316.562 210.521 311.835 212.9 306.994 215.022C295.945 219.867 284.199 218.885 272.567 219.129C268.466 219.215 266.677 217.204 266.28 213.864C265.896 210.648 267.68 208.245 271.129 207.965C276.691 207.513 282.271 207.224 287.85 207.05C299.885 206.676 310.131 202.057 319.09 194.225C330.516 184.237 337.447 171.61 341.278 157.059C342.76 151.433 346.23 150.37 352.256 154.025Z" fill="#00B098"/>
<path d="M187.796 210.434C191.849 207.154 196.155 204.577 199.861 201.318C203.335 198.263 206.687 194.817 209.176 190.953C213.185 184.731 217.711 184.216 221.734 190.547C226.225 197.614 231.85 203.26 239.678 206.421C243.73 208.056 244.731 211.097 243.425 214.748C242.205 218.161 238.181 219.027 234.093 217.073C227.143 213.749 220.629 209.822 216.372 203.08C212.122 206.614 208.05 210.168 203.783 213.473C201.889 214.939 199.669 216.04 197.484 217.066C191.822 219.724 188.001 217.226 187.796 210.434Z" fill="#00B098"/>
<path d="M228.724 54.5827C231.723 54.4654 234.705 52.4988 236.893 56.1482C239.113 59.8532 237.115 62.5071 235.23 64.995C228.558 73.8021 214.57 76.8182 204.818 71.4553C201.592 69.6818 198.63 67.222 196.014 64.6087C193.39 61.9877 192.247 58.7226 195.673 55.6421C198.879 52.7589 201.592 53.5728 204.699 56.3079C215.248 65.5932 217.547 64.4356 228.724 54.5827Z" fill="#00B098"/>
<path d="M212.671 312.657C219.509 311.689 221.723 313.569 221.778 319.899C221.809 323.38 221.988 326.877 221.726 330.338C221.453 333.947 220.342 337.19 215.71 337.022C211.42 336.867 209.678 334.46 209.767 330.332C209.848 326.521 209.495 322.676 209.9 318.907C210.119 316.86 211.52 314.941 212.671 312.657Z" fill="#00B098"/>
<path d="M307.784 181.858C307.73 187.339 305.641 190.02 301.774 190.023C298.017 190.026 295.822 187.177 295.793 182.175C295.78 180.027 295.456 177.765 296.004 175.755C296.893 172.498 299.01 170.447 302.863 171.005C306.39 171.515 307.856 173.527 307.788 176.934C307.759 178.424 307.783 179.915 307.784 181.858Z" fill="#00B098"/>
<path d="M129.643 190.002C127.434 188.597 124.216 187.307 124.067 185.727C123.662 181.44 123.65 176.668 125.202 172.773C126.652 169.133 134.151 170.74 135.148 175.042C136.651 181.529 136.923 187.184 129.643 190.002Z" fill="#00B098"/>
</svg>
