<svg width="24" height="22" viewBox="0 0 24 22" fill="none" xmlns="http://www.w3.org/2000/svg">
<path d="M22.751 16.3717L13.643 9.9017C16.282 7.7357 17.487 6.7417 16.818 3.8147C16.401 1.9927 14.956 0.546702 13.134 0.130702C11.62 -0.214298 10.066 0.130702 8.875 1.0827C7.683 2.0327 7 3.4517 7 4.9737C7 5.5257 7.448 5.9737 8 5.9737C8.552 5.9737 9 5.5257 9 4.9737C9 4.0627 9.409 3.2147 10.122 2.6457C10.846 2.0677 11.757 1.8667 12.69 2.0807C13.751 2.3227 14.627 3.1987 14.869 4.2597C15.252 5.9377 15.017 6.1867 12.364 8.3657L11.396 9.1647L1.222 16.3917C0.457 16.9747 0 17.8977 0 18.8587C0 20.5687 1.392 21.9607 3.102 21.9607H20.898C22.608 21.9607 24 20.5687 24 18.8587C24 17.8977 23.543 16.9747 22.751 16.3717ZM20.898 19.9607H3.102C2.494 19.9607 2 19.4667 2 18.8587C2 18.5177 2.163 18.1897 2.407 18.0027L12 11.1877L21.565 17.9827C21.837 18.1897 22 18.5177 22 18.8587C22 19.4667 21.506 19.9607 20.898 19.9607Z" fill="#00B098"/>
</svg>
