<svg width="471" height="471" viewBox="0 0 471 471" fill="none" xmlns="http://www.w3.org/2000/svg">
<path d="M430.115 469.176C424.401 469.506 419.018 470.688 413.897 469.98C401.797 468.305 389.878 465.286 377.768 463.736C372.789 463.099 367.501 464.811 362.362 465.512C353.613 466.706 344.903 468.487 336.116 469.04C323.047 469.863 309.871 470.728 296.84 469.938C280.679 468.959 264.54 466.803 248.539 464.238C233.594 461.841 218.933 457.653 203.981 455.326C185.677 452.478 167.72 455.417 150.34 461.541C133.624 467.432 116.508 470.492 98.7597 470.202C87.097 470.01 75.4052 470.637 63.7679 470.061C43.7318 469.069 27.5286 460.283 14.8376 444.688C7.11521 435.197 1.70472 424.525 0.516245 412.534C-0.471441 402.569 0.56958 392.37 1.09291 382.295C1.79424 368.793 6.13617 356.098 10.402 343.414C14.8041 330.324 20.1691 317.46 23.3132 304.074C26.4032 290.919 27.7364 277.275 28.8879 263.765C29.7372 253.801 29.5262 243.679 28.9193 233.679C28.3352 224.055 26.6428 214.497 25.4248 204.911C24.3101 196.139 23.2319 187.362 22.0412 178.6C20.4996 167.256 18.8005 155.934 17.2862 144.587C16.1157 135.815 15.1899 127.011 14.0387 118.236C12.5278 106.72 10.8609 95.2246 9.33985 83.7098C8.18126 74.9389 7.15775 66.1502 6.05126 57.3723C4.96573 48.7607 3.79585 40.1593 2.76562 31.5412C1.7926 23.4016 0.943917 15.247 0.0589547 7.09707C-0.340821 3.41538 1.29536 0.850204 4.88278 0.259151C8.77723 -0.382487 12.9806 -0.154162 13.9656 4.74264C15.3156 11.4536 16.0968 18.2817 17.0451 25.0703C18.6519 36.574 20.2374 48.081 21.758 59.5964C22.9162 68.367 23.9166 77.1585 25.0652 85.9305C26.5734 97.4495 28.1834 108.955 29.7019 120.473C30.858 129.242 31.9027 138.025 33.0647 146.794C34.2466 155.712 35.5603 164.613 36.7261 173.534C37.8937 182.469 38.9211 191.423 40.0627 200.361C41.2653 209.778 43.0317 219.154 43.6357 228.606C44.3269 239.424 44.1461 250.307 44.0742 261.16C44.0371 266.761 43.9218 272.448 42.9586 277.94C40.4278 292.374 38.2317 306.947 34.3827 321.05C29.596 338.588 22.3621 355.477 17.9118 373.083C14.0895 388.205 12.4388 403.867 17.967 419.359C25.0547 439.22 44.1275 454.416 65.7951 455.175C73.8972 455.458 82.0099 456.307 90.0935 456.071C109.455 455.504 128.479 453.143 147.087 446.935C157.651 443.411 168.982 442.024 180.059 440.234C198.828 437.201 216.72 442.607 234.797 446.425C245.963 448.783 257.255 450.777 268.59 452.051C284.264 453.812 300.028 455.681 315.759 455.732C328.452 455.773 341.171 453.331 353.843 451.714C360.797 450.827 367.66 448.573 374.598 448.413C380.509 448.276 386.448 450.393 392.412 451.26C402.117 452.67 411.838 454.814 421.578 454.967C440.87 455.269 451.246 445.289 454.067 425.52C454.343 423.582 454.853 421.67 455.017 419.726C455.183 417.758 455.054 415.765 455.054 413.397C442.642 411.295 430.458 409.206 418.266 407.174C407.796 405.43 397.089 404.571 386.922 401.749C380.344 399.924 374.519 395.325 368.413 391.87C358.895 386.484 349.596 380.684 339.899 375.647C317.678 364.104 295.26 352.943 272.948 341.574C261.052 335.513 248.492 330.411 237.487 323.009C211.337 305.42 195.026 280.608 189.193 249.545C187.141 238.618 186.377 227.335 186.21 216.197C185.953 199.105 186.718 181.997 187.056 164.897C187.384 148.296 187.726 131.696 188.054 115.095C188.392 97.9943 188.718 80.8934 189.056 63.7927C189.385 47.1921 189.676 30.5904 190.094 13.992C190.176 10.7229 190.289 7.32209 191.23 4.23887C192.561 -0.12736 196.502 -0.31494 200.26 0.223024C204.265 0.796367 205.74 4.22202 205.753 7.39707C205.804 19.4884 205.283 31.5811 205.065 43.6749C204.692 64.4412 204.412 85.2092 204.045 105.976C203.752 122.577 203.383 139.177 203.056 155.777C202.716 173.045 203.263 190.386 201.812 207.559C200.247 226.074 201.823 243.886 208.031 261.318C214.352 279.068 225.265 293.435 239.668 305.551C252.954 316.728 268.979 322.607 284.151 330.187C301.115 338.663 318.233 346.848 334.984 355.726C353.155 365.357 370.808 375.968 389.059 385.436C394.485 388.251 401.106 388.958 407.278 390.098C422.36 392.884 437.5 395.356 452.616 397.959C456.622 398.649 460.629 399.337 464.63 400.055C468.48 400.746 470.061 403.01 470.111 406.975C470.274 420.029 469.653 432.812 464.236 445.112C459.809 455.161 452.905 462.208 442.808 466.057C438.9 467.547 434.657 468.157 430.115 469.176Z" fill="black"/>
<path d="M93.7791 323.372C96.9966 325.952 99.932 328.306 102.925 330.584C106.767 333.507 108.329 338.183 106.414 341.251C103.704 345.593 99.9146 346.625 94.9372 343.49C74.29 330.485 65.1728 310.007 74.4739 286.538C76.8452 280.554 80.6003 275.088 83.993 269.552C86.1259 266.072 91.2658 264.954 94.2175 266.888C98.1148 269.442 98.9037 274.019 96.6236 278.144C93.2654 284.22 89.5043 290.215 87.213 296.704C84.0406 305.687 86.4005 314.106 92.6453 321.362C93.0582 321.841 93.2357 322.523 93.7791 323.372Z" fill="black"/>
<path d="M305 322.5C305 343.211 288.211 360 267.5 360C246.789 360 230 343.211 230 322.5C230 301.789 246.789 285 267.5 285C288.211 285 305 301.789 305 322.5Z" fill="#FE0000"/>
</svg>
