<svg width="512" height="512" viewBox="0 0 512 512" fill="none" xmlns="http://www.w3.org/2000/svg">
<g clip-path="url(#clip0_2010_55)">
<path d="M193.469 513C192.539 512.344 192.162 511.197 191.606 511.103C171.376 507.65 152.93 499.856 136.286 487.969C130.301 483.695 124.819 478.682 119.333 473.755C115.741 470.53 115.675 464.865 118.744 461.748C122.525 457.908 127.185 457.937 131.334 461.856C141.145 471.122 151.95 479.01 164.247 484.61C179.506 491.559 195.366 496.112 212.367 496.063C221.129 496.038 229.902 497.098 238.655 496.918C263.549 496.405 287.919 492.913 309.732 479.898C319.203 474.247 328.513 467.917 336.636 460.512C348.398 449.79 359.072 437.866 370.109 426.357C382.842 413.079 395.469 399.7 408.135 386.358C420.456 373.378 432.769 360.391 445.086 347.407C457.402 334.423 470.097 321.769 481.85 308.294C486.584 302.867 493 298.655 495.19 290.903C498.884 277.827 490.154 265.557 476.2 265.482C460.47 265.398 445.723 269.829 433.157 279.192C425.453 284.933 418.88 292.315 412.329 299.447C405.805 306.549 399.947 314.263 393.792 321.704C389.092 327.386 384.233 332.944 379.72 338.77C374.668 345.291 363.472 348.521 353.76 345.888C344.696 343.43 337.414 335.603 337.073 326.979C336.477 311.899 335.547 296.762 336.308 281.728C336.742 273.15 340.146 264.701 342.38 256.239C351.566 221.442 360.771 186.65 370.057 151.88C376.455 127.924 383.015 104.012 389.469 80.0715C393.126 66.5074 381.109 49.5576 367.256 47.9233C350.181 45.9091 339.313 55.4445 334.996 71.2328C329.78 90.3095 324.316 109.319 318.905 128.342C310.617 157.484 302.327 186.626 293.948 215.742C289.868 229.916 285.668 244.056 281.356 258.16C279.434 264.447 277.178 265.696 270.937 265.009C265.578 264.418 265.095 260.054 264.065 256.19C263.733 254.945 264.002 253.538 264.002 252.205C264.001 183.045 264.001 113.886 263.999 44.7267C263.999 29.4634 252.579 18.4898 237.433 17.8452C225.369 17.3318 213.577 26.0437 210.585 38.0048C209.561 42.0956 209.07 46.4266 209.064 50.6489C208.973 117.142 208.909 183.635 209.144 250.127C209.167 256.597 205.287 260.32 198.384 258.756C196.286 258.281 193.784 255.513 193.147 253.31C187.879 235.097 182.971 216.78 178.02 198.476C171.123 172.972 164.283 147.453 157.418 121.94C153.291 106.603 149.431 91.1874 144.954 75.9532C141.11 62.8725 130.757 56.5612 115.352 57.0005C105.843 57.2717 94.3777 66.8119 92.444 77.5297C91.4553 83.0099 92.0541 89.1608 93.4487 94.6221C100.708 123.047 108.402 151.361 116.044 179.686C123.81 208.474 131.763 237.211 139.449 266.02C140.694 270.687 143.424 275.745 138.375 280.164C134.794 283.297 127.815 282.831 125.407 278.743C118.81 267.541 112.46 256.194 105.982 244.922C96.7484 228.855 87.4983 212.797 78.2341 196.748C72.7909 187.318 67.2463 177.946 61.859 168.484C56.7424 159.498 48.1109 154.65 38.0577 156.085C28.8574 157.398 21.478 162.887 18.5455 172.983C16.1005 181.4 19.2752 188.754 23.3959 195.823C31.2527 209.303 39.3124 222.666 46.9951 236.244C56.3692 252.81 65.9345 269.299 74.5006 286.283C82.4217 301.989 87.6775 318.795 89.9232 336.316C91.3827 347.702 91.7213 359.23 93.0767 370.633C94.5581 383.097 96.486 395.514 98.5238 407.902C99.2946 412.588 97.072 417.327 92.5402 418.787C88.1298 420.208 83.1972 417.913 82.1575 412.975C80.0817 403.116 77.6615 393.162 77.2015 383.163C76.0698 358.566 74.9202 333.941 65.8116 310.807C60.007 296.064 52.6249 281.884 45.1768 267.863C37.2523 252.944 28.4117 238.512 19.9782 223.863C14.87 214.991 9.76391 206.117 4.6835 197.228C3.57759 195.293 2.58536 193.293 1.27037 191.662C0.999984 183.979 0.999984 175.958 1.27715 167.807C2.35297 166.134 2.97802 164.466 3.9814 163.07C7.633 157.99 10.7873 152.336 15.2758 148.118C23.7504 140.156 34.5517 137.773 45.868 139.107C56.3338 140.342 66.0383 144.253 71.9504 153.451C80.726 167.103 88.7161 181.26 97.033 195.207C100.123 200.389 103.193 205.584 106.271 210.773C106.647 209.549 106.272 208.695 106.032 207.805C98.0212 178.08 89.7788 148.415 82.1427 118.594C79.0083 106.354 74.1665 94.4454 74.8814 81.3035C75.5594 68.8396 80.5401 58.8748 89.693 50.6989C98.9964 42.3888 109.892 39.253 122.242 39.9467C137.228 40.7886 148.866 47.6034 156.348 60.2163C160.304 66.8864 162.479 74.7682 164.601 82.3433C171.286 106.216 177.525 130.214 184.024 154.14C186.545 163.423 189.299 172.642 191.96 182.187C192.056 183.06 192.139 183.637 192.222 184.214C192.471 184.197 192.721 184.179 192.97 184.162C192.97 137.383 192.97 90.6034 192.983 43.3845C193.07 40.4713 192.685 37.8786 193.291 35.5438C197.375 19.832 206.594 8.56976 222.183 3.00761C223.043 2.70079 223.801 2.10878 224.607 1.64952C224.405 1.43302 224.202 1.21651 224 1C232.354 0.999999 240.708 0.999999 249.193 1.27369C250.117 2.03778 250.852 2.69905 251.713 2.99334C269.254 8.9904 281.395 26.8661 281.186 45.2569C280.636 93.5652 281 141.884 281 190.199C281 191.834 281 193.469 281 196.484C282.068 194.042 282.639 193.065 282.935 192.01C288.668 171.575 294.328 151.12 300.088 130.694C305.011 113.235 309.946 95.7781 315.067 78.3768C317.486 70.1555 319.281 61.4996 323.225 54.0255C334.124 33.3711 356.964 25.5832 377.899 33.2003C399.019 40.8845 409.482 59.7451 406.667 80.4633C404.802 94.1835 400.116 107.533 396.519 121.002C389.746 146.365 382.834 171.69 376.003 197.037C370.185 218.629 364.362 240.219 358.62 261.83C356.625 269.343 353.843 276.837 353.239 284.483C352.325 296.073 352.874 307.791 353.102 319.449C353.15 321.897 353.924 324.755 355.364 326.672C359.302 331.916 364.504 330.575 369.732 323.754C374.11 318.042 378.816 312.58 383.45 307.069C389.58 299.777 396.126 292.807 401.866 285.224C409.706 274.867 419.223 266.582 430.443 260.26C441.022 254.299 452.53 250.573 464.52 249.219C471.664 248.412 479.18 248.62 486.244 249.921C497.62 252.016 505.096 259.656 510.049 269.927C510.635 271.143 511.997 271.985 513 273C513 280.688 513 288.375 512.73 296.193C510.405 299.952 508.851 304.007 506.198 307.127C499.359 315.17 492.113 322.872 484.887 330.577C472.763 343.503 460.537 356.333 448.338 369.189C435.796 382.408 423.285 395.655 410.67 408.803C399.636 420.305 388.478 431.687 377.374 443.121C376.793 443.718 376.198 444.301 375.618 444.898C364.467 456.37 354.137 468.813 341.983 479.1C321.677 496.289 297.937 507.031 271.413 511.106C270.858 511.191 270.467 512.345 270 513C244.646 513 219.292 513 193.469 513Z" fill="black"/>
<path d="M270.048 366.993C254.809 378.632 243.379 393.044 235.528 410.104C229.711 422.746 226.008 436.045 225.944 450.168C225.93 453.245 225.452 456.373 224.76 459.38C223.897 463.124 219.896 464.795 214.619 463.984C210.651 463.374 208.558 459.803 208.606 454.857C208.789 435.985 212.181 417.772 221.097 401.076C226.422 391.104 232.247 381.144 239.407 372.467C250.543 358.972 264.18 347.98 280.156 340.471C292.522 334.658 305.367 329.9 319.197 329.077C326.588 328.637 328.682 330.4 328.998 335.657C329.398 342.288 326.987 345.089 320.126 345.995C301.642 348.436 285.22 355.774 270.048 366.993Z" fill="black"/>
<path d="M98.4823 432.228C106.901 429.791 115.008 436.516 113.521 444.036C112.594 448.724 109.682 451.208 105.335 451.637C100.977 452.067 95.5478 446.894 95.0465 442.297C94.6453 438.618 94.8169 434.988 98.4823 432.228Z" fill="black"/>
<path d="M191.96 182.187C191.965 137.84 191.981 93.7899 192.009 49.7394C192.01 47.9177 192.13 46.0961 192.582 44.0493C192.97 90.6034 192.97 137.383 192.97 184.162C192.721 184.179 192.471 184.197 192.222 184.214C192.139 183.637 192.056 183.06 191.96 182.187Z" fill="black"/>
<path d="M114 382.5C114 403.211 97.2107 420 76.5 420C55.7893 420 39 403.211 39 382.5C39 361.789 55.7893 345 76.5 345C97.2107 345 114 361.789 114 382.5Z" fill="#FE0000"/>
</g>
<defs>
<clipPath id="clip0_2010_55">
<rect width="512" height="512" fill="white"/>
</clipPath>
</defs>
</svg>
