<svg id="Layer_1" viewBox="0 0 24 24" xmlns="http://www.w3.org/2000/svg" data-name="Layer 1"><path d="m15 3h-6.5c-.398 0-.713-.019-.995-.046-.001 0-.002 0-.004 0 0 0 0 0-.001 0-1.326-.131-1.5-.575-1.5-1.453 0-.276-.224-.5-.5-.5s-.5.224-.5.5c0 1.706.866 2.285 2.386 2.443 1.004.106 1.616.735 1.614 1.707v5.83c0 3.338-.489 5.703-2.873 6.384-2.776.279-4.164 1.7-4.127 4.636 0 .276.224.5.5.5s.5-.224.5-.5c0-2.312.807-3.291 2.979-3.614.186-.027.4-.023.575-.105 1.506 2.156 4.265 3.219 8.446 3.219 4.775 0 7-3.019 7-9.5s-2.225-9.501-7-9.501zm5.943 7.909c-1.226-.038-2.285.596-3.225 1.168-.777.475-1.512.923-2.218.923s-1.44-.448-2.218-.923c-.955-.581-2.034-1.224-3.282-1.164v-5.263c0-.646-.195-1.205-.531-1.65h5.531c3.752 0 5.619 2.152 5.943 6.909zm-5.943 10.091c-3.713 0-6.168-.869-7.508-2.628 2.065-1.205 2.468-3.758 2.504-6.458.974-.072 1.844.454 2.765 1.017.861.525 1.752 1.068 2.739 1.068s1.878-.543 2.739-1.068c.915-.56 1.782-1.082 2.749-1.018.004.195.012.384.012.587 0 5.879-1.851 8.5-6 8.5z"/></svg>