<svg width="432" height="386" viewBox="0 0 432 386" fill="none" xmlns="http://www.w3.org/2000/svg">
<path d="M64.7039 237.719C57.7371 241.593 51.1292 245.343 44.3984 248.856C36.9815 252.728 35.1965 252.358 30.1826 245.649C20.7604 233.043 11.5606 220.27 2.10985 207.686C-0.412259 204.328 -0.221814 201.464 1.54544 197.804C11.8752 176.408 21.9203 154.876 32.1747 133.443C37.8873 121.504 43.5942 109.552 49.7225 97.8239C54.7411 88.2197 63.5304 82.4115 72.4786 76.8698C89.0909 66.5818 107.936 61.5324 125.724 54.0067C134.621 50.2424 143.559 46.5636 152.574 43.0925C162.626 39.222 165.707 30.9797 167.042 21.3506C167.796 15.9094 169.067 10.5416 169.922 5.1119C170.404 2.05319 172.071 0.976047 175.001 0.979763C202.329 1.01443 229.658 1.03315 256.986 0.971462C262.215 0.95966 262.332 4.90982 262.955 8.32294C264.178 15.0321 264.822 21.8603 266.303 28.5059C268.126 36.684 274.05 41.0611 281.582 44.0632C305.23 53.4894 328.988 62.6918 352.288 72.927C370.546 80.9473 383.43 94.5235 390.523 113.707C394.375 124.124 400.199 133.802 404.972 143.89C413.399 161.703 421.482 179.682 430.194 197.353C432.761 202.56 431.308 206.18 428.381 210.141C419.126 222.665 409.909 235.218 400.686 247.766C398.043 251.363 394.576 252.216 390.744 250.201C375 241.922 359.328 233.506 343.634 225.133C339.923 223.153 336.228 221.143 332.322 219.036C329.178 236.746 325.256 253.999 323.299 271.473C321.86 284.322 322.469 297.486 323.137 310.46C323.749 322.342 325.602 334.165 327.022 346.001C328.266 356.362 329.99 366.677 330.887 377.065C331.482 383.961 330.011 384.998 323.057 384.998C251.403 385.001 179.749 384.933 108.095 385.122C102.13 385.138 100.537 382.718 101.055 377.862C102.178 367.32 103.63 356.814 104.893 346.287C106.294 334.617 107.848 322.959 108.926 311.258C109.652 303.372 110.391 295.368 109.829 287.509C109.006 275.991 107.208 264.528 105.485 253.092C103.793 241.862 101.676 230.697 99.6772 219.107C88.0979 225.247 76.5533 231.368 64.7039 237.719ZM352.472 154.996C352.933 156.501 354.165 158.292 353.731 159.465C350.774 167.46 347.976 175.583 344.13 183.159C340.246 190.811 333.476 197.168 335.048 206.866C354.015 217.049 373.332 227.42 392.721 237.83C401.58 225.825 410.342 213.952 419.074 202.12C409.587 182.08 400.169 162.231 390.793 142.362C387.488 135.359 384.712 128.067 380.926 121.339C376.259 113.045 371.486 104.632 365.486 97.3125C358.272 88.5109 348.089 83.344 337.556 79.1705C317.188 71.1005 296.878 62.8791 276.412 55.0649C265.045 50.7246 256.631 44.2744 254.92 31.2919C254.079 24.9077 252.612 18.606 251.432 12.2853C227.665 12.2853 203.908 12.2853 180.328 12.2853C179.521 17.745 178.896 22.9243 177.967 28.0486C176.209 37.752 173.07 47.0126 163.547 51.6324C155.171 55.6961 146.191 58.5023 137.54 62.0174C119.626 69.2967 101.525 76.1794 83.9367 84.1829C70.9895 90.0745 61.2226 100.047 55.031 113.025C40.9128 142.618 26.968 172.294 12.8945 202.059C21.7024 214.074 30.4869 226.057 39.151 237.875C58.9894 227.23 78.3399 216.847 97.94 206.33C96.5967 201.657 96.2754 196.412 93.7667 192.613C87.2082 182.68 81.7179 172.494 78.7778 160.841C77.705 156.589 79.0556 154.178 82.2949 153.197C85.6174 152.192 89.0629 152.628 90.0994 157.459C90.9365 161.361 92.4918 165.149 94.0564 168.849C100.367 183.769 109.838 195.843 124.671 203.321C133.832 207.939 143.507 208.164 153.367 208.059C156.268 208.028 159.272 208.351 162.057 209.129C165.284 210.03 165.541 213.069 164.868 215.677C164.455 217.28 162.809 219.744 161.648 219.784C153.847 220.048 145.796 220.905 138.272 219.376C128.649 217.419 119.445 213.395 110.223 210.316C110.697 213.182 111.323 217.126 112.005 221.06C113.86 231.773 115.943 242.451 117.551 253.2C119.263 264.643 121.381 276.124 121.765 287.64C122.159 299.449 120.972 311.347 119.907 323.155C119.06 332.547 117.259 341.848 116.063 351.213C115.116 358.625 114.444 366.072 113.622 373.767C182.164 373.767 249.902 373.767 318.455 373.767C316.898 361.51 315.362 349.578 313.87 337.64C312.555 327.116 310.432 316.603 310.22 306.053C309.962 293.231 310.727 280.307 312.167 267.553C313.64 254.512 316.486 241.627 318.69 228.666C319.79 222.191 320.798 215.701 321.869 209.082C316.778 211.492 312.051 213.871 307.21 215.993C296.161 220.838 284.415 219.856 272.783 220.1C268.682 220.186 266.893 218.175 266.496 214.835C266.112 211.619 267.896 209.216 271.345 208.936C276.907 208.484 282.487 208.195 288.066 208.021C300.101 207.647 310.347 203.028 319.306 195.196C330.732 185.208 337.663 172.581 341.494 158.03C342.976 152.404 346.446 151.341 352.472 154.996Z" fill="black"/>
<path d="M188.012 211.405C192.065 208.125 196.371 205.548 200.077 202.289C203.551 199.234 206.903 195.788 209.392 191.924C213.401 185.702 217.927 185.187 221.95 191.518C226.441 198.585 232.066 204.231 239.894 207.392C243.946 209.027 244.947 212.068 243.641 215.719C242.421 219.132 238.397 219.998 234.309 218.044C227.359 214.72 220.845 210.793 216.588 204.051C212.338 207.585 208.266 211.139 203.999 214.444C202.105 215.91 199.885 217.011 197.7 218.037C192.038 220.695 188.217 218.197 188.012 211.405Z" fill="black"/>
<path d="M228.94 55.5541C231.939 55.4368 234.921 53.4702 237.109 57.1196C239.329 60.8246 237.331 63.4785 235.446 65.9664C228.774 74.7735 214.786 77.7896 205.034 72.4267C201.808 70.6532 198.846 68.1934 196.23 65.5801C193.606 62.9591 192.463 59.694 195.889 56.6135C199.095 53.7303 201.808 54.5442 204.915 57.2793C215.464 66.5646 217.763 65.407 228.94 55.5541Z" fill="black"/>
<path d="M212.887 313.628C219.725 312.66 221.939 314.54 221.994 320.87C222.025 324.351 222.204 327.848 221.942 331.309C221.669 334.918 220.558 338.161 215.926 337.993C211.636 337.838 209.894 335.431 209.983 331.303C210.064 327.492 209.711 323.647 210.116 319.878C210.335 317.831 211.736 315.912 212.887 313.628Z" fill="black"/>
<path d="M308 182.829C307.946 188.31 305.857 190.991 301.99 190.994C298.233 190.997 296.038 188.148 296.009 183.146C295.996 180.998 295.672 178.736 296.22 176.726C297.109 173.469 299.226 171.418 303.079 171.976C306.606 172.486 308.072 174.498 308.004 177.905C307.975 179.395 307.999 180.886 308 182.829Z" fill="black"/>
<path d="M129.859 190.973C127.65 189.568 124.432 188.278 124.283 186.698C123.878 182.411 123.866 177.639 125.418 173.744C126.868 170.104 134.367 171.711 135.364 176.013C136.867 182.5 137.139 188.155 129.859 190.973Z" fill="black"/>
<circle cx="66.5" cy="92.5" r="37.5" fill="#FF0000"/>
</svg>
