<svg width="512" height="512" viewBox="0 0 512 512" fill="none" xmlns="http://www.w3.org/2000/svg">
<path d="M301 475.974C300.618 480.684 301.892 485.011 299.522 489.108C297.207 493.112 293.508 492.239 290.324 491.796C287.672 491.426 285.993 489.226 285.966 486.05C285.785 465.254 286.727 444.562 291.926 424.304C297.348 403.175 310.198 387.7 328.747 376.678C341.578 369.054 353.618 360.378 364.958 350.638C379.815 337.876 392.882 323.674 402.808 306.707C411.03 292.65 416.935 277.751 420.063 261.703C422.205 250.717 422.674 239.62 421.848 228.614C420.362 208.814 413.791 190.815 400.866 175.294C379.952 150.178 351.832 137.85 321.206 130.081C302.869 125.429 284.158 123.558 265.207 122.635C255.237 122.149 245.395 122.881 235.596 123.303C219.46 123.999 203.406 126.814 187.797 131.176C169.339 136.335 151.776 143.622 135.807 154.548C112.775 170.305 97.7649 191.52 93.2579 219.068C89.5378 241.806 92.4236 264.186 100.907 285.814C110.437 310.108 125.971 330.046 145.007 347.414C159.194 360.357 175.544 370.384 191.493 380.976C210.077 393.317 220.352 411.18 224.065 433.103C226.938 450.071 228.351 467.107 228.014 484.305C227.904 489.892 226.257 491.914 221.446 492C215.723 492.102 213.202 489.885 213.036 484.209C212.88 478.881 213.492 473.49 212.907 468.221C211.268 453.467 211.199 438.526 206.197 424.184C200.887 408.961 190.859 398.047 177.467 389.877C162.896 380.988 149.223 370.977 136.215 359.89C118.442 344.743 104.198 326.825 93.3263 306.38C86.2085 292.994 81.6552 278.501 78.9038 263.454C76.8303 252.114 76.8455 240.743 77.0432 229.346C77.3414 212.156 82.6949 196.263 90.5862 181.221C91.8097 178.889 91.996 177.391 90.7785 175.491C83.2256 163.7 79.5825 150.772 77.7948 136.893C75.7722 121.189 78.6303 106.164 81.4915 91.0005C83.0702 82.6343 84.0754 74.1907 85.1182 65.7383C86.5715 53.9583 85.6254 42.1877 85.9974 30.4213C86.2019 23.9552 89.9778 20.7507 96.3016 22.0801C99.2825 22.7068 101.045 24.6981 101.024 28.0645C100.956 38.7302 101.661 49.4479 100.837 60.05C99.7111 74.5422 97.6186 88.9499 94.4699 103.208C90.0806 123.084 91.1239 142.6 100.047 161.283C101.149 163.59 101.745 164.141 104.463 162.285C113.308 156.244 114.43 148.881 111.099 139.191C106.661 126.282 109.602 113.269 112.247 100.342C114.51 89.2822 116.017 78.1086 117.163 66.846C118.415 54.5499 117.567 42.2913 118.011 30.0269C118.243 23.6111 123.401 19.8827 129.162 22.2169C131.421 23.1322 133.085 24.944 133.05 27.9598C132.921 38.9577 133.635 50.0036 132.852 60.9468C131.625 78.0775 129.394 95.1504 125.455 111.901C123.284 121.136 123.962 130.116 126.117 139.14C126.625 141.268 127.419 141.619 129.626 140.226C153.129 125.385 178.997 117.044 206.177 111.871C230.467 107.248 255.003 106.78 279.363 108.326C311.634 110.374 342.961 117.694 371.909 133.009C375.799 135.068 379.553 137.397 383.287 139.734C385.843 141.334 387.078 142.111 388.171 137.927C390.924 127.395 389.667 117.243 387.528 106.855C384.854 93.8731 383.103 80.7417 381.829 67.5084C380.613 54.8756 381.371 42.289 381.029 29.6881C380.878 24.1021 382.74 22.0852 387.561 22.0005C393.275 21.9001 395.828 24.1227 395.96 29.7979C396.118 36.6271 395.967 43.4631 396.006 50.2958C396.11 68.592 398.726 86.5749 402.694 104.401C405.963 119.085 405.982 133.718 400.841 148.01C399.752 151.035 400.081 152.925 402.369 154.952C404.735 157.047 407.031 159.263 409.085 161.659C411.685 164.693 412.709 164.005 414.189 160.559C420.387 146.134 423.235 131.447 421.219 115.588C419.339 100.808 415.544 86.376 414.056 71.564C412.575 56.8289 412.881 42.0379 413.092 27.2662C413.15 23.2511 416.133 21.8734 419.986 21.9673C425.191 22.0942 427.736 24.0647 427.933 29.2234C428.182 35.7135 428.042 42.2207 427.991 48.7199C427.853 66.394 431.057 83.642 434.422 100.889C439.514 126.982 437.766 152.102 423.337 175.325C422.221 177.121 421.904 178.621 423.292 181.068C430.03 192.942 434.215 205.783 436 219.358C439.325 244.651 436.095 269.225 426.844 292.859C420.992 307.809 412.543 321.387 402.549 334.061C386.347 354.611 366.336 370.691 344.615 384.875C337.362 389.611 329.782 393.701 323.403 399.875C312.295 410.625 306.133 423.651 304.144 438.609C302.519 450.826 300.668 463.077 301 475.974Z" fill="black"/>
<path d="M179.731 154.376C189.233 149.826 199.237 148.141 209.079 146.088C230.076 141.708 251.438 140.997 272.733 142.155C297.627 143.51 321.922 148.333 345.129 157.971C359.909 164.109 372.998 172.589 383.834 184.376C393.818 195.237 399.895 207.983 402.034 222.656C405.724 247.973 400.584 271.599 388.536 293.866C383.296 303.549 376.59 312.195 369.211 320.42C354.823 336.458 337.534 348.617 319.636 360.356C299.473 373.58 286.868 392.443 282.904 416.675C281.416 425.769 280.632 434.893 279.889 444.065C278.781 457.759 277.91 471.437 277.955 485.18C277.97 489.961 275.615 492.012 270.927 491.999C265.383 491.984 263.065 490.028 263.026 484.885C262.894 467.024 264.168 449.246 265.86 431.466C266.948 420.03 268.157 408.714 271.952 397.792C276.985 383.306 285.066 370.692 295.763 359.851C304.442 351.056 315.342 345.112 325.473 338.213C347.681 323.091 366.155 304.596 378.269 280.301C380.745 275.335 382.258 269.981 384.24 264.824C385.539 261.443 384.123 260.813 381.7 260.017C372.69 257.059 363.512 255.177 354.084 253.78C338.93 251.534 324.546 253.958 310.705 259.341C301.16 263.053 292.13 268.18 282.21 270.991C262.24 276.648 242.552 275.769 223.184 268.065C211.405 263.38 200.256 257.201 187.561 254.685C176.35 252.463 165.334 252.848 154.205 254.389C146.591 255.443 139.254 257.627 132.01 260.105C130.505 260.619 128.405 260.898 129.294 263.745C134.177 279.387 142.119 293.277 152.416 305.985C166.935 323.904 185.874 336.27 204.645 349.045C227.651 364.702 241.526 386.571 246.016 414.196C248.529 429.66 249.437 445.241 250.234 460.878C250.631 468.654 250.85 476.421 250.965 484.194C251.049 489.859 248.844 491.945 243.265 491.999C238.15 492.05 235.812 489.899 236.063 484.374C236.584 472.9 235.556 461.465 234.788 450.083C233.799 435.421 233.31 420.528 228.884 406.348C223.36 388.654 213.371 373.813 198.062 363.083C186.435 354.934 174.053 347.792 163.246 338.558C139.189 318.002 120.405 293.672 113.253 262.168C109.469 245.495 109.168 228.366 114.238 211.833C118.864 196.751 128.06 184.564 140.532 174.673C149.34 167.687 158.804 162.113 169.577 157.948C173.521 157.941 176.444 156.126 179.731 154.376Z" fill="black"/>
<path d="M249.553 330.058C249.236 326.541 247.842 323.176 250.245 320.263C253.735 316.033 259.27 315.803 263.163 319.656C266.46 322.921 266.219 329.962 262.719 332.67C259.194 335.397 252.568 334.219 249.553 330.058Z" fill="black"/>
<path d="M320.719 291.372C323.937 299.135 322.319 303.117 315.684 305.135C312.091 306.227 309.155 304.843 307.246 302.314C304.785 299.052 304.231 295.002 307.203 291.644C309.321 289.252 312.097 287.752 315.708 288.834C317.458 289.359 319.104 289.878 320.719 291.372Z" fill="black"/>
<path d="M207.742 293.41C209.464 299.749 207.433 303.448 201.7 305.087C197.166 306.383 193.301 303.914 191.909 298.646C190.829 294.56 192.222 291.349 196.037 289.504C200.602 287.295 204.802 288.687 207.742 293.41Z" fill="black"/>
<path d="M179.622 154.108C177.595 157.256 174.703 159.22 170.248 158.073C172.596 155.518 176.207 155.477 179.622 154.108Z" fill="black"/>
<circle cx="313.5" cy="208.5" r="37.5" fill="#FF0000"/>
</svg>
