<svg width="200" height="200" viewBox="0 0 200 200" fill="none" xmlns="http://www.w3.org/2000/svg">
<path d="M100 141.667C77 141.667 58.3333 123 58.3333 100C58.3333 77 77 58.3333 100 58.3333C123 58.3333 141.667 77 141.667 100C141.667 123 123 141.667 100 141.667ZM100 75C86.25 75 75 86.25 75 100C75 113.75 86.25 125 100 125C113.75 125 125 113.75 125 100C125 86.25 113.75 75 100 75ZM108.333 33.3333V8.33333C108.333 3.75 104.583 0 100 0C95.4167 0 91.6667 3.75 91.6667 8.33333V33.3333C91.6667 37.9167 95.4167 41.6667 100 41.6667C104.583 41.6667 108.333 37.9167 108.333 33.3333ZM108.333 191.667V166.667C108.333 162.083 104.583 158.333 100 158.333C95.4167 158.333 91.6667 162.083 91.6667 166.667V191.667C91.6667 196.25 95.4167 200 100 200C104.583 200 108.333 196.25 108.333 191.667ZM41.6667 100C41.6667 95.4167 37.9167 91.6667 33.3333 91.6667H8.33333C3.75 91.6667 0 95.4167 0 100C0 104.583 3.75 108.333 8.33333 108.333H33.3333C37.9167 108.333 41.6667 104.583 41.6667 100ZM200 100C200 95.4167 196.25 91.6667 191.667 91.6667H166.667C162.083 91.6667 158.333 95.4167 158.333 100C158.333 104.583 162.083 108.333 166.667 108.333H191.667C196.25 108.333 200 104.583 200 100ZM55.9167 55.9167C59.1667 52.6667 59.1667 47.4167 55.9167 44.1667L39.25 27.5C36 24.25 30.75 24.25 27.5 27.5C24.25 30.75 24.25 36 27.5 39.25L44.1667 55.9167C45.8333 57.5833 47.9167 58.3333 50.0833 58.3333C52.25 58.3333 54.3333 57.5 56 55.9167H55.9167ZM172.583 172.583C175.833 169.333 175.833 164.083 172.583 160.833L155.917 144.167C152.667 140.917 147.417 140.917 144.167 144.167C140.917 147.417 140.917 152.667 144.167 155.917L160.833 172.583C162.5 174.25 164.583 175 166.75 175C168.917 175 171 174.167 172.667 172.583H172.583ZM39.25 172.583L55.9167 155.917C59.1667 152.667 59.1667 147.417 55.9167 144.167C52.6667 140.917 47.4167 140.917 44.1667 144.167L27.5 160.833C24.25 164.083 24.25 169.333 27.5 172.583C29.1667 174.25 31.25 175 33.4167 175C35.5833 175 37.6667 174.167 39.3333 172.583H39.25ZM155.917 55.9167L172.583 39.25C175.833 36 175.833 30.75 172.583 27.5C169.333 24.25 164.083 24.25 160.833 27.5L144.167 44.1667C140.917 47.4167 140.917 52.6667 144.167 55.9167C145.833 57.5833 147.917 58.3333 150.083 58.3333C152.25 58.3333 154.333 57.5 156 55.9167H155.917Z" fill="#00B098"/>
</svg>
