<svg width="887" height="583" viewBox="0 0 887 583" fill="none" xmlns="http://www.w3.org/2000/svg">
<path d="M576.293 562.388C523.764 579.521 470.142 585.212 415.628 581.936C365.288 578.911 317.13 566.112 270.762 546.442C218.226 524.154 170.595 493.832 126.035 458.403C91.9167 431.277 60.5818 401.182 30.5258 369.704C27.8312 366.882 25.2103 365.379 21.0786 365.407C4.98398 365.516 -5.14442 348.744 2.71953 334.617C6.24844 328.278 11.1847 322.684 15.75 316.965C41.4453 284.779 68.4925 253.77 97.7923 224.808C139.295 183.785 184.132 146.954 234.751 117.543C284.084 88.8804 336.536 68.7518 393.229 60.8262C441.43 54.0879 489.208 56.8396 536.502 68.6124C608.031 86.4179 670.686 121.476 727.901 166.967C785.021 212.383 833.972 265.569 875.984 325.158C880.501 331.565 886.166 337.611 886.242 346.385C886.356 359.376 877.342 368.896 864.404 368.193C859.332 367.918 856.091 369.386 852.86 373.082C812.072 419.742 766.149 460.638 714.583 495.062C671.681 523.702 625.975 546.706 576.293 562.388ZM587.304 130.71C566.501 123.695 546.031 115.39 524.829 109.921C472.453 96.4096 419.69 96.7061 367.054 109.205C312.621 122.131 263.655 146.86 218.147 178.847C151.273 225.852 95.8037 284.519 45.3282 348.281C42.9394 351.298 43.0116 353.151 45.7319 355.768C67.3333 376.548 88.2753 398.05 110.485 418.152C150.535 454.402 194.452 485.336 242.45 510.331C296.396 538.424 353.339 556.436 414.157 561.27C455.991 564.594 497.352 561.074 538.172 551.516C590.07 539.365 638.248 518.221 683.575 490.414C742.561 454.227 794.03 409.204 839.651 357.318C842.401 354.19 842.816 351.833 840.266 348.231C817.012 315.387 791.173 284.708 763.049 255.968C738.779 231.166 712.807 208.248 684.872 187.625C654.619 165.291 622.599 145.943 587.304 130.71Z" fill="#00B098"/>
<path d="M507.29 27.103C475.62 22.3079 444.302 21.0047 412.755 23.8014C332.62 30.9055 261.5 61.6274 195.527 106.005C161.714 128.75 130.004 154.208 101.051 182.839C77.9692 205.664 56.0218 229.637 33.6441 253.17C26.7409 260.429 21.0673 261.795 15.6167 257.076C10.4471 252.6 10.8397 245.985 17.1326 238.728C48.6163 202.421 82.2421 168.256 118.816 137.023C149.036 111.215 180.928 87.7514 215.172 67.5472C266.873 37.0433 321.744 14.7253 381.323 5.68468C403.478 2.3229 426.034 -0.0403705 448.402 0.000522538C489.205 0.0751385 529.296 6.68808 568.41 18.6979C634.094 38.8658 692.728 72.1356 746.658 114.232C772.444 134.36 797.166 155.754 819.367 179.74C838.464 200.373 856.212 222.257 874.492 243.643C877.806 247.52 878.748 252.039 876.044 256.607C873.66 260.632 869.86 263.149 865.161 261.982C862.334 261.28 859.168 259.464 857.443 257.176C835.109 227.553 810.122 200.322 783.26 174.813C736.196 130.118 684.265 92.2822 625.468 64.3409C587.954 46.5136 548.781 33.814 507.29 27.103Z" fill="#00B098"/>
<path d="M348.06 441.291C347.828 445.426 348.014 449.157 347.278 452.696C345.957 459.055 339.457 463.617 333.234 463.109C326.517 462.562 320.977 457.211 320.38 450.574C320.201 448.59 320.277 446.581 320.281 444.583C320.371 392.791 320.404 340.999 320.586 289.207C320.701 256.572 321.019 223.939 321.297 191.305C321.363 183.527 326.104 177.549 332.789 176.499C339.564 175.435 345.929 179.091 348.179 185.641C348.862 187.629 349.003 189.883 349.003 192.015C348.991 226.82 348.986 261.626 348.841 296.431C348.641 344.554 348.327 392.677 348.06 441.291Z" fill="#00B098"/>
<path d="M532.528 417.345C532.83 344.187 533.127 271.529 533.436 198.87C533.48 188.703 536.479 183.599 543.589 181.412C551.65 178.932 560.288 184.615 561.094 193.009C561.3 195.158 561.202 197.339 561.198 199.505C561.098 257.169 561.047 314.834 560.861 372.499C560.775 399.158 560.443 425.816 560.184 452.474C560.096 461.569 554.56 467.495 546.348 467.439C538.205 467.385 532.557 461.367 532.485 452.344C532.394 440.845 532.503 429.344 532.528 417.345Z" fill="#00B098"/>
<path d="M488.333 231.401C488.376 228.412 488.227 225.893 488.492 223.418C489.298 215.863 495.426 210.341 502.582 210.539C509.987 210.744 515.973 216.768 516.068 224.512C516.195 234.842 516.079 245.175 516.025 255.507C515.731 311.16 515.406 366.812 515.152 422.465C515.13 427.358 514.164 431.808 510.318 435.071C505.842 438.869 500.673 439.61 495.363 437.163C489.798 434.6 487.361 429.87 487.37 423.848C487.403 402.684 487.407 381.52 487.523 360.357C487.758 317.534 488.058 274.712 488.333 231.401Z" fill="#00B098"/>
<path d="M276.16 231.348C276.182 227.184 276.108 223.516 276.242 219.855C276.533 211.837 282.152 206.252 289.849 206.204C297.488 206.156 303.552 211.645 303.821 219.601C304.136 228.919 303.921 238.258 303.836 247.586C303.766 255.245 303.445 262.902 303.417 270.56C303.235 319.04 303.098 367.52 302.964 416C302.945 422.983 301.853 429.341 294.578 432.698C286.109 436.608 276.212 431.043 275.302 421.745C275.125 419.928 275.197 418.083 275.201 416.251C275.308 369.937 275.38 323.622 275.557 277.308C275.615 262.154 275.95 247.001 276.16 231.348Z" fill="#00B098"/>
<path d="M590.779 441.18C582.689 438.416 579.355 433.974 579.393 425.848C579.696 360.081 580.035 294.315 580.421 228.549C580.473 219.819 586.617 213.389 594.455 213.467C602.331 213.545 608.255 219.969 608.237 228.724C608.169 262.527 608.071 296.329 607.892 330.132C607.724 361.93 607.445 393.727 607.205 425.525C607.124 436.249 601.772 441.482 590.779 441.18Z" fill="#00B098"/>
<path d="M395.977 256.344C395.666 311.488 395.372 366.133 395.034 420.777C394.963 432.221 386.971 439.083 377.142 436.294C370.752 434.481 367.189 429.249 367.199 421.308C367.229 397.648 367.283 373.987 367.419 350.327C367.659 308.345 367.953 266.363 368.254 224.382C368.318 215.454 373.154 209.715 380.851 209.24C389.821 208.686 395.897 214.369 396.029 223.852C396.177 234.513 396.01 245.179 395.977 256.344Z" fill="#00B098"/>
<path d="M647.107 383.34C647.064 388.167 647.208 392.506 646.946 396.821C646.422 405.455 640.506 411.237 632.641 411.076C625.007 410.921 619.211 404.583 619.274 396.074C619.587 354.129 619.96 312.184 620.365 270.24C620.447 261.764 626.308 255.599 634.071 255.533C642.094 255.465 648.102 261.635 648.054 270.486C647.919 295.119 647.563 319.751 647.335 344.384C647.216 357.203 647.182 370.022 647.107 383.34Z" fill="#00B098"/>
<path d="M250.911 248.307C259.307 250.143 263.271 254.669 263.213 262.589C262.903 304.884 262.534 347.18 262.083 389.474C261.995 397.752 256.152 403.419 248.243 403.433C240.121 403.446 234.294 397.692 234.345 389.024C234.474 366.88 234.919 344.738 235.118 322.594C235.295 302.942 235.252 283.289 235.423 263.637C235.508 253.848 240.875 248.508 250.911 248.307Z" fill="#00B098"/>
<path d="M446.514 385.423C446.852 347.504 447.173 310.063 447.552 272.622C447.582 269.638 447.799 266.62 448.31 263.685C449.432 257.243 456.001 252.163 462.366 252.569C469.173 253.002 475.326 258.739 475.298 265.456C475.165 297.407 474.811 329.358 474.541 361.308C474.452 371.793 474.396 382.278 474.294 392.763C474.207 401.719 468.623 408.097 460.82 408.212C452.665 408.334 446.758 402.042 446.492 392.892C446.424 390.564 446.5 388.232 446.514 385.423Z" fill="#00B098"/>
<path d="M411.036 256.296C415.878 251.038 421.448 249.704 427.598 252.362C433.658 254.981 435.924 260.237 435.874 266.538C435.616 299.488 435.327 332.438 434.983 365.388C434.889 374.37 434.592 383.35 434.342 392.33C434.106 400.799 428.657 406.39 420.71 406.395C412.783 406.4 407.05 400.715 407.109 392.327C407.405 349.723 407.781 307.12 408.312 264.518C408.345 261.867 409.937 259.236 411.036 256.296Z" fill="#00B098"/>
</svg>
