<?xml version="1.0" encoding="utf-8"?>
<!-- Generator: Adobe Illustrator 14.0.0, SVG Export Plug-In  -->
<!DOCTYPE svg PUBLIC "-//W3C//DTD SVG 1.1//EN" "http://www.w3.org/Graphics/SVG/1.1/DTD/svg11.dtd" [
	<!ENTITY ns_flows "http://ns.adobe.com/Flows/1.0/">
]>
<svg version="1.1"
	 xmlns="http://www.w3.org/2000/svg" xmlns:xlink="http://www.w3.org/1999/xlink" xmlns:a="http://ns.adobe.com/AdobeSVGViewerExtensions/3.0/"
	 x="0px" y="0px" width="225px" height="129px" viewBox="-2.057 -1.092 225 129" enable-background="new -2.057 -1.092 225 129"
	 xml:space="preserve">
<defs>
</defs>
<g>
	<g>
		<g>
			<g>
				<path fill="#D87C3B" d="M42.726,120.927c3.597-5.37,6.261-10.84,7.748-16.662c1.422-5.643,1.667-12.652-2.857-18.258
					c-4.968-5.156-10.792-8.024-19.342-7.036c-8.652,1.515-14.291,11.674-12.179,20.75c0.476,2.444,1.421,5.434,3.226,8.419
					c0.827,1.56,1.959,3.002,3.143,4.559l0.223,0.293c0.103,0.235-0.866-1.173-0.729-1.854c-0.507-0.253,0.818-3.991,2.684-4.004
					c0.799-0.187,0.549-0.125,0.886-0.164c0.46-0.012,0.814,0.105,0.663,0.055c0.072,0.026-0.315-0.119-0.583-0.24
					c-0.636-0.298-1.363-0.678-2.091-1.129c-5.831-3.587-12.479-9.932-14.822-18.417c-2.517-8.486,0.85-18.612,7.37-27.128
					c5.625-8.407,16.707-11.808,27.362-11.992c21.798-0.442,41.638,11.359,49.435,23.903c2.021,3.11,3.491,6.157,4.513,8.95
					c0.589,1.653,0.645,2.181,1.448,4.534c0.319,0.511-0.278-0.084,0.872,1.385c1.157,1.082,2.313,1.586,3.967,1.185
					c0.821-0.201,1.567-0.69,2.024-1.166l0.297-0.368l0.501-0.758c0.289-0.567,0.486-1.035,0.605-1.362
					c0.289-0.74,0.47-1.303,0.671-1.876c1.464-4.396,2.377-6.617,2.382-6.642c0.302,0.441,2.567-10.602,13.785-19.824
					c2.872-2.091,6.334-3.866,10.367-4.731c2.021-0.394,4.141-0.728,6.378-0.685l0.837-0.016l0.21-0.004l0.105-0.002
					c8.016-7.36,2.224-2.066,4.014-3.721l0.002-0.045l0.031-0.431l0.157-1.803l0.417-3.7c1.387-9.738,3.534-21.235,9.446-29.068
					c3.156-3.617,6.965-5.438,9.026-2.691c3.007,3.102,5.213,8.565,6.801,13.632c1.6,5.191,2.729,10.553,3.361,15.706
					c0.289,2.524,0.492,5.196,0.299,7.19c-0.011,0.277-0.065,0.404-0.084,0.613c-0.011,0.126-0.032,0.1-0.038,0.148l-0.008,0.05
					v0.013c0.97,2.238-2.172-4.991,2.175,5.021l0.072,0.033c0.422,0.194,0.989,0.46,1.496,0.736c1.04,0.531,2.075,1.145,3.07,1.769
					c16.448,10.322,22.561,26.115,24.067,33.506c1.865,6.566,1.31,14.275,4.251,20.557c0.271,0.784,0.397,2.304,0.466,3.721
					c-0.049,1.521,0.074-0.156,0.228-0.04c-0.183,0.188-0.374,0.497-0.953,0.868c-1.911,1.413-4.452,2.734-6.944,3.786
					c-5.019,2.18-10.219,3.9-15.692,5c-5.364,0.851-11.587,2.135-17.157-1.366c4.889,4.627,11.825,4.641,17.526,4.649
					c5.925-0.194,11.592-1.182,17.305-2.913c2.879-0.873,5.696-1.897,8.755-3.761c0.72-0.386,1.607-1.115,2.457-2.038
					c0.345-0.165,1.064-1.627,1.265-2.631c0.259-1.288,0.088-1.051,0.152-1.655c-0.002-1.643,0.097-3.283-0.448-5.586
					c-2.4-5.503-1.489-12.123-3.626-20.418c-1.668-8.372-8.706-26.594-27.488-38.341c-1.158-0.726-2.34-1.426-3.612-2.079
					c-0.637-0.341-1.249-0.637-2.021-0.985l-0.153-0.067c4.339,9.983,1.222,2.707,2.199,4.908l0.033-0.105l0.127-0.424
					c0.074-0.27,0.176-0.605,0.201-0.809c0.07-0.443,0.176-0.962,0.196-1.347c0.287-3.289-0.005-6.027-0.311-8.93
					c-0.704-5.705-1.903-11.396-3.662-17.114c-1.924-5.681-3.78-11.499-8.796-16.897c-2.041-2.94-8.615-4.576-11.823-2.926
					c-3.8,1.124-6.686,3.676-8.799,6.259c-7.911,10.824-9.46,22.534-11.131,33.029l-0.443,3.949l-0.17,1.968l-0.036,0.506
					l-0.005,0.072c1.777-1.626-3.984,3.741,3.983-3.627l-0.129,0.001l-0.258,0.004l-1.027,0.016
					c-2.725-0.037-5.415,0.355-7.983,0.873c-5.155,1.107-9.712,3.427-13.349,6.103c-14.07,11.786-15.864,23.684-16.368,23.222
					c0.012-0.023-1.05,2.592-2.515,6.987c-0.181,0.519-0.38,1.118-0.561,1.571c0.13,0.4-0.682,0.129,0.329,0.72
					c0.995,0.133,2.432,1.73,2.513,1.643c-0.118,0.341,0.359-0.329,1.804-0.836c1.756-0.517,1.842-0.325,1.566-0.635l-0.169-0.563
					l-0.35-1.16c-0.255-0.782-0.451-1.617-0.783-2.436c-1.209-3.321-2.954-6.949-5.346-10.623
					c-9.448-14.895-31.515-27.859-56.1-27.427c-11.87,0.115-25.969,4.147-33.525,15.162C2.48,64.81-2.271,77.755,1.112,89.292
					c3.277,11.365,11.236,18.628,18.365,23.081c0.924,0.564,1.872,1.074,2.907,1.553c0.578,0.242,1.026,0.468,1.969,0.714
					c0.06,0.031,0.637,0.166,1.321,0.162c0.444-0.041,0.318,0.062,1.21-0.163c1.923-0.095,3.393-3.903,2.87-4.248
					c0.024-0.871-1.03-2.485-1.061-2.424l-0.172-0.231c-0.918-1.225-1.832-2.353-2.428-3.511c-1.377-2.247-1.996-4.319-2.331-5.944
					c-1.245-6.097,1.868-11.22,6.159-12.267c3.936-1,10.578,0.908,13.439,3.821C49.934,96.641,47.359,109.522,42.726,120.927z"/>
			</g>
		</g>
	</g>
</g>
<g>
	<g>
		<path fill="#D2691E" d="M170.425,73.078c6.482-0.095,13.108,2.969,16.405,8.647c1.28,2.205,4.936-1.159,3.812-3.096
			c-3.786-6.521-11.334-10.104-18.794-9.994C169.664,68.667,167.641,73.119,170.425,73.078L170.425,73.078z"/>
	</g>
</g>
</svg>
