<svg id="Layer_1" viewBox="0 0 24 24" xmlns="http://www.w3.org/2000/svg" data-name="Layer 1"><path d="m18 13.5h1.5c.827 0 1.5-.673 1.5-1.5s-.673-1.5-1.5-1.5h-1.5v-4.5h1.5c.827 0 1.5-.673 1.5-1.5s-.673-1.5-1.5-1.5h-1.776c-.621-1.742-2.271-3-4.224-3h-3c-1.953 0-3.602 1.258-4.224 3h-1.776c-.827 0-1.5.673-1.5 1.5s.673 1.5 1.5 1.5h1.5v4.5h-1.5c-.827 0-1.5.673-1.5 1.5s.673 1.5 1.5 1.5h1.5v4.5h-1.5c-.827 0-1.5.673-1.5 1.5s.673 1.5 1.5 1.5h1.776c.621 1.742 2.271 3 4.224 3h3c1.953 0 3.602-1.258 4.224-3h1.776c.827 0 1.5-.673 1.5-1.5s-.673-1.5-1.5-1.5h-1.5zm-11-4.5h10v6h-10zm12.5 2.5c.276 0 .5.225.5.5s-.224.5-.5.5h-1.5v-1zm0-7.5c.276 0 .5.225.5.5s-.224.5-.5.5h-1.5v-.5c0-.171-.032-.334-.051-.5zm-9-3h3c1.93 0 3.5 1.57 3.5 3.5v3.5h-10v-3.5c0-1.93 1.57-3.5 3.5-3.5zm-6 4c-.276 0-.5-.225-.5-.5s.224-.5.5-.5h1.551c-.019.166-.051.329-.051.5v.5zm0 7.5c-.276 0-.5-.225-.5-.5s.224-.5.5-.5h1.5v1zm0 7.5c-.276 0-.5-.225-.5-.5s.224-.5.5-.5h1.5v.5c0 .171.032.334.051.5zm9 3h-3c-1.93 0-3.5-1.57-3.5-3.5v-3.5h10v3.5c0 1.93-1.57 3.5-3.5 3.5zm6-4c.276 0 .5.225.5.5s-.224.5-.5.5h-1.551c.019-.166.051-.329.051-.5v-.5z"/></svg>