<svg width="512" height="512" viewBox="0 0 512 512" fill="none" xmlns="http://www.w3.org/2000/svg">
<path d="M405.09 255.893H349.325L360.845 163.499C362.857 154.153 362.762 144.476 360.567 135.171C358.372 125.866 354.131 117.167 348.154 109.706C342.176 102.245 334.611 96.2097 326.009 92.038C317.407 87.8664 307.983 85.6635 298.424 85.5893H247.885C250.21 69.1413 248.802 42.7733 272.077 42.6667H341.09C346.748 42.6667 352.174 40.4191 356.175 36.4183C360.176 32.4175 362.424 26.9913 362.424 21.3333C362.424 15.6754 360.176 10.2492 356.175 6.24839C352.174 2.24761 346.748 0 341.09 0H272.077C256.484 0.00959845 241.431 5.7113 229.745 16.0344C218.059 26.3574 210.544 40.5917 208.61 56.064L204.92 85.5893H63.7568C54.3872 85.6898 45.1522 87.8322 36.6953 91.8672C28.2384 95.9022 20.7631 101.733 14.7903 108.953C8.81747 116.172 4.4908 124.608 2.11179 133.671C-0.267214 142.734 -0.641336 152.207 1.0155 161.429L33.2928 418.667C36.5567 444.432 49.0992 468.124 68.5723 485.308C88.0455 502.491 113.114 511.989 139.085 512.021L405.09 511.765C419.098 511.765 432.968 509.006 445.91 503.646C458.851 498.285 470.61 490.428 480.515 480.523C490.42 470.618 498.277 458.86 503.637 445.918C508.998 432.977 511.757 419.106 511.757 405.099V362.56C511.757 348.552 508.998 334.682 503.637 321.74C498.277 308.799 490.42 297.04 480.515 287.135C470.61 277.23 458.851 269.373 445.91 264.013C432.968 258.652 419.098 255.893 405.09 255.893ZM469.09 362.56H213.09C213.09 345.586 219.833 329.307 231.835 317.305C243.838 305.303 260.116 298.56 277.09 298.56H405.09C422.064 298.56 438.343 305.303 450.345 317.305C462.347 329.307 469.09 345.586 469.09 362.56ZM298.424 128.235C301.794 128.253 305.113 129.061 308.115 130.593C311.116 132.126 313.717 134.341 315.708 137.06C317.7 139.779 319.026 142.927 319.581 146.252C320.136 149.576 319.904 152.984 318.904 156.203L317.048 170.56H237.261L242.552 128.192L298.424 128.235ZM47.2022 136.213C49.1926 133.734 51.7121 131.731 54.5763 130.35C57.4406 128.97 60.5773 128.247 63.7568 128.235H199.586L194.274 170.56H45.0688L42.9355 154.133C42.2517 151.018 42.2803 147.788 43.0191 144.685C43.7578 141.582 45.1878 138.686 47.2022 136.213ZM75.6182 413.376L50.4448 213.227H311.714L306.36 255.893H277.09C248.8 255.893 221.669 267.131 201.665 287.135C181.662 307.139 170.423 334.27 170.423 362.56C169.527 397.419 168.29 442.347 192.525 469.44H139.085C123.492 469.43 108.439 463.729 96.7532 453.406C85.0671 443.083 77.5517 428.848 75.6182 413.376ZM405.09 469.227H277.09C260.116 469.227 243.838 462.484 231.835 450.482C219.833 438.479 213.09 422.201 213.09 405.227H292.024C300.28 409.195 353.357 450.261 362.424 447.893C371.298 450.411 424.93 409.003 432.823 405.227H469.09C469.09 422.201 462.347 438.479 450.345 450.482C438.343 462.484 422.064 469.227 405.09 469.227Z" fill="#00B098"/>
</svg>
