<svg width="300" height="200" viewBox="0 0 300 200" fill="none" xmlns="http://www.w3.org/2000/svg">
<path d="M300 45.4875V153.813C300 161.75 295.588 168.888 288.5 172.425C285.525 173.913 282.338 174.638 279.163 174.638C274.75 174.638 270.388 173.225 266.7 170.463L237.5 141.375V143.75C237.5 174.763 212.263 200 181.25 200H56.25C25.2375 200 0 174.763 0 143.75V56.25C0 25.2375 25.2375 0 56.25 0H181.25C212.263 0 237.5 25.2375 237.5 56.25V58.2125L266.013 29.45C273.05 24.1 281.388 23.3375 288.5 26.8875C295.6 30.4375 300 37.55 300 45.4875ZM225 56.2375C225 32.1125 205.375 12.4875 181.25 12.4875H56.25C32.125 12.4875 12.5 32.1125 12.5 56.2375V143.738C12.5 167.863 32.125 187.488 56.25 187.488H181.25C205.375 187.488 225 167.863 225 143.738V56.2375ZM287.5 45.4875C287.5 42.275 285.775 39.4875 282.9 38.05C280.025 36.6125 276.762 36.9125 274.187 38.825L237.488 75.95V123.712L274.85 161.038C276.75 162.388 280 162.7 282.888 161.25C285.763 159.813 287.488 157.038 287.488 153.813L287.5 45.4875Z" fill="#00B098"/>
</svg>
