<svg width="291" height="481" viewBox="0 0 291 481" fill="none" xmlns="http://www.w3.org/2000/svg">
<path d="M120.804 129.767C108.731 110.357 96.7642 91.3032 85.1829 72.0174C81.7169 66.2458 80.2197 59.7817 80.4215 52.7371C80.8459 37.9197 80.5364 23.0817 80.5573 8.25226C80.5659 2.12407 82.5591 0.0475947 88.3349 0.000902698C94.5147 -0.0490543 96.5329 1.96539 96.5441 8.32117C96.5655 20.4847 97.1672 32.6888 96.3705 44.7999C95.6291 56.0689 99.7909 65.478 105.512 74.3039C120.596 97.5748 135.772 120.803 151.576 143.587C168.881 168.534 186.922 192.971 204.659 217.619C218.587 236.974 232.618 256.256 246.453 275.677C255.539 288.431 264.433 301.325 273.263 314.259C277.215 320.047 280.84 326.06 284.539 332.017C290.663 341.881 291.608 352.988 290.312 363.942C289.019 374.876 286.573 385.8 283.383 396.35C279.42 409.455 272.165 421.076 259.89 427.773C252.035 432.058 243.089 434.833 234.301 436.81C219.519 440.134 204.53 442.7 189.515 444.747C182.426 445.714 175.129 445.918 169.915 451.108C166.384 454.623 163.943 459.412 161.704 463.97C160.545 466.328 160.759 469.414 160.577 472.187C160.165 478.449 158.288 480.186 151.831 480C146.487 479.846 144.818 477.693 144.51 471.747C143.546 453.142 151.014 439.229 168.268 432.071C175.77 428.958 184.381 428.378 192.553 427.047C210.73 424.086 229.084 421.881 246.481 415.466C254.921 412.354 260.235 405.493 264.14 397.746C269.866 386.386 272.2 374.071 273.595 361.507C274.84 350.291 270.483 340.991 264.289 332.242C241.555 300.133 218.797 268.04 196.023 235.958C178.167 210.803 160.253 185.69 142.408 160.527C135.231 150.405 128.171 140.2 120.804 129.767Z" fill="black"/>
<path d="M20.2065 398.211C27.0018 414.972 39.211 423.983 56.5273 427.144C66.1193 428.895 74.7622 426.626 83.0233 422.71C102.381 413.533 121.396 403.633 140.756 394.459C155.241 387.596 170.467 382.811 186.489 381.024C191.394 380.476 196.34 380.135 201.274 380.047C208.485 379.919 212.55 384.559 212.55 392.51C212.551 399.638 208.321 404.101 201.285 403.974C172.664 403.455 146.067 411.095 120.534 423.451C107.174 429.916 93.9288 436.851 80.0271 441.913C56.4818 450.487 27.4993 439.997 13.1007 420.243C-2.06759 399.433 -3.85173 377.302 6.64559 354.474C15.0664 336.161 29.8891 324.419 49.9655 321.228C60.667 319.527 71.7669 320.15 82.6884 320.109C86.9769 320.093 88.6981 323.111 88.5496 328.672C88.4194 333.548 86.4327 335.765 81.8455 335.988C74.2512 336.358 66.6567 336.761 59.0574 336.982C37.5557 337.606 17.2293 358.286 17.6546 379.458C17.7783 385.617 19.1556 391.751 20.2065 398.211Z" fill="black"/>
</svg>
