<svg width="472" height="472" viewBox="0 0 472 472" fill="none" xmlns="http://www.w3.org/2000/svg">
<path d="M37.3608 369.294C67.2874 360.781 96.0817 350.518 123.829 337.161C150.721 324.216 177.631 311.016 206.514 302.978C223.748 298.183 241.4 294.879 258.892 291.029C263.199 290.082 267.723 290.001 271.934 288.787C274.14 288.151 276.857 286.328 277.688 284.347C284.813 267.364 291.702 250.277 298.386 233.114C308.03 208.348 316.147 183.101 322.036 157.143C327.763 131.899 332.778 106.471 341.881 82.0935C349.014 62.9907 358.476 45.3913 373.369 31.1924C388.573 16.6972 406.8 7.66116 427.38 4.19389C439.501 2.15192 451.938 1.97929 464.236 1.01366C468.153 0.706111 470.577 2.49464 470.976 6.49581C471.512 11.888 469.856 14.4782 465.242 14.9601C457.392 15.78 449.489 16.1137 441.654 17.0403C419.851 19.6187 400.148 26.8546 383.94 42.4598C367.319 58.4629 357.744 78.2894 352.022 100.116C344.674 128.145 338.628 156.528 330.764 184.403C324.934 205.067 317.552 225.334 310.019 245.463C303.683 262.392 295.983 278.806 289.211 295.58C287.176 300.621 283.56 302.366 278.756 302.997C245.641 307.352 213.235 314.711 182.305 327.464C165.862 334.244 149.916 342.232 133.763 349.713C107.706 361.782 81.1706 372.588 53.4413 380.252C40.1075 383.938 26.7686 387.605 13.4143 391.215C11.6962 391.68 9.87597 391.792 8.09445 391.99C4.47017 392.394 1.72872 390.91 1.12045 387.32C0.435053 383.275 0.698311 379.311 5.90833 377.936C16.2918 375.195 26.6394 372.318 37.3608 369.294Z" fill="black"/>
<path d="M403.289 334.307C392.37 351.594 381.557 368.508 370.985 385.571C362.612 399.085 350.073 406.234 335.215 410.426C309.201 417.767 283.425 426.007 257.25 432.704C235.32 438.315 213.042 442.677 190.776 446.829C169.737 450.752 148.532 453.805 127.365 457.006C110.702 459.525 94.0062 461.859 77.285 463.958C61.9831 465.878 46.6343 467.434 31.2933 469.028C23.6037 469.827 15.8811 470.303 8.18191 471.018C3.66504 471.437 1.07046 469.085 0.707695 465.013C0.362236 461.134 1.60533 457.572 6.4638 456.975C11.4912 456.356 16.5009 455.586 21.5339 455.021C39.6331 452.988 57.7674 451.238 75.8343 448.954C94.6627 446.573 113.488 444.057 132.208 440.957C162.794 435.893 193.451 431.064 223.78 424.711C249.391 419.346 274.65 412.225 299.924 405.361C312.946 401.825 325.602 396.959 338.536 393.071C346.505 390.676 352.633 385.731 356.822 379.124C371.496 355.98 386.109 332.77 399.793 309.035C410.168 291.04 419.687 272.487 428.506 253.675C438.33 232.716 447.004 211.214 456.021 189.883C458.975 182.895 465.643 180.743 469.486 186.299C470.96 188.43 471.194 192.485 470.263 195.029C466.18 206.181 461.906 217.307 456.887 228.062C445.542 252.374 433.929 276.566 421.994 300.593C416.338 311.981 409.696 322.879 403.289 334.307Z" fill="black"/>
<path d="M348.29 356.315C343.022 372.611 329.965 378.271 315.392 382.002C313.351 382.524 311.375 383.306 309.333 383.824C304.936 384.939 299.83 382.305 299.023 378.586C298.004 373.892 300.551 370.374 305.676 368.936C311.147 367.4 316.868 366.256 321.88 363.742C325.731 361.811 329.387 358.518 331.801 354.935C334.949 350.263 336.743 344.686 339.2 339.536C340.896 335.983 343.246 332.839 347.617 333.12C351.801 333.389 354.875 335.93 354.79 340.26C354.735 343.024 353.199 345.805 352.102 348.487C351.053 351.053 349.713 353.5 348.29 356.315Z" fill="black"/>
<path d="M374 159.5C374 180.211 357.211 197 336.5 197C315.789 197 299 180.211 299 159.5C299 138.789 315.789 122 336.5 122C357.211 122 374 138.789 374 159.5Z" fill="#FE0000"/>
</svg>
