<svg width="425" height="379" viewBox="0 0 425 379" fill="none" xmlns="http://www.w3.org/2000/svg">
<path d="M363.37 346.611C354.792 352.015 346.792 357.788 338.104 362.205C321.53 370.63 303.94 376.562 285.23 377.239C260.981 378.117 236.679 378.701 212.436 378.059C200.9 377.753 191.875 368.261 191.36 354.8C190.938 343.759 196.838 333.802 209.431 330.48C212.563 329.654 215.926 329.428 219.186 329.409C236.684 329.309 254.189 329.672 271.679 329.286C296.066 328.748 317.451 320.164 336.415 304.743C348.137 295.211 357.188 283.678 363.996 270.504C373.326 252.452 376.995 232.89 375.01 212.719C372.851 190.797 364.71 171.15 350.435 154.002C333.182 133.279 311.014 121.52 284.941 116.491C280.438 115.622 275.75 115.412 271.147 115.407C211.32 115.338 151.494 115.362 91.6672 115.362C89.6738 115.362 87.6804 115.362 84.6129 115.362C88.7354 121.609 92.4584 127.218 96.1458 132.85C98.8285 136.947 101.804 140.899 104.055 145.224C110.266 157.158 105.998 169.084 97.8994 175.848C87.6288 184.427 72.1281 183.488 63.4676 173.976C54.307 163.915 45.8233 153.228 37.229 142.664C28.3528 131.753 19.6996 120.661 10.9481 109.648C8.09518 106.058 5.01596 102.623 2.43625 98.8463C-1.93958 92.4403 -0.313717 85.8209 6.45287 77.4987C19.6083 61.3189 32.508 44.9313 45.5172 28.6325C51.0486 21.7025 56.0763 14.2755 62.2612 7.98729C69.2244 0.907735 78.4629 -1.55493 88.1199 0.957341C98.0237 3.53381 104.265 10.0516 106.288 20.5823C107.688 27.8683 105.968 34.0721 102.039 39.99C96.4361 48.4281 90.8338 56.8665 84.5299 66.3613C87.1274 66.3613 88.97 66.3613 90.8126 66.3613C152.139 66.3612 213.467 66.1418 274.791 66.4865C294.789 66.599 313.923 71.7866 332.231 79.8868C348.88 87.2527 363.944 97.168 376.866 109.852C387.196 119.992 396.193 131.373 403.575 144.036C413.671 161.353 420.23 179.956 422.893 199.582C425.829 221.226 424.866 242.89 418.853 264.229C412.909 285.323 403.309 304.52 389.437 321.261C381.825 330.448 372.3 338.051 363.37 346.611Z" fill="#00B098"/>
</svg>
