<svg width="24" height="24" viewBox="0 0 24 24" fill="none" xmlns="http://www.w3.org/2000/svg">
<g clip-path="url(#clip0_298_21)">
<path d="M24 22C24 23.103 23.103 24 22 24H15.854C14.116 24 12.456 23.236 11.298 21.904C8.14202 18.269 5.31802 15.864 3.74102 15.469C1.39802 14.884 -0.000976562 13.29 -0.000976562 11.206C-0.000976562 9.43104 1.02702 8.58004 1.85302 7.89604C2.34102 7.49204 2.80202 7.11004 3.09502 6.54104L5.98802 0.554036C6.22802 0.0560365 6.82502 -0.150964 7.32302 0.0880365C7.82002 0.328036 8.02902 0.926036 7.78802 1.42304L4.88402 7.43504C4.39202 8.39104 3.69102 8.97204 3.12702 9.43904C2.34502 10.086 1.99902 10.407 1.99902 11.208C1.99902 12.668 3.21002 13.277 4.22602 13.531C6.94902 14.211 10.771 18.248 12.808 20.593C13.585 21.488 14.696 22 15.854 22H19.939C19.015 22 18.167 21.598 17.613 20.896C16.015 18.873 14.96 16.724 14.029 14.829C13.416 13.581 12.838 12.402 12.173 11.388C11.384 10.182 11.264 8.71504 11.853 7.46404L15.095 0.574036C15.33 0.0730365 15.927 -0.138964 16.426 0.0950365C16.926 0.330036 17.14 0.926036 16.905 1.42604L13.663 8.31504C13.372 8.93204 13.441 9.67104 13.848 10.292C14.579 11.411 15.184 12.643 15.825 13.947C16.756 15.842 17.718 17.801 19.184 19.657C19.354 19.873 19.637 20.001 19.94 20.001H22C23.103 20.001 24 20.897 24 22Z" fill="#00B098"/>
</g>
<defs>
<clipPath id="clip0_298_21">
<rect width="24" height="24" fill="white"/>
</clipPath>
</defs>
</svg>
