<svg width="471" height="471" viewBox="0 0 471 471" fill="none" xmlns="http://www.w3.org/2000/svg">
<g clip-path="url(#clip0_288_13)">
<path d="M418.403 467.352C404.157 470.646 390.017 470.802 376.042 469.794C364.217 468.941 352.516 466.157 340.807 463.976C331.214 462.19 321.831 462.491 312.713 466.044C299.362 471.248 285.413 469.685 271.605 470.118C264.951 470.326 258.869 468.838 253.257 465.604C242.859 459.612 236.707 450.602 235.063 438.619C232.844 422.446 238.392 407.899 243.843 393.13C246.912 384.815 248.581 375.873 249.96 367.07C252.852 348.599 248.578 330.397 247.188 312.073C246.006 296.484 243.36 281.229 237.944 266.633C233.528 254.734 227.3 243.487 223.172 231.505C219.537 220.958 217.028 209.899 215.279 198.867C213.89 190.102 213.487 180.955 214.281 172.124C215.492 158.649 218.103 145.298 220.151 131.9C220.382 130.384 220.817 128.899 221.327 126.652C211.891 129.979 203.483 133.502 194.767 135.915C167.337 143.51 139.953 151.38 112.244 157.819C87.8104 163.497 62.9698 167.43 38.2963 172.067C28.9973 173.815 19.6829 175.501 10.3381 176.979C2.93062 178.15 -0.383979 175.154 0.0352376 168.418C0.313397 163.948 3.55327 162.708 6.92137 162.106C24.4284 158.977 42.0216 156.314 59.491 152.995C79.0135 149.286 98.6141 145.751 117.859 140.87C145.43 133.877 172.797 126.028 200.068 117.928C210.166 114.928 219.769 110.243 229.552 106.213C233.613 104.54 237.862 103.805 241.157 106.896C244.283 109.828 243.021 113.534 241.505 117.365C235.669 132.111 231.646 147.294 229.931 163.192C227.152 188.966 230.51 213.488 241.994 236.871C250.279 253.741 256.686 271.353 259.861 289.912C261.575 299.924 262.136 310.14 263.061 320.278C264.152 332.238 265.852 344.211 265.878 356.181C265.914 372.449 262.356 388.165 256.499 403.497C253.046 412.535 250.271 422.189 249.414 431.764C248.487 442.124 255.882 453.104 268.883 455.091C284.381 457.459 299.132 454.339 313.84 450.023C325.681 446.548 337.654 447.235 349.42 450.243C366.246 454.544 383.302 455.776 400.548 454.959C404.434 454.775 408.37 454.032 412.122 452.976C420.132 450.721 427.641 453.457 435.356 454.602C439.259 455.182 443.494 455.64 447.232 454.73C452.952 453.336 454.38 448.167 455.272 442.497C447.412 440.982 439.743 439.722 432.188 437.969C427.369 436.852 422.43 435.583 418.043 433.386C398.188 423.442 378.383 413.38 358.804 402.905C339.372 392.508 326.498 376.671 325.294 354.194C323.944 328.984 324.306 303.678 324.134 278.413C324.083 270.814 325.015 263.211 325.024 255.609C325.102 193.277 325.262 130.944 324.973 68.6135C324.857 43.5808 308.002 21.927 282.946 16.1321C277.082 14.7761 270.924 14.1282 264.9 14.1193C179.069 13.9933 93.2372 14.0146 7.40586 14.1023C3.99123 14.1057 0.925613 13.1353 0.400384 10.0769C-0.0650528 7.36665 1.18974 4.16456 2.36393 1.47606C2.77298 0.539467 5.21065 0.091674 6.72231 0.090614C97.2203 0.027122 187.719 -0.125927 278.216 0.208134C291.579 0.257464 303.664 6.09765 313.972 14.5684C326.543 24.8983 335.296 37.9034 338.592 54.1079C339.373 57.9488 340.002 61.9038 340.007 65.8072C340.092 131.972 340.161 198.138 340.022 264.303C339.968 290.571 339.441 316.839 339.052 343.105C338.841 357.351 343.157 370.101 353.088 380.184C357.779 384.947 364.136 388.28 370.15 391.488C388.735 401.404 407.39 411.21 426.307 420.467C431.573 423.043 437.793 423.823 443.665 424.964C450.396 426.272 457.301 426.732 463.986 428.215C467.564 429.008 470.197 431.322 470.165 435.943C470.104 444.572 469.822 452.888 464.468 460.379C460.091 466.503 454.125 469.81 447.13 469.82C438.994 469.832 430.856 468.23 422.717 467.353C421.412 467.213 420.093 467.201 418.403 467.352Z" fill="#00B098"/>
<path d="M283.655 45.1359C285.665 50.7364 287.754 55.985 288.978 61.4283C290.966 70.2747 292.552 79.1885 300.561 84.9878C303.059 86.796 305.73 88.3628 308.289 90.0881C312.731 93.0829 313.976 96.3566 312.083 99.9175C309.828 104.159 305.695 105.48 300.734 103.201C286.045 96.4518 277.946 84.6936 275.067 69.0272C274.126 63.9083 272.835 58.8427 272.127 53.6946C270.878 44.6178 275.958 42.3633 283.655 45.1359Z" fill="#00B098"/>
<path d="M288.072 389.664C289.432 392.26 290.557 394.636 292.196 396.578C295.271 400.219 295.733 404.449 293.001 407.579C290.319 410.652 286.712 410.648 282.43 408.166C273.281 402.864 270.488 387.78 274.856 377.697C275.377 376.495 275.904 375.293 276.504 374.13C279.004 369.294 282.97 367.752 287.443 369.844C291.438 371.714 292.243 375.553 290.192 380.795C289.143 383.479 288.756 386.421 288.072 389.664Z" fill="#00B098"/>
</g>
<defs>
<clipPath id="clip0_288_13">
<rect width="471" height="471" fill="white"/>
</clipPath>
</defs>
</svg>
