<svg width="512" height="512" viewBox="0 0 512 512" fill="none" xmlns="http://www.w3.org/2000/svg">
<g clip-path="url(#clip0_298_25)">
<path d="M256 0C114.837 0 0 114.837 0 256C0 397.163 114.837 512 256 512C397.163 512 512 397.163 512 256C512 114.837 397.163 0 256 0ZM256 469.333C138.368 469.333 42.6667 373.632 42.6667 256C42.6667 138.368 138.368 42.6667 256 42.6667C373.632 42.6667 469.333 138.368 469.333 256C469.333 373.632 373.632 469.333 256 469.333ZM376.875 176.085C385.664 183.936 386.432 197.419 378.581 206.208C374.379 210.923 368.533 213.333 362.667 213.333C357.611 213.333 352.533 211.541 348.459 207.915C348.075 207.573 305.728 170.667 256 170.667C206.272 170.667 163.925 207.573 163.499 207.957C154.688 215.765 141.227 214.955 133.397 206.165C125.589 197.376 126.336 183.936 135.125 176.107C137.323 174.144 189.717 128.021 256 128.021C322.283 128.021 374.677 174.144 376.875 176.107V176.085ZM362.667 309.333C362.667 326.997 348.331 341.333 330.667 341.333C313.003 341.333 298.667 326.997 298.667 309.333C298.667 291.669 313.003 277.333 330.667 277.333C348.331 277.333 362.667 291.669 362.667 309.333ZM213.333 309.333C213.333 326.997 198.997 341.333 181.333 341.333C163.669 341.333 149.333 326.997 149.333 309.333C149.333 291.669 163.669 277.333 181.333 277.333C198.997 277.333 213.333 291.669 213.333 309.333Z" fill="#00B098"/>
</g>
<defs>
<clipPath id="clip0_298_25">
<rect width="512" height="512" fill="white"/>
</clipPath>
</defs>
</svg>
