<svg width="200" height="200" viewBox="0 0 200 200" fill="none" xmlns="http://www.w3.org/2000/svg">
<path d="M166.667 108.333H156.483L165.233 99.5833C171.533 93.2917 175 84.9167 175 76.0083C175 67.1 171.533 58.7333 165.233 52.4417L147.558 34.7667C134.967 22.1667 113.008 22.175 100.417 34.7667L91.6667 43.5167V33.3333C91.6667 14.95 76.7167 0 58.3333 0H33.3333C14.95 0 0 14.95 0 33.3333V154.167C0 179.442 20.5583 200 45.8333 200H166.667C185.05 200 200 185.05 200 166.667V141.667C200 123.283 185.05 108.333 166.667 108.333ZM112.2 46.55C118.492 40.2583 129.467 40.25 135.775 46.55L153.45 64.225C156.6 67.375 158.333 71.5583 158.333 76.0083C158.333 80.4583 156.6 84.65 153.45 87.8L91.6667 149.583V67.0833L112.2 46.55ZM16.6667 66.6667H75V100H16.6667V66.6667ZM33.3333 16.6667H58.3333C67.525 16.6667 75 24.1417 75 33.3333V50H16.6667V33.3333C16.6667 24.1417 24.1417 16.6667 33.3333 16.6667ZM16.6667 154.167V116.667H75V154.167C75 170.25 61.9167 183.333 45.8333 183.333C29.75 183.333 16.6667 170.25 16.6667 154.167ZM183.333 166.667C183.333 175.858 175.858 183.333 166.667 183.333H81.4833L139.817 125H166.667C175.858 125 183.333 132.475 183.333 141.667V166.667ZM45.8333 166.667C38.9333 166.667 33.3333 161.067 33.3333 154.167C33.3333 147.267 38.9333 141.667 45.8333 141.667C52.7333 141.667 58.3333 147.267 58.3333 154.167C58.3333 161.067 52.7333 166.667 45.8333 166.667Z" fill="#00B098"/>
</svg>
