<svg width="499" height="482" viewBox="0 0 499 482" fill="none" xmlns="http://www.w3.org/2000/svg">
<path d="M458.115 469.176C452.401 469.506 447.018 470.688 441.897 469.98C429.797 468.305 417.878 465.286 405.768 463.736C400.789 463.099 395.501 464.811 390.362 465.512C381.613 466.706 372.903 468.487 364.116 469.04C351.047 469.863 337.871 470.728 324.84 469.938C308.679 468.959 292.54 466.803 276.539 464.238C261.594 461.841 246.933 457.653 231.981 455.326C213.677 452.478 195.72 455.417 178.34 461.541C161.624 467.432 144.508 470.492 126.76 470.202C115.097 470.01 103.405 470.637 91.7679 470.061C71.7318 469.069 55.5286 460.283 42.8376 444.688C35.1152 435.197 29.7047 424.525 28.5162 412.534C27.5286 402.569 28.5696 392.37 29.0929 382.295C29.7942 368.793 34.1362 356.098 38.402 343.414C42.8041 330.324 48.1691 317.46 51.3132 304.074C54.4032 290.919 55.7364 277.275 56.8879 263.765C57.7372 253.801 57.5262 243.679 56.9193 233.679C56.3352 224.055 54.6428 214.497 53.4248 204.911C52.3101 196.139 51.2319 187.362 50.0412 178.6C48.4996 167.256 46.8005 155.934 45.2862 144.587C44.1157 135.815 43.1899 127.011 42.0387 118.236C40.5278 106.72 38.8609 95.2246 37.3398 83.7098C36.1813 74.9389 35.1577 66.1502 34.0513 57.3723C32.9657 48.7607 31.7959 40.1593 30.7656 31.5412C29.7926 23.4016 28.9439 15.247 28.059 7.09707C27.6592 3.41538 29.2954 0.850204 32.8828 0.259151C36.7772 -0.382487 40.9806 -0.154162 41.9656 4.74264C43.3156 11.4536 44.0968 18.2817 45.0451 25.0703C46.6519 36.574 48.2374 48.081 49.758 59.5964C50.9162 68.367 51.9166 77.1585 53.0652 85.9305C54.5734 97.4495 56.1834 108.955 57.7019 120.473C58.858 129.242 59.9027 138.025 61.0647 146.794C62.2466 155.712 63.5603 164.613 64.7261 173.534C65.8937 182.469 66.9211 191.423 68.0627 200.361C69.2653 209.778 71.0317 219.154 71.6357 228.606C72.3269 239.424 72.1461 250.307 72.0742 261.16C72.0371 266.761 71.9218 272.448 70.9586 277.94C68.4278 292.374 66.2317 306.947 62.3827 321.05C57.596 338.588 50.3621 355.477 45.9118 373.083C42.0895 388.205 40.4388 403.867 45.967 419.359C53.0547 439.22 72.1275 454.416 93.7951 455.175C101.897 455.458 110.01 456.307 118.094 456.071C137.455 455.504 156.479 453.143 175.087 446.935C185.651 443.411 196.982 442.024 208.059 440.234C226.828 437.201 244.72 442.607 262.797 446.425C273.963 448.783 285.255 450.777 296.59 452.051C312.264 453.812 328.028 455.681 343.759 455.732C356.452 455.773 369.171 453.331 381.843 451.714C388.797 450.827 395.66 448.573 402.598 448.413C408.509 448.276 414.448 450.393 420.412 451.26C430.117 452.67 439.838 454.814 449.578 454.967C468.87 455.269 479.246 445.289 482.067 425.52C482.343 423.582 482.853 421.67 483.017 419.726C483.183 417.758 483.054 415.765 483.054 413.397C470.642 411.295 458.458 409.206 446.266 407.174C435.796 405.43 425.089 404.571 414.922 401.749C408.344 399.924 402.519 395.325 396.413 391.87C386.895 386.484 377.596 380.684 367.899 375.647C345.678 364.104 323.26 352.943 300.948 341.574C289.052 335.513 276.492 330.411 265.487 323.009C239.337 305.42 223.026 280.608 217.193 249.545C215.141 238.618 214.377 227.335 214.21 216.197C213.953 199.105 214.718 181.997 215.056 164.897C215.384 148.296 215.726 131.696 216.054 115.095C216.392 97.9943 216.718 80.8934 217.056 63.7927C217.385 47.1921 217.676 30.5904 218.094 13.992C218.176 10.7229 218.289 7.32209 219.23 4.23887C220.561 -0.12736 224.502 -0.31494 228.26 0.223024C232.265 0.796367 233.74 4.22202 233.753 7.39707C233.804 19.4884 233.283 31.5811 233.065 43.6749C232.692 64.4412 232.412 85.2092 232.045 105.976C231.752 122.577 231.383 139.177 231.056 155.777C230.716 173.045 231.263 190.386 229.812 207.559C228.247 226.074 229.823 243.886 236.031 261.318C242.352 279.068 253.265 293.435 267.668 305.551C280.954 316.728 296.979 322.607 312.151 330.187C329.115 338.663 346.233 346.848 362.984 355.726C381.155 365.357 398.808 375.968 417.059 385.436C422.485 388.251 429.106 388.958 435.278 390.098C450.36 392.884 465.5 395.356 480.616 397.959C484.622 398.649 488.629 399.337 492.63 400.055C496.48 400.746 498.061 403.01 498.111 406.975C498.274 420.029 497.653 432.812 492.236 445.112C487.809 455.161 480.905 462.208 470.808 466.057C466.9 467.547 462.657 468.157 458.115 469.176Z" fill="black"/>
<path d="M121.779 323.372C124.997 325.952 127.932 328.306 130.925 330.584C134.767 333.507 136.329 338.183 134.414 341.251C131.704 345.593 127.915 346.625 122.937 343.49C102.29 330.485 93.1728 310.007 102.474 286.538C104.845 280.554 108.6 275.088 111.993 269.552C114.126 266.072 119.266 264.954 122.217 266.888C126.115 269.442 126.904 274.019 124.624 278.144C121.265 284.22 117.504 290.215 115.213 296.704C112.041 305.687 114.401 314.106 120.645 321.362C121.058 321.841 121.236 322.523 121.779 323.372Z" fill="black"/>
<path d="M75 444.5C75 465.211 58.2107 482 37.5 482C16.7893 482 0 465.211 0 444.5C0 423.789 16.7893 407 37.5 407C58.2107 407 75 423.789 75 444.5Z" fill="#FE0000"/>
</svg>
