<svg width="192" height="200" viewBox="0 0 192 200" fill="none" xmlns="http://www.w3.org/2000/svg">
<path d="M177.814 92.3155L188.766 83.8328C190.962 82.1329 192.172 79.4497 191.98 76.6832C191.788 73.9168 190.235 71.4169 187.815 70.0337L73.443 4.26309C65.5961 -0.119955 56.5305 -1.16988 47.874 1.32995C39.2341 3.82145 32.1052 9.53773 27.8145 17.4289L20.769 30.3613C12.1375 46.1936 17.8891 66.3339 33.5076 75.2083L80.7388 102.698L70.6465 132.913C67.2323 143.137 57.6825 150.003 46.889 150.003H16.6954V125.005C16.6954 120.405 12.9556 116.672 8.34769 116.672C3.73976 116.672 0 120.405 0 125.005V191.667C0 196.267 3.73976 200 8.34769 200C12.9556 200 16.6954 196.267 16.6954 191.667V166.669H46.889C64.8782 166.669 80.7973 155.22 86.4821 138.187L95.4725 111.281L119.497 125.263C124.606 128.163 130.249 129.638 135.959 129.638C139.022 129.638 142.111 129.213 145.15 128.355C148.13 127.505 150.935 126.28 153.506 124.713L166.795 132.071C171.729 134.804 177.948 132.996 180.652 128.055L187.698 115.164C190.377 110.264 188.591 104.131 183.699 101.423L174.208 96.1736C175.193 94.707 176.403 93.4238 177.806 92.3322L177.814 92.3155ZM140.583 112.314C136.234 113.547 131.685 112.997 127.837 110.814L41.8386 60.7676C33.9918 56.3096 31.1202 46.2353 35.4276 38.3191L42.473 25.3867C44.6184 21.4369 48.1829 18.5871 52.507 17.3372C54.0596 16.8956 55.629 16.6706 57.19 16.6706C59.9865 16.6706 62.7412 17.3705 65.1954 18.7538L168.707 78.2748L167.58 79.1497C163.924 81.9745 160.952 85.466 158.731 89.524L150.667 104.273C148.505 108.231 144.924 111.081 140.583 112.314Z" fill="#00B098"/>
</svg>
