<?xml version="1.0" encoding="UTF-8"?>
<svg xmlns="http://www.w3.org/2000/svg" id="Layer_1" data-name="Layer 1" viewBox="0 0 24 24">
  <path d="M22.294,9.174c-.141-2.649-1.967-4.711-4.377-5.093,.148-.336,.228-.711,.228-1.097,0-.705-.266-1.375-.729-1.837-.195-.195-.512-.195-.707,0-.195,.195-.195,.513,0,.707,.276,.276,.435,.688,.435,1.13,0,.398-.129,.771-.355,1.043-2.718,.162-4.879,2.42-4.879,5.174,0,.318,.005,.642,.01,.964,.037,2.518-.029,4.19-1.237,4.501-1.31,.335-3.026-1.084-4.407-2.225-1.245-1.027-2.23-1.838-3.093-1.705-1.136,.178-1.684,1.312-1.466,3.033,.412,3.259,3.913,9.232,10.221,9.232,.323,0,.654-.016,.992-.048,9.07-.873,9.57-9.927,9.364-13.779Zm-5.191-4.157c1.7,0,3.14,1.022,3.805,2.548-.006,.005-.012,.01-.018,.016-2.11,2.106-5.543,2.105-7.654,.001,.635-1.506,2.129-2.566,3.866-2.566Zm-4.268,16.94c-6.273,.597-9.733-5.214-10.125-8.313-.053-.419-.164-1.796,.628-1.92,.015-.003,.031-.004,.048-.004,.447,0,1.446,.825,2.254,1.492,1.638,1.353,3.5,2.885,5.293,2.422,2.061-.53,2.023-3.049,1.987-5.484-.004-.318-.009-.636-.009-.949,0-.181,.012-.359,.034-.533,1.187,.995,2.653,1.493,4.119,1.493,1.484,0,2.969-.51,4.164-1.531,.034,.194,.057,.394,.068,.597,.191,3.565-.252,11.941-8.46,12.73Z"/>
</svg>
