<svg width="512" height="512" viewBox="0 0 512 512" fill="none" xmlns="http://www.w3.org/2000/svg">
<path d="M0 354.469C1.54714 351.567 3.3098 349.244 4.60466 346.684C10.7008 334.63 20.8661 327.95 33.9999 324.303C33.9999 322.461 33.9999 320.49 33.9999 318.519C34 295.524 34.5964 272.507 33.7971 249.539C33.2347 233.379 45.0882 220.912 62.763 220.947C129.917 221.078 197.071 220.999 264.225 220.999C275.056 220.999 285.899 220.694 296.716 221.084C308.349 221.505 318.099 225.751 322.617 237.446C324.066 241.199 324.861 245.438 324.898 249.465C325.109 272.458 325.001 295.455 325.001 318.451C325.001 320.433 325.001 322.415 325.001 324.516C338.612 328.275 349.006 335.901 354.591 348.584C357.115 354.316 358.764 360.938 358.813 367.173C359.164 411.661 359.074 456.155 358.86 500.645C358.843 504.19 356.842 507.725 355.882 511.632C340.979 512 325.958 512 310.587 511.635C309.158 507.753 307.38 504.282 307.146 500.71C306.662 493.319 307 485.874 307 478.458C221.587 478.458 136.969 478.458 52.4037 478.458C50.7693 489.897 54.4683 501.413 49 512C32.7013 512 16.4025 512 2.98023e-06 512C2.98023e-06 459.646 3e-06 407.292 0 354.469ZM97.5 342.001C79.0014 342.001 60.5027 341.977 42.0041 342.009C29.0147 342.032 18.0352 353.071 18.0071 366.101C17.982 377.767 18.0035 389.432 18.0043 401.098C18.0045 403.541 18.0043 405.983 18.0043 408.686C125.91 408.686 233.135 408.686 340.745 408.686C340.839 406.609 340.986 404.823 340.989 403.038C341.01 391.538 340.81 380.035 341.048 368.541C341.345 354.198 329.026 341.814 314.484 341.871C242.49 342.156 170.495 342.001 97.5 342.001ZM318.5 427C218.44 427 118.38 427 18.4547 427C18.4547 449.849 18.4547 471.747 18.4547 493.565C23.8143 493.565 28.7121 493.565 33.5543 493.565C33.7407 492.662 33.9236 492.182 33.9266 491.701C33.9657 485.202 33.9894 478.703 33.9979 472.204C34.0098 463.046 36.9626 460.006 46.0308 460.006C135.022 459.996 224.013 459.996 313.005 460.007C321.318 460.008 324.977 463.758 324.997 472.181C325.013 479.286 325 486.39 325 493.647C330.641 493.647 335.538 493.647 340.672 493.647C340.672 471.403 340.672 449.507 340.672 427C333.404 427 326.452 427 318.5 427ZM192.089 274.716C196.916 268.254 203.335 264.224 211.388 264.098C229.708 263.81 248.038 263.851 266.36 264.062C278.051 264.198 289.022 274.087 289.906 285.58C290.732 296.315 290.668 307.119 291.005 317.892C291.065 319.815 291.171 321.736 291.252 323.579C296.794 323.579 301.692 323.579 307 323.579C307 321.189 307 319.213 307 317.237C307 295.914 307.001 274.591 307 253.268C306.999 241.86 304.112 239.002 292.561 239.001C216.764 238.999 140.967 239 65.1703 239.001C63.8377 239.001 62.4929 238.903 61.1746 239.044C56.4147 239.555 51.7295 242.934 51.8373 249.05C52.2454 272.198 51.9963 295.358 52.0139 318.514C52.0151 320.135 52.186 321.756 52.2869 323.536C57.6421 323.536 62.6568 323.536 68.0005 323.536C68.0005 311.926 67.9881 300.777 68.0036 289.628C68.0233 275.528 79.2532 264.093 93.3319 264.022C110.823 263.934 128.315 263.927 145.806 264.026C159.411 264.102 170.971 275.86 170.996 289.441C171.015 299.103 170.985 308.765 171.014 318.427C171.02 320.181 171.203 321.934 171.298 323.566C176.82 323.566 181.718 323.566 187 323.566C187 312.33 186.494 301.488 187.219 290.73C187.569 285.544 190.239 280.516 192.089 274.716ZM238.5 324C249.895 324 261.291 324 272.974 324C272.974 312.765 273.262 302.449 272.876 292.157C272.602 284.839 269.034 282.007 261.635 282.003C246.158 281.993 230.681 281.979 215.203 282.012C209.416 282.024 205.502 284.642 205.253 290.164C204.753 301.232 205.104 312.338 205.104 324C216.285 324 226.893 324 238.5 324ZM104.521 281.999C101.195 282.004 97.8611 281.868 94.5442 282.047C89.3566 282.328 86.0515 285.826 86.0159 290.957C85.9639 298.44 86.0014 305.925 86.001 313.409C86.0007 316.819 86.0009 320.229 86.0009 323.625C108.755 323.625 130.62 323.625 152.999 323.625C152.999 312.982 153.007 302.706 152.996 292.43C152.989 285.236 149.769 282.028 142.437 282.009C130.13 281.977 117.822 282 104.521 281.999Z" fill="#00B098"/>
<path d="M262.535 0C263.89 0.962185 264.597 2.3205 265.696 2.82667C280.365 9.57941 295.065 16.2641 309.804 22.8615C324.24 29.3228 338.743 35.6319 353.19 42.0666C378.017 53.1242 402.838 64.1953 427.634 75.3226C445.075 83.1493 462.453 91.1168 479.893 98.9448C487.705 102.451 495.658 105.647 503.429 109.239C506.235 110.536 508.696 112.578 511.658 114.14C512 149.688 512 185.375 512 221.531C506.216 222 500.431 222 493.996 222C493.996 219.475 493.996 217.531 493.996 215.588C493.996 187.103 493.938 158.618 494.069 130.134C494.085 126.715 493.198 124.794 489.925 123.352C464.692 112.234 439.526 100.961 414.365 89.6793C397.18 81.9741 380.054 74.1349 362.868 66.4331C335.446 54.1447 307.989 41.9324 280.56 29.6596C274.983 27.1641 269.37 24.7212 263.941 21.9281C258.958 19.3644 254.359 18.8964 249.03 21.3792C227.651 31.3398 206.158 41.0585 184.632 50.6984C157.842 62.6956 130.951 74.4693 104.154 86.4496C86.0813 94.5291 68.1053 102.824 50.0641 110.973C41.0524 115.044 32.0708 119.201 22.916 122.926C18.8408 124.584 17.8725 127.003 17.9021 131.196C18.0995 159.18 18.0044 187.166 18.0043 215.151C18.0043 217.135 18.0043 219.12 18.0043 222C12.0999 222 6.51797 222 0.46803 222C1.04308e-06 186.312 1e-06 150.625 0 114.469C14.5607 107.235 29.0599 100.333 43.6959 93.7354C67.6081 82.9556 91.6248 72.4078 115.568 61.6965C133.2 53.8088 150.771 45.786 168.393 37.8777C192.934 26.8644 217.509 15.9258 242.036 4.88103C244.547 3.75048 246.83 2.11388 249.109 0.356055C253.357 3.01003e-06 257.714 3e-06 262.535 0Z" fill="#00B098"/>
<path d="M512 460.531C506.215 461 500.43 461 494.059 461C494.059 443.844 494.059 427.28 494.059 410.363C460.243 410.363 427.028 410.363 393.209 410.363C393.209 427.003 393.209 443.567 393.209 460.562C387.059 460.562 381.495 460.562 375.3 460.562C375.206 458.944 375.015 457.192 375.015 455.44C374.998 415.299 374.994 375.159 375.007 335.018C375.01 326.342 377.321 324.004 385.79 324.002C424.265 323.997 462.74 323.92 501.214 324.141C504.572 324.16 507.918 326.158 511.635 327.119C512 371.354 512 415.708 512 460.531ZM489.278 342.003C457.367 342.003 425.455 342.003 393.326 342.003C393.326 358.942 393.326 375.164 393.326 391.542C426.985 391.542 460.315 391.542 493.976 391.542C493.976 375.781 493.933 360.474 494.015 345.168C494.03 342.289 492.488 341.859 489.278 342.003Z" fill="#00B098"/>
<path d="M483.933 245.114C484.825 248.014 485.722 250.497 486.454 253.027C488.276 259.322 484.31 264.852 477.734 264.962C469.766 265.096 461.794 264.994 453.415 264.994C453.415 273.323 453.415 281.219 453.415 289.73C458.602 289.73 463.841 289.73 469.538 289.73C469.538 296.01 469.538 301.69 469.538 307.69C452.467 307.69 435.576 307.69 418.343 307.69C418.343 301.859 418.343 296.298 418.343 290.123C423.751 290.123 428.992 290.123 434.61 290.123C434.61 281.626 434.61 273.73 434.61 264.999C427.163 264.999 419.712 264.589 412.325 265.1C402.503 265.779 398.937 259.839 401.815 250.699C406.717 235.13 411.905 219.651 417.087 204.173C419.369 197.359 421.496 196.006 428.808 196.002C438.969 195.996 449.13 195.993 459.291 196.003C465.733 196.009 467.925 197.625 470.08 203.979C474.683 217.556 479.269 231.139 483.933 245.114ZM448.268 214.001C444.605 214.002 440.931 214.176 437.282 213.951C434.062 213.753 432.658 214.971 431.788 218.125C430.083 224.31 427.81 230.338 425.788 236.436C424.681 239.777 423.607 243.129 422.433 246.736C436.972 246.736 450.729 246.736 464.993 246.736C461.867 237.135 458.719 227.962 455.939 218.679C454.841 215.016 452.981 213.353 448.268 214.001Z" fill="#00B098"/>
<path d="M238.132 166.029C256.67 173.84 272.874 170.367 286.615 156.685C294.074 149.258 297.764 139.687 297.991 128.998C298.05 126.205 298 123.409 298 120.564C302.533 119.658 306.52 118.702 310.561 118.109C313.276 117.71 315.775 117.696 316.053 121.808C317.34 140.851 311.978 157.62 298.338 171.029C276.745 192.254 242.778 193.913 219.442 175.901C200.887 161.58 193.178 142.064 196.374 119.507C200.037 93.6543 216.603 75.169 243.576 69.063C253.455 66.8265 263.298 67.7188 273.029 70.1472C275.468 70.7557 276.66 72.2682 275.603 74.967C274.222 78.4916 272.958 82.0622 271.661 85.6192C270.629 88.4488 268.805 87.8642 266.458 87.2862C251.704 83.6525 238.335 87.0256 227.404 97.2768C205.916 117.429 210.574 152.15 238.132 166.029Z" fill="#00B098"/>
<path d="M300.749 78.7503C303.603 75.7032 306.208 72.9059 308.971 69.938C313.377 74.7147 317.36 79.0337 321.594 83.6238C320.937 84.3453 319.893 85.5906 318.748 86.7362C300.76 104.745 282.762 122.744 264.758 140.737C258.256 147.235 253.749 147.178 247.138 140.652C242.17 135.748 237.137 130.909 232.243 126.149C236.737 121.612 240.878 117.432 245.615 112.651C248.638 116.307 251.695 120.004 255.235 124.285C270.965 108.548 285.732 93.7741 300.749 78.7503Z" fill="#00B098"/>
<path d="M445.994 376.001C439.222 376.001 432.949 376.001 426.342 376.001C426.342 369.872 426.342 364.318 426.342 358.381C437.711 358.381 448.921 358.381 460.568 358.381C460.568 363.945 460.568 369.502 460.568 376.001C455.971 376.001 451.232 376.001 445.994 376.001Z" fill="#00B098"/>
</svg>
