<svg width="511" height="328" viewBox="0 0 511 328" fill="none" xmlns="http://www.w3.org/2000/svg">
<path d="M3.61047e-09 156.467C5.54023 149.236 10.9988 142.404 16.637 135.723C30.0405 119.84 44.389 104.882 59.6907 90.786C70.5644 80.7691 81.7752 71.1725 93.5489 62.2909C102.807 55.3074 112.336 48.6657 122.203 42.4832C142.729 29.6231 164.232 18.855 187.229 11.3225C206.499 5.01132 226.259 1.44179 246.668 0.451591C274.75 -0.910973 301.767 3.50579 328.129 12.5526C349.881 20.0175 370.381 30.171 389.803 42.5595C411.69 56.5192 432.021 72.3726 451.276 89.8034C466.353 103.451 480.302 118.107 493.578 133.408C499.951 140.753 506.727 147.913 511.751 156.775C512 161.357 512 165.714 512 170.535C503.456 183.274 493.558 194.416 483.617 205.555C477.963 211.892 472.08 217.978 466.109 223.997C452.424 237.792 437.844 250.574 422.5 262.491C401.468 278.826 379.121 293.044 355.02 304.443C331.04 315.786 306.084 323.573 279.586 326.538C239.859 330.984 202.097 324.128 165.645 308.344C135.705 295.379 108.638 277.874 83.2714 257.488C66.2544 243.813 50.2084 229.101 35.2946 213.215C23.0495 200.172 11.1652 186.76 0.305166 172.128C-9.83477e-07 166.978 -9.9639e-07 161.956 3.61047e-09 156.467ZM137.752 75.3376C118.167 87.9115 100.095 102.473 83.003 118.181C68.675 131.349 55.4644 145.669 42.7005 160.378C40.614 162.783 40.3232 164.941 42.5534 167.384C48.3708 173.755 53.9627 180.341 59.9454 186.552C80.722 208.12 102.788 228.175 127.437 245.37C148.246 259.886 170.125 272.112 194.032 280.747C219.81 290.058 246.15 294.887 273.58 291.6C298.561 288.607 322.124 280.74 344.558 269.601C371.631 256.157 396.118 238.715 418.809 218.894C436.97 203.028 453.602 185.539 469.54 167.417C471.801 164.846 471.263 162.737 469.226 160.455C463.711 154.274 458.461 147.841 452.721 141.879C436.343 124.868 419.165 108.733 400.46 94.2373C374.579 74.1803 347.008 57.2176 315.924 46.3804C297.818 40.068 279.245 36.0493 260.075 35.4253C242.205 34.8438 224.775 37.9092 207.587 42.7025C192.49 46.9127 178.16 53.0279 164.239 60.051C155.361 64.5297 146.94 69.9136 137.752 75.3376Z" fill="black"/>
<path d="M154.647 152.917C156.81 132.079 164.336 113.935 177.6 98.2964C185.597 88.8673 194.818 80.8131 205.774 74.8961C218.32 68.1202 231.577 64.0312 245.859 62.4822C261.746 60.7591 276.931 62.9254 291.714 68.3857C318.055 78.1154 337.068 95.7935 348.842 121.398C354.984 134.755 358.328 148.794 358.18 163.287C357.911 189.538 349.619 212.911 331.655 232.765C315.225 250.925 294.801 261.375 271.118 265.171C251.783 268.27 232.902 265.293 214.734 257.468C193.105 248.152 176.916 232.913 165.901 212.502C159.451 200.551 155.396 187.555 154.46 173.654C154.001 166.828 153.512 160.13 154.647 152.917ZM204.255 205.25C217.365 221.054 234.093 229.754 254.678 230.611C267.16 231.13 278.694 227.504 289.304 221.228C310.22 208.855 321.482 190.02 322.424 166.065C323.363 142.171 313.088 122.86 293.311 109.292C277.727 98.5999 260.425 94.4901 241.7 99.14C220.465 104.413 205.051 116.699 195.591 136.768C184.765 159.736 188.582 184.966 204.255 205.25Z" fill="black"/>
</svg>
