<?xml version="1.0" encoding="utf-8"?>
<!-- Generator: Adobe Illustrator 14.0.0, SVG Export Plug-In . SVG Version: 6.00 Build 43363)  -->
<!DOCTYPE svg PUBLIC "-//W3C//DTD SVG 1.1//EN" "http://www.w3.org/Graphics/SVG/1.1/DTD/svg11.dtd">
<svg version="1.1" xmlns="http://www.w3.org/2000/svg" xmlns:xlink="http://www.w3.org/1999/xlink" x="0px" y="0px" width="512px"
	 height="512px" viewBox="0 0 512 512" enable-background="new 0 0 512 512" xml:space="preserve">
<g id="Layer_1">
	<path d="M341.845,237.334L341.845,237.334l23.68,189.312h-45.504l0,0h-42.666l0,0h-42.667l0,0h-42.667l0,0h-45.504l23.68-189.312
		l0,0l8.893-72.73l15.961-17.446c11.67-11.775,27.67-19.179,45.313-19.179h31.339c17.643,0,33.621,7.382,45.312,19.179
		l12.556,14.182L341.845,237.334L341.845,237.334z"/>
</g>
<g id="Ebene_8">
	<path d="M146.517,426.958c0,0,2.027-27.998,11.444-91.494c0.843-5.68,14.568-129.777,14.902-131.901
		c4.495-28.589,6.226-38.646,6.226-38.646c12.774-27.104,27.056-32.353,57.16-36.625c9.9-1.405,40,0,40,0
		s30.005-0.355,55.235,33.602l34.04,264.753L146.517,426.958z M332.674,402.812c0,0-20.492-211.835-25.169-219.84
		c-16.32-27.937-37.323-27.643-37.323-27.643s-21.07-1.164-28,0c-21.073,3.54-31.07,7.89-40.013,30.348
		c0,0-1.211,8.334-4.357,32.024c-0.234,1.76-9.842,104.591-10.432,109.297c-6.592,52.614-8.012,75.814-8.012,75.814H332.674z"/>
</g>
<g id="Ebene_7">
	<rect x="192.021" y="425.5" width="42.667" height="86.479"/>
	<rect x="277.355" y="425.5" width="42.666" height="86.479"/>
</g>
<g id="Ebene_4">
	<path d="M183.204,160.589l-12.365,77.383l-68.729,75.269L70.32,284.213L183.204,160.589z M83.875,283.923l18.492,15.611
		l97.124-103.382l-18.576-18.327L83.875,283.923z"/>
	<path d="M441.991,284.213l-31.789,29.027l-68.729-75.269l-12.365-77.383L441.991,284.213z M331.396,177.825l-18.576,18.327
		l97.124,103.382l18.492-15.611L331.396,177.825z"/>
</g>
<g id="Ebene_6">
	<path d="M234.688,512h-42.667v-85.354h42.667V512z M224.5,426.645h-22.75v75.604h22.75V426.645z"/>
	<path d="M320.021,512h-44.25v-85.354h44.25V512z M309.455,426.645h-23.594v75.604h23.594V426.645z"/>
</g>
<g id="Ebene_5">
	<path d="M441.453,284.963l-31.789,29.027l-68.729-75.269l-12.365-77.383L441.453,284.963z"/>
	<path d="M182.454,161.339l-12.365,77.383l-68.729,75.269L69.57,284.963L182.454,161.339z"/>
</g>
<g id="Ebene_3" display="none">
	<path display="inline" d="M202.667,53.336c0-29.462,23.872-53.334,53.333-53.334c29.462,0,53.333,23.872,53.333,53.334
		c0,29.461-23.871,53.333-53.333,53.333C226.539,106.669,202.667,82.797,202.667,53.336z"/>
</g>
<g id="Ebene_2">
	<g id="XMLID_1_">
		<g>
			<path d="M256.027-0.52c29.753,0,53.863,24.096,53.863,53.849s-24.11,53.863-53.863,53.863c-29.754,0-53.849-24.109-53.849-53.863
				S226.273-0.52,256.027-0.52z M292.832,53.329c0-20.352-16.495-36.847-36.847-36.847c-20.352,0-36.847,16.495-36.847,36.847
				c0,20.352,16.496,36.847,36.847,36.847C276.337,90.176,292.832,73.68,292.832,53.329z"/>
		</g>
		<g>
		</g>
	</g>
</g>
</svg>
