<svg width="428" height="488" viewBox="0 0 428 488" fill="none" xmlns="http://www.w3.org/2000/svg">
<path d="M141.876 7.94669C152.527 5.93782 162.701 3.51209 173.014 2.13121C182.632 0.84355 192.423 -0.144602 202.094 0.15702C228.415 0.977989 253.996 5.87368 278.434 16.0935C305.004 27.2043 327.499 44.0365 346.621 65.3012C357.337 77.2183 366.449 90.416 373.992 104.67C381.635 119.111 388.713 133.742 392.359 149.778C395.686 164.403 395.699 179.155 392.514 193.726C390.3 203.858 386.763 213.695 384.232 223.768C383.751 225.685 384.686 228.439 385.861 230.217C397.911 248.457 410.128 266.589 422.336 284.726C433.29 301.002 424.562 325.247 404.411 329.934C400.921 330.746 397.29 330.951 393.001 331.535C393.001 335.98 393.303 340.773 392.917 345.51C392.528 350.267 391.224 354.839 386.235 357.077C392.596 365.507 391.831 369.743 382.108 380.704C387.017 392.791 388.004 405.141 382.941 417.397C376.785 432.302 363.833 442.983 347.118 445.108C334.783 446.677 323.176 442.812 311.233 441.542C303.975 440.771 296.797 439.257 288.991 437.98C287.979 449.315 286.999 460.414 285.994 471.51C285.683 474.943 285.508 478.407 284.902 481.79C284.278 485.277 278.858 488.481 275.394 487.732C270.644 486.704 267.791 482.448 268.3 478.168C269.385 469.044 270.158 459.882 270.989 450.729C271.717 442.701 272.237 434.653 273.072 426.637C273.461 422.906 278.396 419.43 282.665 420.061C296.073 422.044 309.41 424.538 322.843 426.32C331.013 427.404 338.992 430.422 347.581 428.112C358.447 425.19 367.588 416.192 368.829 404.99C369.362 400.182 369.538 394.405 367.383 390.414C362.202 380.816 362.758 373.23 370.633 367.779C369.263 363.102 367.831 359.296 367.082 355.36C366.28 351.151 368.386 347.946 372.089 346.029C375.233 344.4 376.338 342.17 376.091 338.595C375.736 333.454 375.979 328.269 376.006 323.103C376.033 317.956 378.746 315.211 383.714 314.979C388.816 314.74 393.963 314.679 398.997 313.919C409.825 312.285 412.459 299.796 408.031 293.43C395.079 274.813 382.638 255.84 369.61 237.276C365.286 231.115 365.007 225.659 367.885 218.79C373.978 204.249 377.479 188.984 378.006 173.128C378.479 158.887 374.33 145.704 368.96 132.773C361.516 114.851 351.672 98.2472 339.435 83.317C331.614 73.774 322.791 64.7431 313.143 57.089C302.721 48.8209 291.267 41.5532 279.449 35.4159C262.149 26.4312 243.535 20.7205 223.971 19.0602C211.639 18.0137 199.19 16.5841 186.896 17.2398C165.133 18.4006 144.003 23.2846 123.722 31.6349C98.935 41.8403 76.8692 56.0895 58.7659 75.8784C39.5689 96.863 26.7639 121.253 20.8368 149.334C17.5091 165.1 17.2005 180.961 18.2494 196.721C19.674 218.124 25.3686 238.799 33.3776 258.721C42.3579 281.059 53.6953 302.203 67.0998 322.185C75.1027 334.116 83.6769 345.662 91.9084 357.44C96.0499 363.367 97.9458 370.075 97.9846 377.273C98.043 388.105 98.4644 398.962 97.8994 409.765C96.8375 430.066 95.0193 450.316 90.4026 470.197C89.5576 473.836 88.9879 477.547 87.9854 481.14C86.8237 485.303 82.4899 488.45 79.1071 487.946C74.3088 487.231 71.6208 484.334 72.1129 478.97C72.6775 472.816 74.257 466.763 75.1179 460.628C76.8452 448.316 78.9421 436.019 79.85 423.64C80.8439 410.088 80.1732 396.414 81.1737 382.863C81.8498 373.705 78.3976 366.558 73.2331 359.785C53.8547 334.37 36.4773 307.7 23.2856 278.525C14.2076 258.448 7.51241 237.599 3.85298 215.74C1.35336 200.808 0.273105 185.838 1.13797 170.84C2.31926 150.354 6.79735 130.433 15.1847 111.625C24.7198 90.2443 37.9673 71.3434 55.1636 55.3933C73.4544 38.4281 94.1473 25.1081 117.446 16.068C125.311 13.016 133.447 10.6599 141.876 7.94669Z" fill="black"/>
<circle cx="292.5" cy="258.5" r="37.5" fill="#FF0000"/>
</svg>