<svg width="200" height="200" viewBox="0 0 200 200" fill="none" xmlns="http://www.w3.org/2000/svg">
<path d="M0 58.3333V41.6667C0 18.6917 18.6917 0 41.6667 0H58.3333C62.9333 0 66.6667 3.73333 66.6667 8.33333C66.6667 12.9333 62.9333 16.6667 58.3333 16.6667H41.6667C27.8833 16.6667 16.6667 27.8833 16.6667 41.6667V58.3333C16.6667 62.9333 12.9333 66.6667 8.33333 66.6667C3.73333 66.6667 0 62.9333 0 58.3333ZM100 83.3333C90.7917 83.3333 83.3333 90.7917 83.3333 100C83.3333 109.208 90.7917 116.667 100 116.667C109.208 116.667 116.667 109.208 116.667 100C116.667 90.7917 109.208 83.3333 100 83.3333ZM58.3333 183.333H41.6667C27.8833 183.333 16.6667 172.117 16.6667 158.333V141.667C16.6667 137.067 12.9333 133.333 8.33333 133.333C3.73333 133.333 0 137.067 0 141.667V158.333C0 181.308 18.6917 200 41.6667 200H58.3333C62.9333 200 66.6667 196.267 66.6667 191.667C66.6667 187.067 62.9333 183.333 58.3333 183.333ZM158.333 0H141.667C137.067 0 133.333 3.73333 133.333 8.33333C133.333 12.9333 137.067 16.6667 141.667 16.6667H158.333C172.117 16.6667 183.333 27.8833 183.333 41.6667V58.3333C183.333 62.9333 187.067 66.6667 191.667 66.6667C196.267 66.6667 200 62.9333 200 58.3333V41.6667C200 18.6917 181.308 0 158.333 0ZM100 150C61.8583 150 37.325 116.492 32.8417 107.525C30.45 102.75 30.45 97.275 32.8417 92.4833C37.3167 83.5083 61.8417 50 100 50C138.158 50 162.683 83.5083 167.158 92.4833C169.533 97.25 169.533 102.725 167.158 107.5C162.675 116.483 138.15 149.992 99.9917 149.992L100 150ZM152.25 99.9333C149.517 94.4583 129.45 66.6667 100 66.6667C70.55 66.6667 50.4833 94.4583 47.75 99.9333C50.4833 105.55 70.5583 133.333 100 133.333C129.442 133.333 149.517 105.4 152.25 99.9333ZM191.667 133.333C187.067 133.333 183.333 137.067 183.333 141.667V158.333C183.333 172.117 172.117 183.333 158.333 183.333H141.667C137.067 183.333 133.333 187.067 133.333 191.667C133.333 196.267 137.067 200 141.667 200H158.333C181.308 200 200 181.308 200 158.333V141.667C200 137.067 196.267 133.333 191.667 133.333Z" fill="#00B098"/>
</svg>
