<svg width="200" height="200" viewBox="0 0 200 200" fill="none" xmlns="http://www.w3.org/2000/svg">
<path d="M189.233 125.025C187.483 120.025 182.742 116.667 177.442 116.667H150.008V104.167C150.008 101.867 148.142 100 145.842 100C143.542 100 141.675 101.867 141.675 104.167V116.667H114.35C108.967 116.667 104.2 120.1 102.492 125.208C102.492 125.208 91.675 157.883 91.675 158.333C91.675 167.525 99.15 175 108.342 175C117.533 175 125.008 167.525 125.008 158.333C125.008 157.317 125.008 155.633 114.233 125H141.675V191.667H120.842C118.542 191.667 116.675 193.533 116.675 195.833C116.675 198.133 118.542 200 120.842 200H170.842C173.142 200 175.008 198.133 175.008 195.833C175.008 193.533 173.142 191.667 170.842 191.667H150.008V125H177.442H177.6C177.6 125 166.667 157.875 166.667 158.333C166.667 167.525 174.142 175 183.333 175C192.525 175 200 167.525 200 158.333C200 157.317 200 155.633 189.233 125.025ZM116.667 158.333H100.225L108.442 133.692C114.142 150.05 116.475 157.392 116.667 158.333ZM183.458 133.75C189.167 150.1 191.475 157.417 191.667 158.333H175.225L183.458 133.75ZM87.5 91.6667H37.5C35.2 91.6667 33.3333 89.8 33.3333 87.5C33.3333 85.2 35.2 83.3333 37.5 83.3333H87.5C89.8 83.3333 91.6667 85.2 91.6667 87.5C91.6667 89.8 89.8 91.6667 87.5 91.6667ZM87.5 191.667H37.5C21.4167 191.667 8.33333 178.583 8.33333 162.5V37.5C8.33333 21.4167 21.4167 8.33333 37.5 8.33333H83.4583C86.25 8.33333 88.9833 8.65 91.6667 9.13333V54.1667C91.6667 65.65 101.017 75 112.5 75C112.5 75 161.183 75.0833 161.983 74.8667C164.217 74.3 165.558 72.025 164.983 69.8C162.575 60.3833 157.675 51.775 150.8 44.9083L121.758 15.8667C111.525 5.63333 97.925 0 83.4583 0H37.5C16.825 0 0 16.825 0 37.5V162.5C0 183.175 16.825 200 37.5 200H87.5C89.8 200 91.6667 198.133 91.6667 195.833C91.6667 193.533 89.8 191.667 87.5 191.667ZM144.908 50.8C149.425 55.3167 152.9 60.7417 155.2 66.6667H112.5C105.608 66.6667 100 61.0583 100 54.1667V11.4917C105.867 13.7667 111.283 17.175 115.867 21.75L144.908 50.7917V50.8ZM79.1667 125H37.5C35.2 125 33.3333 123.133 33.3333 120.833C33.3333 118.533 35.2 116.667 37.5 116.667H79.1667C81.4667 116.667 83.3333 118.533 83.3333 120.833C83.3333 123.133 81.4667 125 79.1667 125ZM70.8333 150C73.1333 150 75 151.867 75 154.167C75 156.467 73.1333 158.333 70.8333 158.333H37.5C35.2 158.333 33.3333 156.467 33.3333 154.167C33.3333 151.867 35.2 150 37.5 150H70.8333Z" fill="#00B098"/>
</svg>
