<svg width="512" height="512" viewBox="0 0 512 512" fill="none" xmlns="http://www.w3.org/2000/svg">
<path d="M192.469 512C191.539 511.344 191.162 510.197 190.606 510.103C170.376 506.65 151.93 498.856 135.286 486.969C129.301 482.695 123.819 477.682 118.333 472.755C114.741 469.53 114.675 463.865 117.744 460.748C121.525 456.908 126.185 456.937 130.334 460.856C140.145 470.122 150.95 478.01 163.247 483.61C178.506 490.559 194.366 495.112 211.367 495.063C220.129 495.038 228.902 496.098 237.655 495.918C262.549 495.405 286.919 491.913 308.732 478.898C318.203 473.247 327.513 466.917 335.636 459.512C347.398 448.79 358.072 436.866 369.109 425.357C381.842 412.079 394.469 398.7 407.135 385.358C419.456 372.378 431.769 359.391 444.086 346.407C456.402 333.423 469.097 320.769 480.85 307.294C485.584 301.867 492 297.655 494.19 289.903C497.884 276.827 489.154 264.557 475.2 264.482C459.47 264.398 444.723 268.829 432.157 278.192C424.453 283.933 417.88 291.315 411.329 298.447C404.805 305.549 398.947 313.263 392.792 320.704C388.092 326.386 383.233 331.944 378.72 337.77C373.668 344.291 362.472 347.521 352.76 344.888C343.696 342.43 336.414 334.603 336.073 325.979C335.477 310.899 334.547 295.762 335.308 280.728C335.742 272.15 339.146 263.701 341.38 255.239C350.566 220.442 359.771 185.65 369.057 150.88C375.455 126.924 382.015 103.012 388.469 79.0715C392.126 65.5074 380.109 48.5576 366.256 46.9233C349.181 44.9091 338.313 54.4445 333.996 70.2328C328.78 89.3095 323.316 108.319 317.905 127.342C309.617 156.484 301.327 185.626 292.948 214.742C288.868 228.916 284.668 243.056 280.356 257.16C278.434 263.447 276.178 264.696 269.937 264.009C264.578 263.418 264.095 259.054 263.065 255.19C262.733 253.945 263.002 252.538 263.002 251.205C263.001 182.045 263.001 112.886 262.999 43.7267C262.999 28.4634 251.579 17.4898 236.433 16.8452C224.369 16.3318 212.577 25.0437 209.585 37.0048C208.561 41.0956 208.07 45.4266 208.064 49.6489C207.973 116.142 207.909 182.635 208.144 249.127C208.167 255.597 204.287 259.32 197.384 257.756C195.286 257.281 192.784 254.513 192.147 252.31C186.879 234.097 181.971 215.78 177.02 197.476C170.123 171.972 163.283 146.453 156.418 120.94C152.291 105.603 148.431 90.1874 143.954 74.9532C140.11 61.8725 129.757 55.5612 114.352 56.0005C104.843 56.2717 93.3776 65.8119 91.4439 76.5297C90.4552 82.0099 91.054 88.1608 92.4486 93.6221C99.7079 122.047 107.402 150.361 115.044 178.686C122.81 207.474 130.763 236.211 138.449 265.02C139.694 269.687 142.424 274.745 137.375 279.164C133.794 282.297 126.815 281.831 124.407 277.743C117.81 266.541 111.46 255.194 104.982 243.922C95.7483 227.855 86.4982 211.797 77.234 195.748C71.7908 186.318 66.2462 176.946 60.8589 167.484C55.7423 158.498 47.1108 153.65 37.0576 155.085C27.8573 156.398 20.4779 161.887 17.5454 171.983C15.1004 180.4 18.2751 187.754 22.3958 194.823C30.2526 208.303 38.3123 221.666 45.995 235.244C55.3691 251.81 64.9344 268.299 73.5005 285.283C81.4216 300.989 86.6774 317.795 88.9231 335.316C90.3826 346.702 90.7212 358.23 92.0766 369.633C93.558 382.097 95.4859 394.514 97.5237 406.902C98.2945 411.588 96.0719 416.327 91.5401 417.787C87.1297 419.208 82.1971 416.913 81.1574 411.975C79.0816 402.116 76.6614 392.162 76.2014 382.163C75.0697 357.566 73.9201 332.941 64.8115 309.807C59.0069 295.064 51.6248 280.884 44.1767 266.863C36.2522 251.944 27.4116 237.512 18.9781 222.863C13.8699 213.991 8.76385 205.117 3.68344 196.228C2.57753 194.293 1.5853 192.293 0.270309 190.662C-7.67708e-05 182.979 -7.6741e-05 174.958 0.277089 166.807C1.35291 165.134 1.97796 163.466 2.98134 162.07C6.63294 156.99 9.78724 151.336 14.2757 147.118C22.7503 139.156 33.5516 136.773 44.8679 138.107C55.3337 139.342 65.0382 143.253 70.9503 152.451C79.7259 166.103 87.716 180.26 96.0329 194.207C99.1229 199.389 102.193 204.584 105.271 209.773C105.647 208.549 105.272 207.695 105.032 206.805C97.0211 177.08 88.7787 147.415 81.1426 117.594C78.0082 105.354 73.1664 93.4454 73.8813 80.3035C74.5593 67.8396 79.54 57.8748 88.6929 49.6989C97.9963 41.3888 108.892 38.253 121.242 38.9467C136.228 39.7886 147.866 46.6034 155.348 59.2163C159.304 65.8864 161.479 73.7682 163.601 81.3433C170.286 105.216 176.525 129.214 183.024 153.14C185.545 162.423 188.299 171.642 190.96 181.187C191.056 182.06 191.139 182.637 191.222 183.214C191.471 183.197 191.721 183.179 191.97 183.162C191.97 136.383 191.97 89.6034 191.983 42.3845C192.07 39.4713 191.685 36.8786 192.291 34.5438C196.375 18.832 205.594 7.56976 221.183 2.00761C222.043 1.70079 222.801 1.10878 223.607 0.64952C223.405 0.43302 223.202 0.21651 223 3.81217e-09C231.354 -9.96188e-07 239.708 -1.01328e-06 248.193 0.27369C249.117 1.03778 249.852 1.69905 250.713 1.99334C268.254 7.9904 280.395 25.8661 280.186 44.2569C279.636 92.5652 280 140.884 280 189.199C280 190.834 280 192.469 280 195.484C281.068 193.042 281.639 192.065 281.935 191.01C287.668 170.575 293.328 150.12 299.088 129.694C304.011 112.235 308.946 94.7781 314.067 77.3768C316.486 69.1555 318.281 60.4996 322.225 53.0255C333.124 32.3711 355.964 24.5832 376.899 32.2003C398.019 39.8845 408.482 58.7451 405.667 79.4633C403.802 93.1835 399.116 106.533 395.519 120.002C388.746 145.365 381.834 170.69 375.003 196.037C369.185 217.629 363.362 239.219 357.62 260.83C355.625 268.343 352.843 275.837 352.239 283.483C351.325 295.073 351.874 306.791 352.102 318.449C352.15 320.897 352.924 323.755 354.364 325.672C358.302 330.916 363.504 329.575 368.732 322.754C373.11 317.042 377.816 311.58 382.45 306.069C388.58 298.777 395.126 291.807 400.866 284.224C408.706 273.867 418.223 265.582 429.443 259.26C440.022 253.299 451.53 249.573 463.52 248.219C470.664 247.412 478.18 247.62 485.244 248.921C496.62 251.016 504.096 258.656 509.049 268.927C509.635 270.143 510.997 270.985 512 272C512 279.688 512 287.375 511.73 295.193C509.405 298.952 507.851 303.007 505.198 306.127C498.359 314.17 491.113 321.872 483.887 329.577C471.763 342.503 459.537 355.333 447.338 368.189C434.796 381.408 422.285 394.655 409.67 407.803C398.636 419.305 387.478 430.687 376.374 442.121C375.793 442.718 375.198 443.301 374.618 443.898C363.467 455.37 353.137 467.813 340.983 478.1C320.677 495.289 296.937 506.031 270.413 510.106C269.858 510.191 269.467 511.345 269 512C243.646 512 218.292 512 192.469 512Z" fill="black"/>
</svg>
